<?xml version="1.0" standalone="no"?>
<!DOCTYPE svg PUBLIC "-//W3C//DTD SVG 1.1//EN" "http://www.w3.org/Graphics/SVG/1.1/DTD/svg11.dtd" >
<svg xmlns="http://www.w3.org/2000/svg" xmlns:xlink="http://www.w3.org/1999/xlink" version="1.1">
<metadata>
Created by FontForge 20200427 at Thu Nov  6 01:04:58 2014
 By www
Copyright 2012 Monotype Imaging Inc. All rights reserved.  This typeface is original artwork of Carl Crossgrove. The design may be protected in certain jurisdictions.
</metadata>
<defs>
<font id="BiomeW04-Bold" horiz-adv-x="645" >
  <font-face 
    font-family="BiomeW04-Bold"
    font-weight="700"
    font-stretch="normal"
    units-per-em="1000"
    panose-1="2 11 8 0 3 0 4 2 8 4"
    ascent="800"
    descent="-200"
    x-height="522"
    cap-height="676"
    bbox="-116.923 -275 1417 993"
    underline-thickness="50"
    underline-position="-125"
    unicode-range="U+0020-FB04"
  />
<missing-glyph horiz-adv-x="527" 
d="M13 0v732h501v-732h-501zM433 680h-339l170 -267zM233 366l-170 266v-532zM464 632l-170 -266l170 -267v533zM264 319l-170 -266h339z" />
    <glyph glyph-name="uniFB00" unicode="ff" horiz-adv-x="894" 
d="M107 346q0 30 -7 38t-32 8h-37q-18 0 -18 21q0 14 3.5 30.5t8 31t11 25.5t12.5 16q5 5 11.5 5.5t14.5 0.5h13q11 0 16 5.5t5 22.5q0 52 11 87t34 60q20 22 62.5 36.5t114.5 14.5q53 0 83.5 -7.5t43.5 -16.5q17 -12 28 -39t11 -55q0 -9 -5 -13t-11 -3q-15 1 -38 2.5
t-54 1.5q-24 0 -40 -1t-26.5 -3.5t-16 -6t-9.5 -8.5q-13 -12 -13 -53v-5q0 -11 4.5 -15t18.5 -4h190q12 0 17 5.5t5 22.5q0 52 11 87t34 59q21 22 64 37t117 15q58 0 89.5 -7.5t45.5 -16.5q17 -12 28.5 -39t11.5 -55q0 -9 -5 -13t-12 -3q-15 1 -39 2.5t-56 1.5
q-50 0 -71.5 -4.5t-29.5 -14.5q-7 -7 -10 -19t-3 -34v-5q0 -11 4.5 -15t18.5 -4h176q19 0 18 -18q0 -14 -4 -30t-10 -30.5t-13 -25.5t-14 -15q-8 -7 -19.5 -9t-37.5 -2h-82q-26 0 -31.5 -7.5t-5.5 -30.5v-335q0 -19 -20 -19h-138q-11 0 -14 5t-3 15v326q0 30 -7 38t-35 8
h-156q-24 0 -30.5 -7.5t-6.5 -30.5v-335q0 -19 -20 -19h-140q-16 0 -16 20v326z" />
    <glyph glyph-name="uniFB01" unicode="fi" horiz-adv-x="759" 
d="M108 550q0 52 11 87t34 60q20 22 59 36.5t109 14.5q57 0 86.5 -7.5t42.5 -16.5q16 -12 25.5 -39t9.5 -55q0 -8 -5 -12.5t-10 -3.5q-15 1 -38 2.5t-47 1.5q-44 0 -62.5 -4.5t-26.5 -14.5q-13 -12 -13 -53v-5q0 -11 4.5 -15t18.5 -4h374q10 0 12.5 -4.5t2.5 -13.5v-486
q0 -18 -19 -18h-143q-9 0 -11 5t-2 14v347q0 16 -6.5 21.5t-20.5 5.5h-175q-23 0 -29 -7.5t-6 -30.5v-336q0 -19 -20 -19h-140q-16 0 -16 20v326q0 30 -7 38t-32 8h-37q-18 0 -18 21q0 14 3.5 30.5t8 31t11 25.5t12.5 16q5 5 11.5 5.5t14.5 0.5h13q11 0 16 5.5t5 22.5z
M707 669q0 -24 -6 -43t-16 -27q-13 -9 -36.5 -11t-36.5 -2q-30 0 -47.5 4t-26.5 11q-18 13 -18 62q0 25 5.5 43.5t16.5 26.5q8 5 29 9.5t47 4.5t45 -3t27 -10q9 -8 13 -24.5t4 -40.5z" />
    <glyph glyph-name="uniFB02" unicode="fl" horiz-adv-x="781" 
d="M105 346q0 30 -7 38t-32 8h-37q-18 0 -18 21q0 14 3.5 30.5t8 31t11 25.5t12.5 16q5 5 11.5 5.5t13.5 0.5h13q11 0 16.5 5.5t5.5 22.5q0 101 45 147q20 22 62.5 36.5t116.5 14.5q58 0 89.5 -7.5t43.5 -16.5q17 -12 28.5 -39t11.5 -55q0 -9 -5 -13t-12 -3q-15 1 -38 2.5
t-54 1.5q-50 0 -71 -4.5t-29 -14.5q-8 -7 -11 -19t-3 -34v-5q0 -11 5 -15t19 -4h172q20 0 19 -18q0 -14 -4 -30t-10 -30t-13 -25t-14 -15q-8 -7 -19.5 -9t-37.5 -2h-79q-25 0 -31.5 -7.5t-6.5 -30.5v-336q0 -19 -19 -19h-140q-16 0 -16 20v326zM715 19q0 -19 -19 -19h-84
q-23 0 -37 3.5t-22 12t-10.5 23t-2.5 37.5v646q0 17 18 17h143q9 0 11.5 -5t2.5 -15v-700z" />
    <glyph glyph-name="uniFB03" unicode="ffi" horiz-adv-x="1175" 
d="M518 346q0 27 -7 36.5t-35 9.5h-156q-24 0 -30.5 -7.5t-6.5 -30.5v-335q0 -19 -20 -19h-140q-16 0 -16 20v326q0 30 -7 38t-32 8h-37q-18 0 -18 21q0 14 3.5 30.5t8 31t11 25.5t12.5 16q5 5 11.5 5.5t14.5 0.5h13q11 0 16 5.5t5 22.5q0 52 11 87t34 60q20 22 62.5 36.5
t114.5 14.5q53 0 83.5 -7.5t43.5 -16.5q17 -12 28 -39t11 -55q0 -9 -5 -13t-11 -3q-15 1 -38 2.5t-54 1.5q-24 0 -40 -1t-26.5 -3.5t-16 -6t-9.5 -8.5q-13 -12 -13 -53v-5q0 -11 4.5 -15t18.5 -4h190q12 0 17 5.5t5 22.5q0 52 11 87t34 60q21 22 59.5 36.5t110.5 14.5
q30 0 50.5 -2t35 -5.5t23.5 -8t16 -8.5q16 -12 25.5 -39t9.5 -55q0 -18 -16 -16q-15 1 -36.5 2.5t-46.5 1.5q-45 0 -62.5 -4.5t-25.5 -14.5q-7 -7 -10 -19t-3 -34v-5q0 -11 4.5 -15t18.5 -4h380q10 0 12.5 -4.5t2.5 -13.5v-486q0 -18 -19 -18h-143q-9 0 -11 5t-2 14v346
q0 16 -7 21.5t-18 5.5h-183q-25 0 -30 -7.5t-5 -30.5v-335q0 -19 -20 -19h-138q-11 0 -14 5t-3 15v326zM1123 669q0 -24 -6 -43t-17 -27q-7 -5 -17 -7.5t-20.5 -3.5t-20.5 -1.5t-17 -0.5q-30 0 -48.5 4t-27.5 11q-17 14 -17 62q0 25 5.5 43.5t17.5 26.5q8 5 29.5 9.5
t47.5 4.5q27 0 45.5 -3t26.5 -10q11 -8 15 -24.5t4 -40.5z" />
    <glyph glyph-name="uniFB04" unicode="ffl" horiz-adv-x="1185" 
d="M107 346q0 30 -7 38t-34 8h-36q-17 0 -17 19q0 15 3.5 31.5t8.5 31.5t11.5 26.5t13.5 16.5q5 3 11.5 4t13.5 1h11q11 0 16.5 5.5t5.5 22.5q0 52 11 87t34 60q20 22 62.5 36.5t114.5 14.5q53 0 83.5 -7.5t43.5 -16.5q17 -12 28 -39t11 -55q0 -9 -5 -13t-11 -3
q-15 1 -38 2.5t-54 1.5q-24 0 -40 -1t-26.5 -3.5t-16 -6t-9.5 -8.5q-13 -12 -13 -53v-5q0 -11 4.5 -15t18.5 -4h190q12 0 17 5.5t5 22.5q0 101 45 147q22 22 62 36.5t114 14.5q53 0 82.5 -7t42.5 -17q17 -13 27.5 -39.5t10.5 -54.5q0 -9 -5 -13t-11 -3q-15 1 -36.5 2.5
t-51.5 1.5q-24 0 -40 -1t-26.5 -3.5t-16 -6t-9.5 -8.5q-7 -7 -10 -19t-3 -34v-5q0 -11 4.5 -15t18.5 -4h162q9 0 15 -4.5t5 -15.5q0 -14 -3.5 -29t-9 -29.5t-12 -25.5t-12.5 -15q-8 -7 -20 -9t-35 -2h-80q-20 0 -26.5 -7.5t-6.5 -30.5v-335q0 -19 -20 -19h-138q-11 0 -14 5
t-3 15v326q0 30 -7 38t-35 8h-156q-24 0 -30.5 -7.5t-6.5 -30.5v-335q0 -19 -20 -19h-140q-16 0 -16 20v326zM1113 19q0 -19 -19 -19h-84q-23 0 -37 3.5t-22 12t-11 23t-3 37.5v646q0 17 19 17h143q9 0 11.5 -5t2.5 -15v-700z" />
    <glyph glyph-name="f_f_j.liga" unicode="ffj" horiz-adv-x="1178" 
d="M1123 669q0 -24 -6 -43t-17 -27q-7 -5 -17 -7.5t-20.5 -3.5t-20.5 -1.5t-17 -0.5q-30 0 -48.5 4t-27.5 11q-17 14 -17 62q0 25 5.5 43.5t17.5 26.5q8 5 29.5 9.5t47.5 4.5q27 0 45.5 -3t26.5 -10q11 -8 15 -24.5t4 -40.5zM1096 522q10 0 12.5 -4.5t2.5 -13.5v-550
q0 -50 -3.5 -80t-18.5 -51q-9 -15 -24.5 -27t-34 -20.5t-38 -13.5t-35.5 -5q-21 0 -21 25v583q0 16 -7 21.5t-18 5.5h-183q-23 0 -29 -7.5t-6 -30.5v-335q0 -19 -20 -19h-138q-11 0 -14 5t-3 15v326q0 27 -7 36.5t-35 9.5h-156q-26 0 -31.5 -7.5t-5.5 -30.5v-335
q0 -19 -20 -19h-140q-16 0 -16 20v326q0 30 -7 38t-32 8h-37q-18 0 -18 21q0 14 3.5 30.5t8 31t11 25.5t12.5 16q5 5 11.5 5.5t14.5 0.5h13q11 0 16 5.5t5 22.5q0 52 11 87t34 60q20 22 62.5 36.5t114.5 14.5q53 0 83.5 -7.5t43.5 -16.5q17 -12 28 -39t11 -55q0 -9 -5 -13
t-11 -3q-15 1 -38 2.5t-54 1.5q-24 0 -40 -1t-26.5 -3.5t-16 -6t-9.5 -8.5q-13 -12 -13 -53v-5q0 -11 4.5 -15t18.5 -4h190q12 0 17 5.5t5 22.5q0 52 11 87t34 60q21 22 59.5 36.5t110.5 14.5q30 0 50.5 -2t35 -5.5t23.5 -8t16 -8.5q16 -12 25.5 -39t9.5 -55q0 -18 -16 -16
q-15 1 -36.5 2.5t-46.5 1.5q-45 0 -62.5 -4.5t-25.5 -14.5q-7 -7 -10 -19t-3 -34v-5q0 -11 4.5 -15t18.5 -4h380z" />
    <glyph glyph-name="f_f_t.liga" unicode="fft" horiz-adv-x="1340" 
d="M910 522q20 0 20 18v24q0 48 16 63q10 11 45 21t94 15q8 1 14 -3t6 -14v-61q0 -21 1.5 -33.5t7 -19t16.5 -8.5t30 -2h138q21 0 19 -18q0 -16 -4.5 -32.5t-11 -31t-14 -26t-13.5 -15.5q-8 -4 -19 -5.5t-29 -1.5h-78q-29 0 -36 -10t-7 -38v-127q0 -35 3 -50t11 -23
t24 -11.5t57 -3.5q28 0 48.5 1.5t38.5 3.5q8 0 13 -4.5t3 -13.5q-2 -32 -16.5 -59.5t-31.5 -38.5q-12 -8 -43 -15t-94 -7q-64 0 -101 10t-56 28q-9 9 -15 21t-9.5 29.5t-5 42.5t-1.5 60v158q0 31 -7.5 39t-33.5 8h-165q-23 0 -28.5 -7.5t-5.5 -30.5v-335q0 -19 -20 -19h-139
q-10 0 -13 5t-3 15v326q0 27 -7 36.5t-32 9.5h-156q-24 0 -30.5 -7.5t-6.5 -30.5v-335q0 -19 -20 -19h-140q-16 0 -16 20v326q0 30 -7 38t-32 8h-37q-18 0 -18 21q0 14 3.5 30.5t8 31t11 25.5t12.5 16q5 5 11.5 5.5t14.5 0.5h13q11 0 16 5.5t5 22.5q0 52 11 87t34 60
q20 22 62.5 36.5t114.5 14.5q53 0 83.5 -7.5t43.5 -16.5q17 -12 28 -39t11 -55q0 -9 -5 -13t-11 -3q-15 1 -38 2.5t-54 1.5q-24 0 -40 -1t-26.5 -3.5t-16 -6t-9.5 -8.5q-13 -12 -13 -53v-5q0 -11 4.5 -15t18.5 -4h188q11 0 16 5.5t5 22.5q0 52 11 87t35 60q20 22 60.5 36.5
t110.5 14.5q55 0 84.5 -7.5t41.5 -16.5q16 -12 26 -39t10 -55q0 -18 -16 -16q-14 1 -37 2.5t-48 1.5q-45 0 -63.5 -5.5t-26.5 -13.5q-7 -7 -10 -19t-3 -34v-6q0 -10 4 -14t18 -4h198z" />
    <glyph glyph-name="f_j.liga" unicode="fj" horiz-adv-x="759" 
d="M707 669q0 -24 -6 -43t-16 -27q-13 -9 -36.5 -11t-36.5 -2q-30 0 -47.5 4t-26.5 11q-18 13 -18 62q0 25 5.5 43.5t16.5 26.5q8 5 29 9.5t47 4.5t45 -3t27 -10q9 -8 13 -24.5t4 -40.5zM520 366q0 15 -7.5 21t-19.5 6h-175q-23 0 -29 -7t-6 -31v-336q0 -19 -20 -19h-140
q-16 0 -16 20v326q0 30 -7 38t-32 8h-37q-18 0 -18 21q0 14 3.5 30.5t8 31t11 25.5t12.5 16q5 5 11.5 5.5t14.5 0.5h13q11 0 16 5.5t5 22.5q0 52 11 87t34 60q20 22 59 36.5t109 14.5q57 0 86.5 -7.5t42.5 -16.5q16 -12 25.5 -39t9.5 -55q0 -8 -5 -12.5t-10 -3.5
q-15 1 -38 2.5t-47 1.5q-44 0 -62.5 -4.5t-26.5 -14.5q-13 -12 -13 -53v-5q0 -11 4.5 -15t18.5 -4h376q8 0 10.5 -4.5t2.5 -13.5v-550q0 -50 -3.5 -80t-17.5 -51q-9 -15 -25 -27t-34.5 -20.5t-38 -13.5t-35.5 -5q-21 0 -21 25v584z" />
    <glyph glyph-name="f_t.liga" unicode="ft" horiz-adv-x="928" 
d="M317 392q-23 0 -28.5 -7.5t-5.5 -30.5v-335q0 -19 -20 -19h-140q-16 0 -16 20v326q0 30 -7 38t-32 8h-37q-18 0 -18 21q0 14 3 30.5t8 31t11 25.5t13 16q5 4 11 5t14 1h13q11 0 16.5 5.5t5.5 22.5q0 52 10.5 87.5t33.5 59.5q20 21 63.5 36t112.5 15q52 0 82 -7.5
t42 -16.5q16 -12 27 -39t11 -55q0 -18 -16 -16q-14 1 -36.5 2.5t-51.5 1.5q-48 0 -66 -5.5t-25 -13.5q-12 -12 -12 -53v-6q0 -10 4 -14t18 -4h198q18 0 18 18v24q0 48 17 63q11 11 45.5 21t94.5 15q7 1 13 -3t6 -14v-61q0 -21 1.5 -33.5t7 -19t17 -8.5t31.5 -2h136
q20 0 20 -18q0 -16 -4.5 -32.5t-11.5 -31t-14.5 -26t-13.5 -15.5q-14 -7 -48 -7h-77q-30 0 -37 -10t-7 -38v-127q0 -35 3 -50t11 -23q4 -4 10 -7t15 -4.5t23 -2.5t34 -1q27 0 48 1.5t39 3.5q17 0 17 -18q-3 -32 -17.5 -59.5t-31.5 -38.5q-12 -8 -43.5 -15t-94.5 -7t-100 10
t-56 28q-9 9 -15.5 21t-10.5 29.5t-5.5 42.5t-1.5 60v158q0 16 -1 25t-5.5 14t-12.5 6.5t-21 1.5h-164z" />
    <glyph glyph-name="t_t.liga" unicode="tt" horiz-adv-x="901" 
d="M320 392q-30 0 -36.5 -10t-6.5 -38v-127q0 -35 2.5 -50t10.5 -23t25 -11.5t57 -3.5q28 0 48.5 1.5t37.5 2.5q8 1 12.5 -3.5t3.5 -13.5q-2 -32 -16.5 -59.5t-31.5 -38.5q-12 -8 -42.5 -15t-94.5 -7q-63 0 -100.5 10t-55.5 28q-9 9 -15 21t-10 29.5t-5.5 42.5t-1.5 60v158
q0 31 -7 39t-33 8h-40q-9 0 -11.5 4.5t-2.5 10.5q1 16 4.5 33t9 32.5t12 27t12.5 16.5q5 4 11.5 5t12.5 1h11q21 0 21 18v24q0 48 17 63q10 11 44.5 21t94.5 15q8 1 14 -3t6 -14v-61q0 -21 1.5 -33.5t6.5 -19t16 -8.5t31 -2h176q13 0 17 5t4 13v24q0 48 17 63q11 11 45.5 21
t93.5 15q8 1 14.5 -3t6.5 -14v-61q0 -21 1.5 -33.5t7 -19t16.5 -8.5t30 -2h139q21 0 19 -17q-1 -16 -6.5 -33t-12.5 -31.5t-15 -26t-14 -15.5q-8 -5 -18.5 -6t-32.5 -1h-71q-31 0 -37 -10t-6 -38v-127q0 -35 2 -50t10 -23t25.5 -11.5t58.5 -3.5q27 0 47.5 1.5t38.5 2.5
q16 2 16 -17q-2 -32 -16.5 -59.5t-31.5 -38.5q-13 -8 -44 -15t-94 -7t-100.5 10t-55.5 28q-9 9 -15.5 21t-10.5 29.5t-5.5 42.5t-1.5 60v158q0 31 -6.5 39t-32.5 8h-170z" />
    <glyph glyph-name=".notdef" horiz-adv-x="527" 
d="M13 0v732h501v-732h-501zM433 680h-339l170 -267zM233 366l-170 266v-532zM464 632l-170 -266l170 -267v533zM264 319l-170 -266h339z" />
    <glyph glyph-name=".null" horiz-adv-x="0" 
 />
    <glyph glyph-name="nonmarkingreturn" horiz-adv-x="333" 
 />
    <glyph glyph-name="glyph614" horiz-adv-x="0" 
 />
    <glyph glyph-name="glyph614" horiz-adv-x="0" 
 />
    <glyph glyph-name="space" unicode=" " horiz-adv-x="232" 
 />
    <glyph glyph-name="exclam" unicode="!" horiz-adv-x="333" 
d="M73 647q-2 18 4.5 24.5t23.5 6.5h144q17 0 17 -17l-10 -370q-1 -35 -12 -52.5t-46 -17.5h-94q-16 0 -16 20zM66 71q0 23 6 42t17 27q10 6 33 9.5t48 3.5q59 0 79 -13q9 -8 13.5 -24t4.5 -39t-6.5 -41.5t-17.5 -26.5q-7 -4 -17.5 -6.5t-21.5 -4t-21.5 -2t-18.5 -0.5
q-63 0 -79 13q-19 16 -19 62z" />
    <glyph glyph-name="quotedbl" unicode="&#x22;" horiz-adv-x="431" 
d="M230 640q-1 23 7 31t28 8h97q14 0 14 -16l-10 -190q-1 -31 -10 -45.5t-43 -14.5h-60q-8 0 -10 3.5t-3 11.5zM31 640q-1 23 7.5 31t28.5 8h98q13 0 13 -16l-10 -190q-1 -31 -11 -45.5t-43 -14.5h-59q-8 0 -10.5 3.5t-2.5 11.5z" />
    <glyph glyph-name="numbersign" unicode="#" horiz-adv-x="537" 
d="M249 371q-17 0 -22.5 -4t-8.5 -23l-11 -34q-2 -11 1 -17.5t20 -6.5h51q14 0 20.5 3.5t9.5 17.5l11 42q2 14 -1.5 18t-19.5 4h-50zM56 371q-5 0 -7 1.5t-2 7.5q-1 6 2 20.5t8.5 31t12.5 31t14 19.5q8 6 17 7.5t19 1.5h22q14 0 18.5 4t8.5 18l14 45q6 33 15.5 45.5
t32.5 12.5h34q11 0 10 -15l-23 -86q-5 -17 0 -20.5t22 -3.5h50q15 0 21 4t8 18l12 45q8 33 16.5 45.5t31.5 12.5h31q11 0 8 -14l-22 -87q-4 -17 0.5 -20.5t22.5 -3.5h64q5 0 7.5 -1.5t2.5 -7.5t-3.5 -21t-8.5 -31.5t-12 -30.5t-13 -19q-7 -6 -17.5 -7.5t-24.5 -1.5h-20
q-17 0 -23 -4t-9 -23l-11 -34q-3 -17 1 -20.5t22 -3.5h62q5 0 7.5 -1.5t3.5 -7.5t-2.5 -20.5t-9.5 -31t-13.5 -31t-13.5 -19.5q-8 -6 -18 -7.5t-21 -1.5h-20q-17 0 -22.5 -4.5t-9.5 -22.5l-11 -42q-6 -29 -15.5 -40t-31.5 -11h-29q-13 0 -9 16l19 81q4 14 -0.5 18.5
t-18.5 4.5h-51q-18 0 -23.5 -4t-7.5 -21l-12 -40q-6 -33 -17 -44t-33 -11h-30q-5 0 -7.5 4.5t-0.5 11.5l19 81q2 14 -1.5 18.5t-17.5 4.5h-63q-6 0 -8 1.5t-3 7.5t2.5 20.5t9.5 31t13.5 31t13.5 19.5q6 6 14.5 7.5t17.5 1.5h26q15 0 20 4t8 18l13 41q3 14 -1 18t-19 4h-61z
" />
    <glyph glyph-name="dollar" unicode="$" horiz-adv-x="656" 
d="M440 10q-20 -2 -27 -9t-7 -25v-79q0 -12 -3 -17t-14 -5h-118q-14 0 -14 14v81q0 22 -8 26.5t-28 6.5q-42 5 -74 11t-45 14q-9 6 -17.5 18.5t-15.5 27.5t-11 31t-4 30q-1 12 5.5 18t15.5 5q32 -3 85 -8t113 -5q51 0 78 5t37 13q8 8 13 17t5 29q0 16 -3.5 25t-8.5 12
q-5 5 -26 9.5t-50.5 9t-63.5 9.5t-66 10t-58 10.5t-39 11.5q-23 11 -34 45t-11 80q0 69 16 114.5t45 72.5q17 17 44.5 30t74.5 20q17 2 22 8t5 20v92q0 5 3 9.5t10 4.5h119q17 0 17 -22v-82q0 -12 5 -18.5t21 -7.5q42 -3 70 -9t40 -13q20 -11 33 -41t15 -65q1 -10 -6 -14.5
t-15 -3.5q-33 2 -82.5 5.5t-101.5 3.5q-50 0 -80 -5t-41 -13q-11 -6 -16.5 -18t-5.5 -35q0 -22 11 -33q5 -5 27 -10t52.5 -9t65.5 -8.5t68 -9t59 -9.5t39 -10q21 -8 33 -43t12 -82q0 -78 -15.5 -124t-39.5 -71q-14 -14 -39.5 -26t-70.5 -19z" />
    <glyph glyph-name="percent" unicode="%" horiz-adv-x="1016" 
d="M983 198q0 -75 -18 -116.5t-40 -59.5q-21 -17 -56.5 -25t-83.5 -8q-52 0 -87.5 10t-55.5 27q-21 19 -34.5 56t-13.5 107q0 71 17 113t42 61q22 17 55 26t87 9q53 0 86 -9t52 -26q22 -17 36 -56.5t14 -108.5zM855 195q0 42 -6 61.5t-14 26.5q-6 5 -18.5 8t-27.5 3
q-33 0 -47 -14q-8 -7 -15 -27.5t-7 -59.5q0 -40 6 -60.5t15 -26.5q6 -6 18 -9t27 -3q18 0 30.5 2.5t17.5 6.5q8 7 14.5 28.5t6.5 63.5zM417 69q-18 -35 -42 -52t-68 -17h-32q-12 0 -17 8t3 22l324 574q22 42 47.5 57t66.5 15h33q12 0 17.5 -8t-1.5 -19zM413 493
q0 -75 -18 -116.5t-40 -59.5q-21 -17 -56.5 -25t-83.5 -8q-52 0 -87.5 10t-55.5 27q-21 18 -34.5 55.5t-13.5 107.5t17 112t42 62q22 17 55 26t87 9q53 0 86 -9t52 -26q22 -17 36 -56.5t14 -108.5zM285 490q0 41 -6 61t-14 26q-6 5 -18.5 8t-27.5 3q-34 0 -47 -13
q-8 -8 -15 -28t-7 -60q0 -39 6 -59.5t15 -27.5q14 -12 45 -12q18 0 30.5 3t17.5 8q8 6 14.5 27t6.5 64z" />
    <glyph glyph-name="ampersand" unicode="&#x26;" horiz-adv-x="878" 
d="M285 279q-27 0 -41 -7q-8 -5 -16 -21.5t-8 -48.5q0 -19 4 -31.5t10 -20.5q8 -10 27 -15.5t63 -5.5q32 0 55.5 2.5t37.5 10.5q9 5 19 14.5t18.5 20t14.5 19t6 11.5q0 6 -8 17t-21 25q-15 17 -27 23.5t-33 6.5h-101zM353 399q46 0 54 9q7 9 7 40q0 66 -20 88q-15 15 -68 15
q-30 0 -47 -3.5t-25 -12.5q-7 -6 -12 -22.5t-5 -42.5q0 -29 5 -43t12 -20q5 -4 19.5 -6t26.5 -2h53zM587 96q-2 0 -9 -7t-18 -17.5t-23.5 -21.5t-24.5 -19q-17 -11 -36 -19t-43 -13t-54 -7t-70 -2q-81 0 -133 11.5t-78 40.5q-23 22 -32.5 58t-9.5 86q0 28 3.5 48.5t9.5 36.5
t13 28.5t15 23.5q7 8 11 13t4 12q0 5 -2 9.5t-7 15.5q-8 17 -14.5 42.5t-6.5 67.5q0 51 13.5 87t36.5 59q30 29 79 40.5t111 11.5q66 0 116.5 -8.5t76.5 -34.5q23 -23 34 -68.5t11 -127.5v-75q0 -4 4.5 -10.5t10 -13t10.5 -11t7 -4.5q3 0 8 6.5t9 13.5l45 62
q10 16 18.5 27.5t20 18.5t27.5 10t42 3h74q6 0 9.5 -4.5t-1.5 -11.5l-132 -197q-11 -14 -16 -25.5t-5 -17.5q0 -5 7 -18t16 -25l118 -152q5 -8 2.5 -13t-9.5 -5h-100q-33 0 -52 11.5t-36 35.5l-28 28q-8 9 -12.5 15t-9.5 6z" />
    <glyph glyph-name="quotesingle" unicode="'" horiz-adv-x="222" 
d="M35 640q-1 23 7 31t28 8h98q16 0 14 -16l-9 -190q-1 -31 -10.5 -45.5t-43.5 -14.5h-61q-12 0 -12 15z" />
    <glyph glyph-name="parenleft" unicode="(" horiz-adv-x="283" 
d="M158 331q0 -72 10 -136.5t25 -120t33 -101t35 -78.5q4 -10 -0.5 -15t-9.5 -5q-14 0 -31 4t-34 10.5t-32.5 15.5t-24.5 18q-16 16 -34.5 50t-34 86t-25.5 120t-10 152q0 52 7.5 110.5t20.5 113t30.5 100.5t37.5 72q9 12 24 23t33 19.5t36 13.5t32 5q9 0 13.5 -6.5
t0.5 -14.5q-20 -39 -38 -85t-32.5 -100.5t-23 -117t-8.5 -133.5z" />
    <glyph glyph-name="parenright" unicode=")" horiz-adv-x="282" 
d="M256 331q0 -62 -9 -123.5t-23 -115.5t-32 -96t-36 -65q-9 -11 -24.5 -21.5t-32.5 -18t-34.5 -12t-30.5 -4.5q-8 0 -12 5.5t1 14.5q17 37 35 82.5t33 100.5t24.5 118t9.5 135t-9.5 135.5t-24 118.5t-32.5 100.5t-36 80.5q-5 9 -1 15.5t12 6.5q14 0 31.5 -4.5t35 -12
t33 -17t24.5 -19.5q18 -19 35.5 -57t31.5 -90.5t22.5 -117.5t8.5 -139z" />
    <glyph glyph-name="asterisk" unicode="*" horiz-adv-x="483" 
d="M92 446q16 26 32.5 33t36.5 7h27q14 0 10 -11l-37 -76q-14 -25 -27.5 -35.5t-41.5 -10.5h-42q-8 0 -12 4t0 9zM376 553q-17 -26 -33 -32.5t-35 -6.5h-28q-5 0 -8.5 2.5t0.5 8.5l37 74q11 25 24.5 36t42.5 11h45q5 0 9 -4t-1 -10zM429 366q5 -5 1 -9t-9 -4h-45
q-28 0 -42 10.5t-25 35.5l-37 76q-4 6 -0.5 8.5t8.5 2.5h28q19 0 35 -7t33 -33zM38 632q-5 7 0 10.5t10 3.5h44q28 0 41.5 -11t27.5 -36l37 -74q4 -11 -10 -11h-27q-20 0 -37 6.5t-32 32.5zM278 319q2 -18 -6 -24t-28 -6h-51q-7 0 -12 3.5t-4 8.5l24 128q6 32 34 32h14
q8 0 9.5 -2.5t2.5 -8.5zM188 684q-1 18 6.5 24t27.5 6h53q7 0 11.5 -3t2.5 -8l-21 -128q-8 -32 -34 -32h-16q-7 0 -8.5 3t-1.5 7z" />
    <glyph glyph-name="plus" unicode="+" horiz-adv-x="566" 
d="M378 256q-15 0 -21 -6.5t-6 -30.5v-125q0 -19 -6 -25.5t-21 -6.5h-102q-7 0 -7 11v156q0 16 -4.5 21.5t-15.5 5.5h-141q-10 0 -10 10v99q0 17 7 25t25 8h110q17 0 23 6.5t6 26.5v132q0 17 5 23t19 6h103q6 0 7.5 -2.5t1.5 -6.5v-159q0 -18 6 -22t20 -4h137q8 0 8 -10
v-100q0 -14 -5.5 -23t-19.5 -9h-119z" />
    <glyph glyph-name="comma" unicode="," horiz-adv-x="302" 
d="M202 -26q-14 -42 -35 -56.5t-59 -14.5h-70q-7 0 -11 5t1 16l54 153q14 42 33.5 56.5t56.5 14.5h74q8 0 13 -5t1 -16z" />
    <glyph glyph-name="hyphen" unicode="-" horiz-adv-x="504" 
d="M58 268q-18 0 -18 16q0 10 4 26t10.5 32.5t15.5 30.5t18 21q11 8 25.5 10t38.5 2h295q8 0 13 -3t5 -14q0 -9 -4.5 -24.5t-11 -32t-15.5 -31t-18 -21.5q-19 -12 -66 -12h-292z" />
    <glyph glyph-name="period" unicode="." horiz-adv-x="305" 
d="M51 71q0 24 6 43t18 27q10 8 32.5 11.5t48.5 3.5q60 0 79 -16q10 -6 14.5 -22.5t4.5 -39.5q0 -24 -6.5 -42.5t-17.5 -26.5q-14 -9 -38.5 -12t-41.5 -3q-61 0 -79 15q-20 16 -20 62z" />
    <glyph glyph-name="slash" unicode="/" horiz-adv-x="404" 
d="M186 74q-15 -44 -39 -59t-56 -15h-59q-22 0 -16 22l203 579q16 44 36 59.5t58 15.5h59q8 0 14 -5t3 -15z" />
    <glyph glyph-name="zero" unicode="0" horiz-adv-x="657" 
d="M628 342q0 -112 -24 -185t-62 -106q-36 -32 -96.5 -47t-124.5 -15q-91 0 -142 20t-79 49q-32 32 -51.5 99t-19.5 180q0 109 25.5 181.5t62.5 106.5q28 26 83 44t137 18q87 0 139 -16.5t81 -45.5q29 -31 50 -102.5t21 -180.5zM453 342q0 71 -8.5 112.5t-22.5 58.5
q-13 15 -39 21.5t-53 6.5q-35 0 -58 -9t-34 -22q-14 -14 -26 -58t-12 -114q0 -69 9 -111.5t24 -59.5q12 -16 36.5 -24t53.5 -8q36 0 60.5 8t35.5 21q14 14 24 58t10 120z" />
    <glyph glyph-name="one" unicode="1" horiz-adv-x="657" 
d="M460 19q0 -19 -17 -19h-153q-8 0 -9.5 4.5t-1.5 9.5v469q0 25 -10 30t-36 0l-132 -25q-9 -2 -14.5 2.5t-5.5 11.5q0 50 5 76t16 40q8 9 21 15.5t36 11.5l278 50q12 2 17.5 -2.5t5.5 -18.5v-655z" />
    <glyph glyph-name="two" unicode="2" horiz-adv-x="657" 
d="M38 92q0 44 7.5 83.5t23.5 58.5q12 15 38.5 32t60 34.5t70 35t69 34t57 30.5t33.5 24q7 7 11.5 20.5t4.5 30.5q0 27 -17 42q-11 10 -36.5 15.5t-81.5 5.5q-53 0 -106.5 -6.5t-90.5 -11.5q-10 -1 -16.5 5.5t-5.5 15.5q1 13 7.5 30t15.5 32.5t20.5 29t22.5 20.5
q24 15 72 24t130 9q51 0 87.5 -3t63 -9t44 -15t30.5 -21q24 -23 36.5 -62t12.5 -84q0 -47 -12 -87.5t-32 -64.5q-12 -14 -39 -29.5t-60.5 -31.5t-70 -31.5t-68.5 -28.5t-55 -24t-30 -17q-1 -1 -2 -6t-1 -10q0 -7 4 -11q4 -1 32 -2t74 -1q100 0 162 5.5t93 7.5q8 1 14.5 -4.5
t5.5 -16.5q0 -7 -4.5 -24t-13 -36.5t-20 -37t-24.5 -24.5q-22 -13 -78.5 -16.5t-165.5 -3.5q-134 0 -195 4t-65 12q-12 17 -12 78z" />
    <glyph glyph-name="three" unicode="3" horiz-adv-x="657" 
d="M99 277q-20 0 -20 19q0 9 5 24.5t12.5 31t16.5 28.5t17 19q10 8 26.5 9.5t40.5 1.5h129q20 0 33.5 1t21.5 6q9 5 16 18t7 35q0 20 -5 32t-16 19q-9 7 -33.5 10.5t-78.5 3.5q-61 0 -109.5 -4.5t-82.5 -6.5q-9 -2 -15.5 4t-4.5 18q1 12 7 26t14.5 28t19 26.5t22.5 20.5
q23 15 69 24t132 9q48 0 83 -3t60.5 -8.5t42.5 -13.5t29 -18q20 -18 33 -49t13 -74q0 -41 -8 -70t-17 -48q-7 -14 -11 -21.5t-4 -14.5t4.5 -14t13.5 -19q17 -23 29 -55t12 -79q0 -57 -18 -95t-43 -58q-14 -11 -33.5 -20t-49 -15t-70.5 -9.5t-98 -3.5q-47 0 -81 2t-58 6
t-39.5 9.5t-24.5 12.5q-11 8 -20.5 21.5t-17 28.5t-11.5 29t-4 23q0 24 24 21q31 -3 80.5 -8t116.5 -5q61 0 95 4t46 12q25 15 25 64q0 24 -7.5 38.5t-18.5 18.5q-8 5 -22 6.5t-42 1.5h-233z" />
    <glyph glyph-name="four" unicode="4" horiz-adv-x="657" 
d="M229 327q-8 -14 -12 -20.5t-4 -13.5q0 -13 17 -13h163q14 0 18.5 5t4.5 17v162q0 17 15 36t38 34.5t50 25.5t52 10q20 0 20 -23v-533q0 -14 -15 -14h-114q-16 0 -25 2.5t-13.5 9t-6 17t-1.5 25.5v71q0 17 -5.5 22t-16.5 5h-324q-22 0 -33.5 21t-11.5 57q0 35 7.5 62
t21.5 51l173 254q13 22 26 37t29 24t38 13t53 4h57q13 0 17.5 -8.5t-0.5 -17.5z" />
    <glyph glyph-name="five" unicode="5" horiz-adv-x="657" 
d="M605 229q0 -74 -19 -120t-45 -69q-12 -11 -29 -20t-43.5 -16t-64.5 -10.5t-91 -3.5q-91 0 -141.5 8t-70.5 24q-19 15 -32 45.5t-15 57.5q0 23 20 21q34 -4 82.5 -10t110.5 -6q57 0 88.5 6t39.5 14q9 8 14 23.5t5 33.5q0 20 -2.5 29.5t-9.5 16.5q-8 8 -41 14t-102 11
q-88 6 -131.5 9.5t-53.5 8.5q-7 3 -9.5 13.5t-2.5 21.5q0 21 2.5 61.5t6.5 86t8.5 88.5t8.5 67q4 41 39 41h445q17 0 21.5 -4.5t4.5 -13.5q0 -11 -5 -32.5t-15 -43t-25 -37.5t-34 -16h-261q-12 0 -15 -12q-1 -5 -3 -15.5t-3.5 -22.5t-2.5 -23t-1 -17t1.5 -8t6.5 -6
q4 -3 18.5 -5t36.5 -4.5t48.5 -4.5t54.5 -5q27 -2 52.5 -5t47.5 -6.5t38.5 -7.5t24.5 -10q22 -15 32.5 -51t10.5 -96z" />
    <glyph glyph-name="six" unicode="6" horiz-adv-x="657" 
d="M230 403q0 -9 12 -9q27 2 71 5.5t84 3.5q75 0 117 -10t63 -29q20 -18 33 -50t13 -91q0 -67 -19.5 -110.5t-48.5 -66.5q-12 -10 -30.5 -19t-45.5 -16.5t-64.5 -12t-86.5 -4.5q-90 0 -143.5 18.5t-82.5 50.5q-27 32 -42 86.5t-15 143.5q0 39 4.5 77t12.5 72t20 62t27 47
q29 39 82 67t135 45q35 7 70.5 12.5t67 9.5t58 5.5t44.5 1.5q22 0 22 -21v-23q0 -54 -16.5 -76.5t-54.5 -30.5q-28 -5 -64.5 -9.5t-87.5 -14.5q-45 -8 -72 -19.5t-41 -33.5q-7 -9 -11 -19.5t-6 -19.5q-3 -11 -5 -22zM443 211q0 20 -4.5 33t-10.5 20q-8 8 -33.5 12t-62.5 4
q-26 0 -48.5 -2.5t-41.5 -4.5q-8 -1 -10.5 -5t-2.5 -14q0 -29 4 -56.5t17 -41.5q11 -11 30.5 -18t53.5 -7q64 0 86 16q10 7 16.5 24.5t6.5 39.5z" />
    <glyph glyph-name="seven" unicode="7" horiz-adv-x="657" 
d="M125 24q13 22 36.5 61t51.5 86.5t59 98.5t58 97t48.5 83t31.5 56q0 1 0.5 5t0.5 9q0 7 -3 10q-6 4 -47.5 4.5t-105.5 0.5q-25 0 -55 -1l-60 -2t-56.5 -3t-42.5 -3q-16 -2 -16 15q1 13 6.5 30.5t15 35.5t21.5 33t27 23q23 12 86.5 15t155.5 3q126 0 186 -6t68 -14
q13 -15 13 -60q0 -38 -6.5 -69t-16.5 -49q-16 -29 -46 -81.5t-65 -112.5t-69 -119t-58 -101q-12 -20 -23 -33t-24 -21t-29.5 -11.5t-39.5 -3.5h-90q-10 0 -13.5 8t1.5 16z" />
    <glyph glyph-name="eight" unicode="8" horiz-adv-x="657" 
d="M328 -9q-105 0 -164 14.5t-86 40.5q-20 18 -34.5 51t-14.5 92q0 51 16 82t34 53q6 8 11 14.5t5 13.5q0 6 -3.5 11.5t-9.5 14.5q-12 18 -20 45.5t-8 67.5q0 51 15 84t33 51q12 11 30.5 21.5t46.5 18.5t65.5 12.5t87.5 4.5q47 0 82.5 -3.5t61.5 -9.5t44 -15t32 -20
q23 -19 36.5 -51.5t13.5 -77.5q0 -42 -8.5 -70t-19.5 -49q-5 -9 -8.5 -14.5t-3.5 -11.5q0 -7 5 -13t12 -15q15 -19 31 -51t16 -81q0 -62 -16.5 -97.5t-36.5 -55.5q-12 -11 -30 -21t-46.5 -18t-69.5 -13t-99 -5zM290 277q-26 0 -39.5 -3t-18.5 -8q-11 -6 -19.5 -19t-8.5 -39
q0 -23 5 -36t11 -19q8 -9 33 -15.5t75 -6.5q45 0 71 6.5t37 15.5q8 8 12.5 22t4.5 40q0 23 -9 35.5t-17 17.5q-7 4 -20 6.5t-42 2.5h-75zM360 405q41 0 48 10q8 5 17.5 21t9.5 43q0 26 -5.5 37t-11.5 16q-8 8 -26 13.5t-63 5.5q-42 0 -62.5 -7t-28.5 -15q-6 -6 -12 -19
t-6 -35q0 -27 7.5 -41.5t15.5 -19.5q9 -9 50 -9h67z" />
    <glyph glyph-name="nine" unicode="9" horiz-adv-x="657" 
d="M427 268q0 9 -12 9q-28 -2 -69.5 -4t-80.5 -2q-72 0 -113.5 8.5t-64.5 28.5q-21 17 -35.5 55.5t-14.5 95.5q0 68 19 108.5t49 63.5q25 21 79 37t149 16q88 0 141 -19.5t81 -54.5q27 -30 42.5 -83t15.5 -141q0 -91 -17.5 -160.5t-48.5 -107.5q-61 -79 -223 -109
q-36 -7 -71.5 -11.5t-67.5 -7t-59 -3.5t-46 -1t-19 19v23q0 53 18 75.5t57 29.5q26 3 66 8t86 13q46 7 72 17t40 27q7 8 12 19t8.5 21.5t5 18.5t1.5 11zM213 465q0 -20 6 -36t14 -22q10 -8 33.5 -11t59.5 -3q26 0 49 1t42 4q8 2 10.5 5.5t2.5 12.5q0 35 -4.5 62.5
t-15.5 39.5q-11 14 -31 20t-56 6q-31 0 -51.5 -3.5t-32.5 -12.5q-11 -8 -18.5 -24t-7.5 -39z" />
    <glyph glyph-name="colon" unicode=":" horiz-adv-x="305" 
d="M50 460q0 25 6 43.5t18 26.5q10 8 33 11t48 3q62 0 80 -14q8 -8 13 -24.5t5 -39.5t-6.5 -41.5t-17.5 -26.5q-7 -5 -17.5 -8t-21.5 -4.5t-22 -2.5t-18 -1q-32 0 -51.5 4.5t-28.5 10.5q-10 8 -15 24t-5 39zM50 73q0 23 6 42t18 27q10 8 33 11t48 3q60 0 80 -14
q18 -16 18 -64q0 -23 -6.5 -41.5t-17.5 -27.5q-7 -4 -17.5 -7t-21.5 -4.5t-22 -2.5t-18 -1q-32 0 -51.5 4t-28.5 11q-20 17 -20 64z" />
    <glyph glyph-name="semicolon" unicode=";" horiz-adv-x="304" 
d="M55 460q0 52 24 70q10 8 33.5 11t49.5 3q28 0 48.5 -3t29.5 -11t13.5 -24.5t4.5 -39.5t-6.5 -41.5t-17.5 -26.5q-13 -9 -38.5 -12.5t-41.5 -3.5q-32 0 -51 4.5t-29 10.5q-19 16 -19 63zM202 -26q-15 -42 -35.5 -56.5t-58.5 -14.5h-71q-6 0 -10 5t1 16l54 153
q15 42 34 56.5t56 14.5h73q8 0 13.5 -5t1.5 -16z" />
    <glyph glyph-name="less" unicode="&#x3c;" horiz-adv-x="568" 
d="M518 569q6 0 8 -5.5t-4 -10.5l-272 -198q-13 -9 -17.5 -14t-4.5 -10q0 -8 4 -13t17 -13l269 -186q5 -5 4.5 -10.5t-7.5 -5.5h-154q-16 0 -27.5 2.5t-21.5 6.5t-19.5 10t-20.5 14l-198 139q-17 14 -23 22t-6 20v18q0 14 5 22.5t27 24.5l206 154q20 16 36 24.5t45 8.5h154z
" />
    <glyph glyph-name="equal" unicode="=" horiz-adv-x="566" 
d="M513 284q9 0 9 -11v-99q0 -15 -5.5 -24t-19.5 -9h-444q-9 0 -9 10v99q0 17 7 25.5t25 8.5h437zM513 513q4 0 6.5 -1.5t2.5 -8.5v-100q0 -14 -5.5 -23t-19.5 -9h-444q-9 0 -9 9v99q0 17 7 25.5t25 8.5h437z" />
    <glyph glyph-name="greater" unicode="&#x3e;" horiz-adv-x="566" 
d="M55 103q-7 0 -8.5 5.5t5.5 10.5l271 202q14 9 18 14.5t4 9.5q0 8 -3.5 14t-17.5 14l-266 181q-5 4 -4 9.5t8 5.5h154q32 0 50 -8t41 -24l196 -135q17 -12 22 -20.5t5 -18.5v-19q0 -15 -5.5 -24t-27.5 -25l-210 -158q-9 -8 -17 -14t-16.5 -10.5t-19 -7t-24.5 -2.5h-155z
" />
    <glyph glyph-name="question" unicode="?" horiz-adv-x="580" 
d="M348 415q6 8 9.5 23t3.5 27q0 40 -15 54q-5 4 -12 7.5t-20.5 6t-34.5 4t-52 1.5q-48 0 -98.5 -5t-85.5 -8q-9 -1 -14.5 4.5t-3.5 16.5q2 14 7.5 29.5t14 29.5t18 26t19.5 19q9 7 24 13t38 10.5t55.5 7.5t78.5 3q90 0 138 -11t72 -32q23 -20 36 -61t13 -101
q0 -45 -12 -86.5t-31 -61.5q-13 -14 -39.5 -30t-59 -31t-67.5 -28.5t-65 -23.5t-52 -16t-28 -6q-19 0 -19 21v25q0 45 12.5 70t34.5 38q14 8 34 17t40 17t36.5 16t24.5 15zM158 73q0 23 6.5 42t18.5 27q10 7 32.5 10.5t47.5 3.5q60 0 80 -15q18 -15 18 -63q0 -23 -6 -42
t-18 -27q-14 -9 -39 -12t-41 -3q-61 0 -79 15q-20 16 -20 64z" />
    <glyph glyph-name="at" unicode="@" horiz-adv-x="860" 
d="M351 257q0 -34 6.5 -52t14.5 -27q17 -14 70 -14h30t20 2q7 1 9 5.5t2 16.5v147q0 14 -2.5 19.5t-10.5 7.5q-8 1 -22 1.5t-28 0.5q-49 0 -64 -14q-11 -11 -18 -36t-7 -57zM714 595q51 -37 76 -100.5t25 -152.5q0 -84 -21.5 -144.5t-63.5 -91.5q-30 -22 -94.5 -36
t-172.5 -14q-75 0 -115.5 12t-58.5 28q-20 17 -35 53t-15 99q0 72 16.5 115.5t39.5 63.5q19 18 56.5 27.5t108.5 9.5q21 0 42.5 -0.5t40.5 -1.5t33.5 -2t21.5 -1q5 0 7.5 -2t2.5 -13v-257q0 -13 11 -13q8 0 24 3.5t24 9.5q17 15 27.5 54t10.5 90q0 66 -17.5 108.5
t-46.5 67.5q-50 44 -193 44q-67 0 -119.5 -12.5t-84.5 -39.5q-40 -33 -64 -92.5t-24 -145.5q0 -98 23 -152t56 -83q29 -25 82.5 -40t141.5 -15q90 0 152 10.5t86 15.5q6 1 11 -3.5t3 -12.5t-6.5 -20t-12 -24t-16.5 -23t-19 -17q-19 -11 -68 -20.5t-145 -9.5q-88 0 -163.5 17
t-125.5 60q-23 20 -42.5 48t-34 65.5t-23 86t-8.5 110.5q0 120 31.5 198t90.5 128q43 35 113.5 56t176.5 21q85 0 148 -15t107 -47z" />
    <glyph glyph-name="A" unicode="A" horiz-adv-x="755" 
d="M207 68q-5 -18 -12.5 -31t-18.5 -21t-28 -12t-41 -4h-78q-8 0 -13 5t-5 10q0 11 7 31l135 447q11 37 21 63t18.5 44t17 29t16.5 18q20 17 57 27t102 10q67 0 101.5 -8.5t52.5 -25.5q7 -7 15 -18.5t16 -29.5t17 -44.5t19 -62.5l132 -461l2.5 -12.5t0.5 -9.5q0 -12 -15 -12
h-91q-25 0 -42 3.5t-28.5 12t-19 21.5t-13.5 32l-31 106q-5 17 -12.5 23.5t-29.5 6.5h-179q-19 0 -28 -7t-14 -25zM461 361q0 9 -9 41l-16 63q-8 30 -14.5 42.5t-11.5 17.5t-13 7.5t-22 2.5t-23 -3t-14 -7q-7 -5 -13.5 -19t-15.5 -43l-20 -66q-4 -12 -6.5 -22.5t-2.5 -14.5
q0 -12 8 -16.5t29 -4.5h109q24 0 29.5 5.5t5.5 16.5z" />
    <glyph glyph-name="B" unicode="B" horiz-adv-x="706" 
d="M672 197q0 -64 -21.5 -107t-49.5 -60t-86 -25.5t-162 -8.5q-77 0 -143.5 1.5t-115.5 3.5q-5 1 -13 6t-8 22v619q0 13 8 18t13 4q60 3 124.5 4.5t139.5 1.5q60 0 102 -2.5t70.5 -7t45.5 -12t29 -16.5q20 -17 32 -47.5t12 -72.5q0 -48 -9 -74t-20 -45q-8 -12 -12.5 -19
t-4.5 -14q0 -6 6.5 -13t17.5 -19q17 -19 31 -50t14 -87zM485 205q0 26 -8.5 43.5t-19.5 24.5q-8 5 -22.5 6t-48.5 1h-109q-17 0 -22 -7t-5 -21v-96q0 -15 5 -20t19 -6q17 -2 37.5 -2h48.5q42 0 66 2.5t36 10.5q23 16 23 64zM468 477q0 25 -5.5 35.5t-13.5 18.5
q-12 8 -32.5 12t-61.5 4q-25 0 -45 -1t-39 -3q-14 -2 -17.5 -7t-3.5 -20v-86q0 -16 5.5 -20.5t21.5 -4.5h104q23 0 36.5 1.5t21.5 6.5t18.5 20t10.5 44z" />
    <glyph glyph-name="C" unicode="C" horiz-adv-x="668" 
d="M231 340q0 -68 12 -108t32 -56q22 -17 60.5 -24t104.5 -7q58 0 106.5 5.5t77.5 7.5q6 0 11.5 -3.5t3.5 -13.5q-3 -17 -9 -34.5t-14.5 -33.5t-19 -29.5t-20.5 -20.5q-24 -15 -72.5 -23.5t-136.5 -8.5q-90 0 -151 17t-91 46q-32 28 -56 93.5t-24 182.5q0 115 29 187.5
t71 106.5q15 12 36 23t50 19.5t67.5 13t90.5 4.5q72 0 119.5 -6t67.5 -19q26 -17 42.5 -52.5t18.5 -67.5q0 -6 -4.5 -12t-12.5 -5q-33 5 -76 9t-100 4q-38 0 -64 -2.5t-45 -7t-31.5 -10t-21.5 -12.5q-23 -17 -37 -57t-14 -106z" />
    <glyph glyph-name="D" unicode="D" horiz-adv-x="760" 
d="M718 349q0 -114 -29 -190t-71 -108q-37 -29 -102 -43t-174 -14q-69 0 -134.5 2t-116.5 5q-5 0 -13 5.5t-8 22.5v620q0 14 8 18t12 4q28 1 61 2.5t67 2.5t67.5 2t62.5 1q63 0 110 -3.5t81 -11t57.5 -18t41.5 -25.5q33 -28 56.5 -93.5t23.5 -178.5zM535 341q0 73 -12.5 109
t-29.5 52q-17 15 -52.5 20.5t-80.5 5.5h-51t-41 -2q-13 -1 -16 -6.5t-3 -18.5v-331q0 -13 4.5 -17.5t18.5 -5.5q16 -1 40.5 -1h53.5q51 0 79.5 6.5t42.5 17.5q18 14 32.5 58t14.5 113z" />
    <glyph glyph-name="E" unicode="E" horiz-adv-x="643" 
d="M380 538h-62t-46 -1q-14 -1 -18.5 -7t-4.5 -20v-81q0 -11 5.5 -15.5t19.5 -4.5h288q9 0 15 -3.5t6 -14.5q0 -10 -3.5 -24.5t-9.5 -29.5t-13.5 -28.5t-15.5 -20.5q-11 -8 -26 -10t-39 -2h-202q-16 0 -20.5 -6t-4.5 -18v-84q0 -17 5.5 -22.5t21.5 -6.5q8 0 16 -0.5
t18.5 -0.5t25 -0.5t34.5 -0.5q77 0 130.5 2.5t95.5 4.5q8 1 14.5 -4t5.5 -17q-2 -16 -8 -33.5t-15 -33.5t-19.5 -28.5t-19.5 -16.5q-8 -4 -22 -6.5t-38 -4t-61 -2t-92 -0.5q-83 0 -141.5 0.5t-107.5 2.5q-5 0 -13.5 5t-8.5 22v623q0 14 8.5 18t13.5 4q31 1 59 2t56.5 1.5
t59 1t66.5 0.5q94 0 148.5 -1.5t71.5 -9.5q9 -5 18 -17t16.5 -28t12.5 -34t7 -35q1 -9 -5.5 -14.5t-14.5 -5.5q-18 1 -41.5 2t-50.5 1.5t-56.5 1t-58.5 0.5z" />
    <glyph glyph-name="F" unicode="F" horiz-adv-x="608" 
d="M76 653q0 11 7 16t14 5q30 1 56.5 2t55 2t61 1h73.5q89 0 137.5 -2t63.5 -12q9 -5 18.5 -17t16.5 -27.5t12 -34t5 -35.5q1 -10 -6.5 -15.5t-16.5 -4.5q-31 1 -84 3t-116 2q-26 0 -51.5 -0.5t-42.5 -2.5q-14 -1 -18.5 -6t-4.5 -19v-108q0 -12 6 -16t20 -4h270
q9 0 15.5 -4.5t6.5 -15.5q0 -10 -3 -25t-8 -31t-13 -30t-17 -21q-10 -8 -24.5 -10t-37.5 -2h-188q-15 0 -21 -6.5t-6 -17.5v-164q0 -17 -2.5 -27.5t-8 -16t-15 -7.5t-23.5 -2h-116q-8 0 -11.5 5t-3.5 13v635z" />
    <glyph glyph-name="G" unicode="G" horiz-adv-x="719" 
d="M665 92q0 -34 -9.5 -47.5t-34.5 -21.5q-38 -11 -101.5 -21t-144.5 -10q-53 0 -92.5 4.5t-69.5 13t-52 20t-38 25.5t-30.5 36.5t-25.5 55.5t-17.5 77.5t-6.5 102.5q0 61 8 108.5t21.5 82.5t30 59t33.5 39q33 30 99.5 49t172.5 19q73 0 122.5 -6t72.5 -18q10 -6 19.5 -18.5
t18 -28.5t14 -33.5t7.5 -35.5q0 -7 -5.5 -12t-13.5 -4q-31 3 -83 7t-110 4q-78 0 -119.5 -9.5t-59.5 -26.5q-19 -17 -34 -58.5t-15 -107.5q0 -78 12 -117.5t29 -54.5q16 -14 43 -20t65 -6q35 0 59 2t41 5t17 26v82q0 19 -19 19h-95q-12 0 -12 15q0 8 4 22.5t10 29.5
t13.5 28.5t15.5 18.5q8 8 22.5 11.5t40.5 3.5h150q21 0 34 -9t13 -38v-263z" />
    <glyph glyph-name="H" unicode="H" horiz-adv-x="765" 
d="M695 18q0 -8 -5 -13t-12 -5h-112q-29 0 -39 10t-10 44v153q0 36 -9.5 47.5t-38.5 11.5h-170q-31 0 -40.5 -11t-9.5 -46v-156q0 -32 -10 -42.5t-39 -10.5h-114q-16 0 -16 20v639q0 8 5 12.5t12 4.5h107q32 0 43.5 -9.5t11.5 -43.5v-152q0 -19 2.5 -30t8.5 -16t15 -6.5
t23 -1.5h172q28 0 37.5 9.5t9.5 42.5v156q0 32 10 41.5t41 9.5h110q17 0 17 -18v-640z" />
    <glyph glyph-name="I" unicode="I" horiz-adv-x="320" 
d="M250 51q0 -31 -10.5 -41t-37.5 -10h-115q-17 0 -17 20v607q0 28 10 38.5t39 10.5h114q17 0 17 -19v-606z" />
    <glyph glyph-name="J" unicode="J" horiz-adv-x="607" 
d="M240 -8q-40 0 -69.5 2t-50.5 5.5t-35.5 8.5t-23.5 11q-10 6 -19.5 18.5t-17 28t-12.5 32t-5 31.5q0 9 4.5 15t14.5 4q33 -3 70.5 -8t97.5 -5q58 0 87 6.5t47 21.5q16 13 24 45t8 77v339q0 34 12 43t44 9h106q11 0 14 -5t3 -14v-355q0 -100 -16 -156.5t-50 -89.5
q-63 -64 -233 -64z" />
    <glyph glyph-name="K" unicode="K" horiz-adv-x="717" 
d="M249 446q0 -20 4.5 -25.5t22.5 -5.5h58q18 0 30.5 2.5t22.5 8.5t18 16.5t16 27.5l60 123q12 24 23 40t25.5 25.5t33 13.5t45.5 4h72q8 0 14.5 -5.5t-0.5 -20.5l-115 -244q-11 -23 -16 -38.5t-5 -27.5q0 -25 22 -72l114 -244q5 -11 -1.5 -17.5t-16.5 -6.5h-82q-26 0 -44 4
t-31.5 14t-23.5 26t-21 40l-57 124q-17 35 -34.5 46.5t-51.5 11.5h-57q-16 0 -20.5 -6.5t-4.5 -27.5v-182q0 -28 -9.5 -39t-38.5 -11h-115q-16 0 -16 20v639q0 17 18 17h130q17 0 24 -8.5t7 -26.5v-195z" />
    <glyph glyph-name="L" unicode="L" horiz-adv-x="626" 
d="M67 659q0 17 15 17h117q28 0 37.5 -9t9.5 -43v-451q0 -17 6 -23t21 -7q16 0 46 -0.5t62 -0.5q59 0 117.5 2t100.5 4q22 3 21 -19q-1 -15 -7 -33.5t-14.5 -35.5t-18.5 -30t-19 -18q-8 -4 -20.5 -7t-34.5 -4.5t-57.5 -2.5t-90.5 -1q-82 0 -151 0.5t-117 3.5q-6 0 -14.5 5
t-8.5 22v631z" />
    <glyph glyph-name="M" unicode="M" horiz-adv-x="1082" 
d="M966 0q-25 0 -42 3.5t-28.5 13.5t-17 27.5t-8.5 45.5l-37 423q-2 14 -7.5 19t-20.5 5t-21.5 -6t-9.5 -21l-55 -320q-8 -46 -18.5 -74t-24.5 -40q-17 -15 -49.5 -23t-88.5 -8q-48 0 -88 7t-57 23q-15 14 -23.5 41t-14.5 73l-51 320q-4 18 -9.5 23t-19.5 5
q-17 0 -22.5 -6.5t-7.5 -25.5l-40 -430q-5 -43 -25 -59t-61 -16h-69q-8 0 -13.5 4.5t-3.5 17.5l54 515q6 53 15.5 77.5t24.5 37.5q35 32 151 32q51 0 87 -6.5t53 -21.5t25 -42t16 -81l50 -322q3 -17 9 -23t21 -6q16 0 21.5 6t9.5 24l56 323q9 53 18.5 80t26.5 41t57.5 21
t94.5 7q66 0 99.5 -7.5t47.5 -18.5q13 -12 22.5 -34t14.5 -74l46 -528q1 -11 -5 -16.5t-13 -5.5h-69z" />
    <glyph glyph-name="N" unicode="N" horiz-adv-x="840" 
d="M771 136q0 -47 -6.5 -73t-19.5 -41q-7 -8 -18 -13.5t-28.5 -9t-42.5 -5.5t-60 -2q-59 0 -89 6.5t-47 20.5q-16 13 -31 39t-27 65l-116 374q-7 22 -14.5 30t-19.5 8q-14 0 -18 -5.5t-4 -19.5v-435q0 -25 -6 -39.5t-18 -22.5t-30.5 -10.5t-44.5 -2.5h-43q-18 0 -18 20v497
q0 63 8 93t25 46q16 14 48.5 21t89.5 7q52 0 82.5 -6.5t50.5 -20.5q36 -27 67 -125l113 -358q7 -22 14 -29.5t20 -7.5t16.5 9.5t3.5 25.5v431q0 21 3.5 35t13 22.5t27.5 12t48 3.5h52q19 0 19 -19v-521z" />
    <glyph glyph-name="O" unicode="O" horiz-adv-x="756" 
d="M712 343q0 -115 -27 -187.5t-69 -105.5q-41 -32 -107.5 -47t-138.5 -15q-51 0 -90 5.5t-68.5 15t-51 22t-36.5 27.5q-35 32 -57.5 99t-22.5 181q0 109 29 182.5t69 107.5q32 26 93 45t152 19q97 0 155 -17.5t89 -46.5q33 -30 57 -102t24 -183zM530 343q0 69 -11 110
t-28 59q-17 14 -47.5 20.5t-62.5 6.5q-43 0 -70.5 -9t-41.5 -21q-16 -16 -30.5 -58.5t-14.5 -111.5q0 -66 12 -108t29 -59q15 -15 43.5 -23t63.5 -8q44 0 73 8t42 19q16 15 29.5 58t13.5 117z" />
    <glyph glyph-name="P" unicode="P" horiz-adv-x="663" 
d="M641 469q0 -72 -20.5 -123.5t-49.5 -74.5q-13 -11 -29 -18.5t-38.5 -13t-52 -8t-69.5 -2.5h-109q-16 0 -21.5 -5.5t-5.5 -25.5v-168q0 -17 -5.5 -23.5t-20.5 -6.5h-134q-17 0 -17 20v633q0 11 5.5 15t12.5 4q52 3 115 5t138 2q57 0 96 -2t66 -6.5t44 -11t30 -16.5
q28 -19 46.5 -58.5t18.5 -115.5zM461 454q0 31 -6.5 48t-17.5 25q-8 8 -28 11t-65 3q-25 0 -47.5 -0.5t-35.5 -1.5q-16 -1 -16 -21v-127q0 -16 4.5 -22t21.5 -6h79q32 0 49.5 2t28.5 8q11 7 22 27t11 54z" />
    <glyph glyph-name="Q" unicode="Q" horiz-adv-x="756" 
d="M712 343q0 -110 -23.5 -179.5t-62.5 -106.5q-18 -16 -44 -26q-8 -6 -12.5 -9.5t-4.5 -11.5t5 -20t17 -35l64 -117q7 -12 1.5 -20.5t-18.5 -8.5h-58q-31 0 -52 5.5t-36 16t-26 26.5t-22 38l-26 52q-13 25 -25 33t-37 8q-92 1 -145.5 21t-83.5 48q-33 31 -56 99t-23 182
q0 110 28.5 183.5t69.5 107.5q32 26 93.5 44.5t152.5 18.5q98 0 156.5 -17t90.5 -46q31 -29 54 -102t23 -184zM530 343q0 69 -10 110t-27 59q-16 15 -47 21t-63 6q-43 0 -71.5 -9t-42.5 -21q-18 -16 -31.5 -57.5t-13.5 -112.5t11 -110t28 -56q15 -15 45.5 -23t71.5 -8
q38 0 66.5 8t41.5 19q16 15 29 57t13 117z" />
    <glyph glyph-name="R" unicode="R" horiz-adv-x="683" 
d="M69 656q0 10 5.5 13.5t12.5 3.5q52 2 116.5 4.5t130.5 2.5q60 0 102 -2t70.5 -6t47 -10.5t31.5 -15.5q29 -19 44.5 -54t15.5 -96q0 -60 -14 -100t-34 -66q-10 -14 -14 -23t-4 -19q0 -13 5 -32t15 -47l69 -181q4 -11 -0.5 -19.5t-16.5 -8.5h-68q-29 0 -48.5 3.5
t-33.5 13.5t-24 27.5t-20 45.5l-30 84q-7 18 -13 29t-14.5 17.5t-20 8.5t-28.5 2h-78q-16 0 -21.5 -5t-5.5 -25v-171q0 -17 -5.5 -23.5t-20.5 -6.5h-134q-17 0 -17 20v636zM465 462q0 26 -5.5 42t-16.5 25q-8 8 -29 11t-66 3q-23 0 -48 -0.5t-39 -1.5q-8 -1 -12 -5.5
t-4 -16.5v-125q0 -17 5 -23t22 -6h97q26 0 38.5 1t21.5 6q10 4 23 28.5t13 61.5z" />
    <glyph glyph-name="S" unicode="S" horiz-adv-x="647" 
d="M615 239q0 -75 -18 -123.5t-47 -73.5q-24 -23 -84.5 -37.5t-158.5 -14.5q-79 0 -131 7t-73 21q-12 7 -21.5 20t-16.5 28.5t-10.5 33t-4.5 33.5q-2 11 4.5 16.5t16.5 4.5q15 -2 38.5 -4.5t50.5 -4.5t56.5 -3.5t56.5 -1.5q103 0 121 15q10 8 15.5 17t5.5 29q0 16 -3 24
t-8 13q-6 4 -28.5 10t-53.5 12.5t-67 13.5t-69 13.5t-59.5 13t-38.5 12.5q-24 13 -34 46.5t-10 81.5q0 69 18.5 115t47.5 72q28 26 87.5 42t152.5 16q87 0 132 -7.5t65 -18.5q9 -6 18 -17.5t16.5 -26.5t12 -32.5t5.5 -34.5q2 -9 -4 -16t-16 -5q-35 2 -83 6t-102 4
q-56 0 -91 -5.5t-46 -13.5t-16.5 -19.5t-5.5 -23.5q0 -24 11 -35q5 -5 28 -11.5t55 -13t69 -13t70.5 -13t60.5 -12.5t39 -11q47 -20 47 -128z" />
    <glyph glyph-name="T" unicode="T" 
d="M409 28q0 -14 -5.5 -21t-20.5 -7h-137q-10 0 -13 5.5t-3 13.5v445q0 23 -2 37t-10 21.5t-23 10t-40 2.5h-137q-17 0 -17 14q0 17 2 35t6 34t9 28t11 17q11 9 30.5 11t59.5 2h505q11 0 15 -4.5t4 -13.5q0 -18 -2 -36t-5.5 -34t-8 -27.5t-10.5 -16.5q-8 -6 -21 -7.5
t-37 -1.5h-83q-22 0 -35 -2t-20 -9.5t-9.5 -22t-2.5 -39.5v-434z" />
    <glyph glyph-name="U" unicode="U" horiz-adv-x="755" 
d="M685 277q0 -47 -3 -81.5t-10 -60t-18 -44.5t-27 -34q-26 -26 -88 -46.5t-166 -20.5q-103 0 -165.5 20.5t-91.5 53.5q-13 14 -22 31t-14.5 41t-8 55.5t-2.5 73.5v392q0 11 5.5 15t13.5 4h78q29 0 46.5 -2.5t26.5 -12t11.5 -30t2.5 -56.5v-300q0 -45 4.5 -68t17.5 -37
q11 -11 37 -18.5t63 -7.5q39 0 65 6.5t40 18.5q12 12 18 35t6 71v301q0 35 3 55t12 30t26 12.5t46 2.5h73q21 0 21 -19v-380z" />
    <glyph glyph-name="V" unicode="V" horiz-adv-x="748" 
d="M729 659q0 -6 -1 -11.5t-3 -17.5l-110 -426q-9 -38 -18.5 -66t-19 -48t-19 -33.5t-18.5 -22.5q-23 -22 -64 -32t-109 -10q-69 0 -108.5 10t-62.5 32q-10 9 -19 22t-18 34t-18 51.5t-19 74.5l-99 414q-2 11 -3.5 17t-1.5 12q0 17 22 17h87q23 0 40.5 -3.5t29.5 -14.5
t20.5 -30.5t13.5 -51.5l68 -322q11 -45 18 -65.5t13 -25.5q17 -15 43 -15q17 0 26.5 3.5t15.5 9.5q8 6 16 27t18 62l75 330q5 25 12 43.5t18.5 30t29.5 17t44 5.5h82q11 0 15 -5t4 -12z" />
    <glyph glyph-name="W" unicode="W" horiz-adv-x="1104" 
d="M114 676q25 0 43.5 -3.5t30.5 -13.5t18.5 -28.5t9.5 -47.5l51 -411q4 -20 10.5 -25.5t20.5 -5.5t21.5 6t10.5 26l46 318q11 91 44 118q17 14 50 23t88 9q57 0 91.5 -7.5t51.5 -21.5q15 -14 25 -42.5t14 -76.5l41 -321q3 -21 9 -26t20 -5t21 5.5t9 25.5l61 424
q5 47 27 63.5t64 16.5h66q13 0 19 -7.5t4 -19.5l-88 -514q-4 -25 -9 -42.5t-11 -30.5t-13 -22t-15 -16q-17 -14 -50.5 -23t-91.5 -9q-50 0 -87.5 7t-54.5 22q-16 15 -25.5 41t-14.5 83l-37 321q-2 20 -7 26.5t-20 6.5q-16 0 -21 -7t-8 -27l-46 -321q-7 -55 -18 -81.5
t-28 -40.5q-17 -15 -57 -22.5t-91 -7.5q-63 0 -95.5 7t-47.5 21q-7 6 -13 14t-11.5 22t-10.5 34.5t-9 52.5l-78 508q-2 12 4.5 18.5t14.5 6.5h72z" />
    <glyph glyph-name="X" unicode="X" horiz-adv-x="743" 
d="M352 263q-23 0 -34.5 -11.5t-26.5 -44.5l-57 -130q-10 -23 -21 -38t-25 -23.5t-32.5 -12t-42.5 -3.5h-77q-8 0 -13.5 6.5t-0.5 17.5l109 244q20 46 20 71t-20 74l-97 240q-4 11 1.5 17t16.5 6h83q27 0 45 -4t30.5 -13t21.5 -24.5t18 -38.5l46 -123q7 -20 13 -32t12.5 -19
t15 -9t21.5 -2h23q13 0 21.5 2.5t15.5 8.5t12.5 16.5t12.5 27.5l55 133q10 23 20.5 38t24 23.5t32 12t43.5 3.5h77q8 0 13.5 -6t1.5 -18l-108 -248q-9 -23 -14.5 -39.5t-5.5 -30.5q0 -11 6 -31t17 -43l100 -235q5 -12 -1 -18.5t-17 -6.5h-84q-27 0 -44.5 4t-30 13.5t-22 25
t-18.5 38.5l-48 124q-7 18 -12.5 29t-12.5 17.5t-16 9t-22 2.5h-25z" />
    <glyph glyph-name="Y" unicode="Y" horiz-adv-x="673" 
d="M451 267q-8 -15 -13.5 -27t-8.5 -24.5t-4 -26.5t-1 -33v-124q0 -16 -6 -24t-25 -8h-135q-16 0 -16 19v131q0 19 -0.5 33.5t-3 28t-7.5 26.5t-14 30l-221 380q-6 11 -0.5 19.5t17.5 8.5h64q56 0 90 -18.5t57 -62.5l83 -152q8 -14 15.5 -26t15.5 -12t14.5 9.5t16.5 25.5
l83 148q13 23 27 40t31 27.5t38.5 15.5t49.5 5h65q11 0 16 -7t0 -18z" />
    <glyph glyph-name="Z" unicode="Z" horiz-adv-x="682" 
d="M609 447q-10 -15 -37.5 -38t-64.5 -49.5t-78 -54.5t-77.5 -53.5t-64 -45.5t-36.5 -30q-5 -7 -5 -15q0 -10 6 -13q2 -1 14.5 -1.5t32.5 -1t46 -0.5h55q73 0 134.5 4t94.5 6q8 0 13.5 -4t5.5 -15q0 -8 -5 -25.5t-13.5 -36.5t-20 -36t-23.5 -24q-21 -12 -89.5 -16t-170.5 -4
q-135 0 -203 5t-73 13q-5 6 -8.5 25.5t-3.5 46.5q0 43 6.5 79t20.5 59q12 18 40.5 42.5t65 52t77 56t76 54t62 45.5t35.5 31q5 3 5 14q0 10 -6 11q-5 2 -39.5 3.5t-91.5 1.5q-35 0 -69 -1t-62.5 -2.5t-51 -2.5t-35.5 -2q-18 -2 -18 18q0 11 5.5 28t15.5 34t23 32.5t27 23.5
q23 11 84 15.5t146 4.5q131 0 196.5 -5.5t72.5 -11.5q5 -5 9.5 -28t4.5 -48q0 -42 -7 -79t-21 -62z" />
    <glyph glyph-name="bracketleft" unicode="[" horiz-adv-x="327" 
d="M173 287q0 -131 8 -200.5t24 -84.5q10 -9 24.5 -11.5t31.5 -2.5q18 0 26.5 0.5t18.5 0.5q12 0 9 -14q-3 -21 -14.5 -42.5t-26.5 -30.5q-13 -8 -33 -10.5t-47 -2.5q-31 0 -58.5 7t-44.5 24q-23 25 -36.5 112.5t-13.5 242.5v76q0 96 4 164t10.5 115t16.5 75.5t22 43.5
q15 18 43 25.5t64 7.5q24 0 42.5 -2.5t32.5 -9.5q7 -4 13.5 -12.5t11.5 -19t8 -22.5t3 -22q0 -12 -8 -12q-11 0 -18 0.5t-26 0.5q-17 0 -31.5 -2.5t-22.5 -12.5q-9 -10 -15 -31t-10 -57t-6 -89.5t-2 -127.5v-76z" />
    <glyph glyph-name="backslash" unicode="\" horiz-adv-x="393" 
d="M15 656q-3 10 3.5 15t14.5 5h59q39 0 58.5 -15.5t35.5 -59.5l202 -579q4 -11 -0.5 -16.5t-13.5 -5.5h-59q-35 0 -58 15t-38 59z" />
    <glyph glyph-name="bracketright" unicode="]" horiz-adv-x="344" 
d="M286 323q0 -94 -4 -162.5t-11 -116t-17 -77t-22 -45.5q-13 -17 -39 -25t-59 -8q-27 0 -48 2.5t-32 9.5q-16 8 -27.5 30t-13.5 45q-2 13 10 13q11 -1 17.5 -1h26.5q16 0 29.5 2t22.5 10q9 10 15.5 33t11 60.5t6.5 91t2 126.5v76q0 132 -8 198.5t-22 81.5q-9 10 -24.5 13
t-32.5 3t-27 -0.5t-19 -1.5q-10 0 -9 13q0 10 3 21.5t9 22t13 19t15 12.5q13 8 32 10.5t44 2.5q36 0 63 -6.5t43 -27.5q23 -23 37.5 -107t14.5 -242v-76z" />
    <glyph glyph-name="asciicircum" unicode="^" horiz-adv-x="568" 
d="M206 626q8 13 17 17.5t26 4.5h59q17 0 26 -3.5t20 -20.5l193 -268q5 -5 1.5 -10.5t-9.5 -5.5h-78q-31 0 -48 8.5t-30 28.5l-83 107q-5 9 -9.5 15t-10.5 6t-10.5 -6.5t-9.5 -14.5l-76 -103q-14 -23 -30.5 -31.5t-43.5 -8.5h-84q-6 0 -8.5 5t1.5 10z" />
    <glyph glyph-name="underscore" unicode="_" horiz-adv-x="505" 
d="M516 -113q11 0 11 -12v-76q0 -11 -4.5 -19t-16.5 -8h-517q-12 0 -12 11v77q0 14 5.5 20.5t24.5 6.5h509z" />
    <glyph glyph-name="grave" unicode="`" horiz-adv-x="505" 
d="M184 634q-34 12 -47.5 29.5t-13.5 48.5v57q0 8 5 10.5t13 0.5l147 -51q34 -11 47 -28t13 -47v-60q0 -8 -4.5 -12t-13.5 0z" />
    <glyph glyph-name="a" unicode="a" horiz-adv-x="615" 
d="M554 25q0 -16 -16 -18q-42 -6 -102 -10t-126 -4q-52 0 -90 3t-65 8.5t-45 13.5t-28 17q-14 15 -25 45t-11 77q0 45 11 78.5t28 47.5q10 7 36.5 12t64.5 9.5t84.5 8.5t96.5 7q15 1 15 17q0 34 -16 47q-8 8 -29.5 10.5t-63.5 2.5q-57 0 -107.5 -3t-77.5 -8q-7 0 -12.5 4.5
t-4.5 12.5q1 13 5.5 27.5t11.5 27.5t15 24t16 17q20 15 70.5 23t126.5 8q79 0 125.5 -9t67.5 -29q11 -10 19.5 -24t14 -35.5t8.5 -53.5t3 -78v-276zM380 202q0 11 -4.5 13.5t-12.5 2.5q-18 0 -39.5 -1t-41 -3t-34.5 -4t-19 -5q-11 -10 -11 -39t13 -39q8 -6 25.5 -10t47.5 -4
q23 0 42.5 2.5t23.5 5.5q5 5 7.5 10t2.5 22v49z" />
    <glyph glyph-name="b" unicode="b" 
d="M64 723q0 18 17 18h142q11 0 13.5 -5t2.5 -15v-179q0 -17 5 -21t16 -2q25 4 57 7t76 3q105 0 149 -35q25 -21 43.5 -68.5t18.5 -132.5q0 -94 -21.5 -155t-55.5 -90q-13 -11 -31.5 -20.5t-46 -16.5t-66.5 -11t-93 -4q-55 0 -108 3t-96 12q-13 2 -17.5 7t-4.5 19v686z
M428 271q0 44 -8 67.5t-17 33.5q-11 11 -30.5 15t-45.5 4q-24 0 -41.5 -2.5l-31.5 -4.5q-9 -2 -12 -10t-3 -28v-172q0 -23 3.5 -29.5t13.5 -9.5q10 -2 26.5 -3.5t30.5 -1.5q62 0 83 21q14 13 23 44t9 76z" />
    <glyph glyph-name="c" unicode="c" horiz-adv-x="530" 
d="M472 509q17 -12 28.5 -40t12.5 -56q1 -12 -6 -18t-15 -4q-24 3 -57 5.5t-68 2.5q-92 0 -118 -26q-14 -13 -23 -40.5t-9 -68.5q0 -48 8 -71.5t23 -37.5t42.5 -19t65.5 -5q51 0 82 3t56 5q8 1 14 -3.5t6 -14.5q0 -13 -4.5 -28t-11.5 -29.5t-16 -26.5t-18 -19
q-17 -12 -56.5 -19t-99.5 -7q-41 0 -71.5 3t-54 9.5t-41 15.5t-31.5 21q-31 26 -49.5 77.5t-18.5 137.5q0 89 22 144t57 83q30 25 81 37.5t118 12.5q57 0 96.5 -5.5t55.5 -18.5z" />
    <glyph glyph-name="d" unicode="d" horiz-adv-x="647" 
d="M218 260q0 -51 9 -76.5t21 -36.5q11 -9 30.5 -12.5t52.5 -3.5q22 0 35.5 1t25.5 4q8 2 12 8t4 25v189q0 28 -17 29q-15 3 -28.5 4t-30.5 1q-29 0 -51 -5.5t-33 -16.5q-14 -12 -22 -42t-8 -68zM557 10q-41 -6 -98.5 -11.5t-128.5 -5.5q-45 0 -79.5 2.5t-60.5 8t-45 14
t-34 19.5q-31 24 -50.5 74.5t-19.5 137.5q0 49 6.5 86.5t17 64.5t23.5 45.5t26 30.5q28 25 73 39t114 14h42.5t42.5 -2q10 -1 16 1.5t6 19.5v157q0 21 6 28.5t24 7.5h126q18 0 18 -19v-679q0 -18 -5.5 -24.5t-19.5 -8.5z" />
    <glyph glyph-name="e" unicode="e" horiz-adv-x="606" 
d="M41 254q0 92 22.5 146.5t57.5 81.5q29 23 80 36t121 13q75 0 120 -12t70 -35q12 -11 23 -28.5t19.5 -45.5t13.5 -68t5 -97q0 -14 -3.5 -20.5t-17.5 -6.5h-301q-18 0 -23.5 -4t-5.5 -13q0 -32 21 -53q13 -11 43 -16t84 -5t98 3.5t72 6.5q8 0 13 -4.5t5 -12.5
q-2 -14 -7 -28.5t-12.5 -28t-16.5 -24.5t-19 -17q-16 -11 -61.5 -20.5t-119.5 -9.5q-79 0 -131.5 13.5t-80.5 37.5q-32 26 -50.5 76t-18.5 135zM313 410q-48 0 -67 -19q-13 -11 -18 -29t-5 -29q0 -8 4 -10.5t19 -2.5h106h26.5t12.5 3q5 5 5 12q0 18 -5 35t-15 25
q-9 7 -23.5 11t-39.5 4z" />
    <glyph glyph-name="f" unicode="f" horiz-adv-x="493" 
d="M107 346q0 30 -7 38t-32 8h-37q-18 0 -18 21q0 14 3.5 30.5t8 31t11 25.5t12.5 16q5 5 11 5.5t14 0.5h14q11 0 16 5.5t5 22.5q0 52 10.5 87t33.5 59q23 23 64.5 37.5t116.5 14.5q57 0 89.5 -7t46.5 -17q17 -13 28 -39t11 -55q0 -9 -5.5 -13t-10.5 -3l-40 2.5t-55 1.5
q-50 0 -71.5 -4.5t-29.5 -14.5q-13 -12 -13 -53v-5q0 -11 4.5 -15t18.5 -4h174q19 0 19 -19q0 -14 -4 -29.5t-10 -30t-13 -25.5t-13 -15q-8 -7 -19.5 -9t-37.5 -2h-82q-24 0 -30.5 -7.5t-6.5 -30.5v-335q0 -19 -20 -19h-140q-16 0 -16 20v326z" />
    <glyph glyph-name="g" unicode="g" horiz-adv-x="617" 
d="M350 527q69 0 124 -4t87 -7q18 -2 18 -18q0 -105 -16.5 -183t-52.5 -110q-11 -10 -26.5 -18t-39.5 -13.5t-57.5 -9.5t-81.5 -5q-42 -1 -58.5 -2.5t-22.5 -4.5q-5 -3 -6.5 -14.5t-1.5 -24.5q0 -15 14 -14q15 0 52 0.5t82 0.5q89 0 133 -6t60 -16q14 -11 24 -37.5t10 -75.5
q0 -63 -16 -105.5t-38 -60.5q-29 -23 -86.5 -36.5t-152.5 -13.5q-83 0 -135.5 7.5t-72.5 23.5q-20 14 -30 43t-12 57q0 8 5 11.5t13 3.5q35 -4 85.5 -8t110.5 -4q67 0 101.5 4.5t41.5 11.5q15 10 15 39q0 25 -13 29q-2 1 -8.5 2t-21 1.5t-38 1t-59.5 0.5q-53 0 -109 -1
t-98 -1q-17 0 -17 16q0 23 2 49t4.5 50t4.5 43.5t2 30.5q0 32 -7 73t-7 100q0 107 46 149q13 10 32 18.5t48 14.5t70.5 9.5t98.5 3.5zM219 338q0 -20 3 -36t8 -18q3 -4 18 -4.5t32 -0.5q48 0 69.5 6t28.5 12q13 8 20.5 29.5t7.5 51.5q0 8 -2.5 13t-12.5 7q-14 2 -28.5 3
t-40.5 1q-73 0 -88 -15q-15 -14 -15 -49z" />
    <glyph glyph-name="h" unicode="h" horiz-adv-x="653" 
d="M592 19q0 -19 -19 -19h-136q-14 0 -17 6.5t-3 18.5v262q0 34 -3 53t-12 30q-8 10 -23 14t-46 4q-20 0 -40.5 -2t-32.5 -4q-12 -3 -16.5 -10t-4.5 -30v-323q0 -19 -18 -19h-143q-9 0 -11.5 5t-2.5 15v703q0 18 17 18h143q10 0 12.5 -5t2.5 -15v-190q0 -8 4.5 -13.5
t13.5 -3.5q30 5 69 9.5t87 4.5q54 0 87.5 -8.5t56.5 -31.5q20 -21 27.5 -59t7.5 -108v-302z" />
    <glyph glyph-name="i" unicode="i" horiz-adv-x="304" 
d="M240 19q0 -19 -20 -19h-141q-10 0 -12.5 5t-2.5 15v484q0 18 20 18h140q11 0 13.5 -4.5t2.5 -14.5v-484zM252 669q0 -24 -6 -43t-16 -27q-7 -5 -17.5 -7.5t-22 -3.5t-21.5 -1.5t-17 -0.5q-59 0 -77 15q-19 14 -19 62q0 25 6 43.5t17 26.5q8 5 30.5 9.5t48.5 4.5
q28 0 48 -3t28 -10q18 -15 18 -65z" />
    <glyph glyph-name="j" unicode="j" horiz-adv-x="301" 
d="M238 -46q0 -50 -3.5 -80t-17.5 -51q-10 -15 -25.5 -27t-33.5 -20.5t-37.5 -13.5t-35.5 -5q-13 0 -17.5 6.5t-4.5 18.5v722q0 18 18 18h141q10 0 13 -4.5t3 -14.5v-549zM252 669q0 -24 -6 -43t-17 -27q-7 -5 -17.5 -7.5t-21.5 -3.5t-21.5 -1.5t-16.5 -0.5q-60 0 -78 15
q-18 13 -18 62q0 25 5.5 43.5t16.5 26.5q9 5 31 9.5t48 4.5q29 0 48.5 -3t27.5 -10q19 -16 19 -65z" />
    <glyph glyph-name="k" unicode="k" horiz-adv-x="616" 
d="M239 354q0 -18 4 -23t22 -5h39q23 0 34 7t22 30l35 79q9 24 19 39.5t23.5 24.5t32 12.5t44.5 3.5h67q11 0 15.5 -6t-0.5 -19l-80 -173q-9 -20 -14.5 -35t-5.5 -26t6 -27.5t16 -37.5l78 -175q5 -12 -1.5 -17.5t-14.5 -5.5h-75q-27 0 -45 4t-30.5 14t-21 25t-16.5 38
l-31 71q-6 15 -12 25t-12.5 15t-15.5 7t-22 2h-34q-17 0 -21.5 -5t-4.5 -24v-153q0 -19 -19 -19h-142q-10 0 -12 5t-2 15v703q0 18 16 18h143q11 0 13.5 -5t2.5 -15v-367z" />
    <glyph glyph-name="l" unicode="l" horiz-adv-x="302" 
d="M239 19q0 -19 -19 -19h-85q-22 0 -36 3.5t-21.5 12t-10.5 23t-3 37.5v646q0 17 17 17h145q8 0 10.5 -5t2.5 -15v-700z" />
    <glyph glyph-name="m" unicode="m" horiz-adv-x="965" 
d="M510 529q84 0 144 -3t102 -9.5t67 -15.5t39 -21q12 -11 20.5 -24.5t13 -32.5t6.5 -46t2 -64v-294q0 -19 -16 -19h-132q-15 0 -20.5 7t-5.5 26v252q0 36 -2.5 56.5t-11.5 29.5q-17 17 -131 17q-13 0 -13 -17v-352q0 -19 -19 -19h-142q-9 0 -11.5 5t-2.5 15v350
q0 11 -3.5 14.5t-13.5 3.5q-39 0 -73.5 -1.5t-51.5 -3.5q-11 -2 -13.5 -8t-2.5 -21v-335q0 -19 -19 -19h-142q-9 0 -11.5 5t-2.5 15v467q0 11 3.5 14.5t13.5 4.5q69 8 181 15.5t248 7.5z" />
    <glyph glyph-name="n" unicode="n" horiz-adv-x="652" 
d="M592 18q0 -11 -4.5 -14.5t-13.5 -3.5h-138q-13 0 -16 6t-3 18v264q0 35 -2.5 54t-10.5 29q-9 11 -25 15.5t-45 4.5q-25 0 -43.5 -2t-33.5 -4q-11 -2 -14.5 -8t-3.5 -26v-332q0 -19 -18 -19h-143q-9 0 -11.5 5t-2.5 15v472q0 9 4 12.5t14 5.5q51 7 120.5 13t143.5 6
q47 0 81.5 -3.5t59 -9.5t40.5 -15t26 -19q11 -11 18.5 -24t12 -31.5t6.5 -44.5t2 -62v-302z" />
    <glyph glyph-name="o" unicode="o" 
d="M604 268q0 -92 -25 -148.5t-55 -81.5t-83 -38.5t-129 -13.5t-129 16.5t-81 43.5q-25 26 -42.5 74t-17.5 133q0 86 22.5 143t56.5 84q32 25 81.5 38.5t130.5 13.5t131.5 -14.5t76.5 -41.5q27 -26 45 -75.5t18 -132.5zM432 262q0 43 -6 69.5t-18 40.5q-9 11 -30 17t-50 6
q-65 0 -86 -23q-10 -12 -19.5 -40t-9.5 -74q0 -41 6.5 -69.5t18.5 -42.5q12 -12 33.5 -17t47.5 -5q58 0 80 19q14 11 23.5 41.5t9.5 77.5z" />
    <glyph glyph-name="p" unicode="p" 
d="M426 266q0 50 -8 76.5t-19 35.5q-11 10 -29.5 13.5t-47.5 3.5q-24 0 -41 -1t-28 -3q-8 -3 -11.5 -8.5t-3.5 -22.5v-194q0 -16 3.5 -22t12.5 -8q14 -2 28.5 -3t34.5 -1q59 0 81 22q13 11 20.5 40.5t7.5 71.5zM89 516q19 3 45.5 5.5t56 5t61.5 3.5t64 1q48 0 83.5 -2.5
t61.5 -7.5t44.5 -13t32.5 -20q29 -25 47 -76t18 -136q0 -96 -22 -151t-51 -80q-27 -24 -71.5 -37.5t-113.5 -13.5q-26 0 -46 1t-41 3q-11 1 -15.5 -2.5t-4.5 -20.5v-163q0 -24 -10 -33.5t-29 -9.5h-118q-9 0 -13 4t-4 15v696q0 17 5.5 23.5t19.5 8.5z" />
    <glyph glyph-name="q" unicode="q" horiz-adv-x="647" 
d="M583 -212q0 -19 -19 -19h-143q-9 0 -11 5t-2 16v193q0 17 -6 20.5t-17 1.5q-27 -3 -57 -6t-68 -3q-109 0 -152 37q-28 23 -47 73t-19 135q0 93 19 149.5t53 85.5q13 12 31.5 21.5t47 16.5t67.5 11t92 4q56 0 110.5 -2.5t97.5 -10.5q11 -2 17 -7t6 -21v-700zM217 254
q0 -44 8 -68t17 -34q10 -11 30 -14.5t46 -3.5q23 0 41.5 1t32.5 6q9 2 12.5 9.5t3.5 27.5v173q0 23 -4.5 30t-15.5 10q-8 2 -25.5 3.5t-32.5 1.5q-34 0 -53 -5.5t-31 -16.5q-14 -12 -21.5 -43t-7.5 -77z" />
    <glyph glyph-name="r" unicode="r" horiz-adv-x="465" 
d="M64 495q0 17 18 20q45 5 95 9.5t97 4.5q54 0 90.5 -3t53.5 -13q19 -12 31 -42t12 -73q0 -8 -5 -13t-13 -5q-17 2 -41.5 3.5t-47.5 1.5q-20 0 -43.5 -1t-42.5 -3q-17 -3 -23.5 -9t-6.5 -30v-323q0 -19 -20 -19h-139q-10 0 -12.5 5t-2.5 15v475z" />
    <glyph glyph-name="s" unicode="s" horiz-adv-x="546" 
d="M300 530q62 0 100 -5t55 -17q20 -12 30.5 -38.5t12.5 -54.5q1 -8 -4.5 -13.5t-13.5 -5.5q-29 2 -69 5.5t-78 3.5t-64.5 -2.5t-34.5 -8.5q-6 -5 -10 -13.5t-4 -19.5q0 -14 9 -20q10 -5 45 -11.5t76.5 -13.5t78.5 -15t51 -16q13 -8 22.5 -31t9.5 -61q0 -63 -14.5 -100.5
t-37.5 -57.5q-23 -19 -70.5 -31t-133.5 -12q-76 0 -113.5 7t-54.5 20q-8 6 -15.5 16.5t-13.5 23.5t-9.5 26t-4.5 25q0 11 6 16.5t14 4.5q33 -5 75.5 -8.5t85.5 -3.5q34 0 58 2.5t32 8.5q13 8 13 28q0 15 -9 20q-8 5 -28 10t-45 10t-53.5 10.5t-53.5 11t-44.5 10.5t-27.5 11
q-13 9 -19 34t-6 48q0 66 16 104.5t39 58.5q24 21 73 32.5t129 11.5z" />
    <glyph glyph-name="t" unicode="t" horiz-adv-x="493" 
d="M102 564q0 48 17 63q10 11 44.5 21t94.5 15q8 1 14 -3t6 -14v-61q0 -21 1.5 -33.5t7 -19t16.5 -8.5t30 -2h138q20 0 20 -18q0 -16 -5 -32.5t-11.5 -31t-14 -26t-13.5 -15.5q-15 -7 -48 -7h-77q-30 0 -37 -10t-7 -38v-126q0 -34 3 -49t10 -23q8 -8 24.5 -11.5t57.5 -3.5
q28 0 48.5 1.5t38.5 2.5q8 1 12.5 -3.5t3.5 -13.5q-2 -32 -16.5 -60.5t-31.5 -39.5q-11 -8 -42.5 -15t-95.5 -7q-63 0 -100.5 10t-54.5 28q-9 9 -15.5 21t-10.5 29.5t-5.5 42.5t-1.5 60v158q0 31 -7 39t-33 8h-37q-9 0 -13 5t-4 13q0 13 3 29t8 31.5t11 28t13 17.5q5 4 11 5
t13 1h14q21 0 21 18v24z" />
    <glyph glyph-name="u" unicode="u" horiz-adv-x="652" 
d="M587 34q0 -9 -4 -13t-14 -6q-42 -9 -108 -15.5t-139 -6.5q-96 0 -148.5 13t-77.5 39q-11 12 -18 26t-11.5 33t-6 45t-1.5 61v294q0 18 18 18h136q14 0 18 -6t4 -19v-267q0 -32 3 -49.5t11 -27.5q18 -21 78 -21q38 0 61 3q14 4 19.5 11t5.5 24v334q0 18 18 18h141
q9 0 12 -4.5t3 -15.5v-468z" />
    <glyph glyph-name="v" unicode="v" horiz-adv-x="639" 
d="M121 522q23 0 38.5 -3.5t25.5 -12.5t16 -24.5t11 -39.5l50 -229q8 -29 12 -45t11 -24q9 -11 38 -11q28 0 37 10q5 6 10.5 21t13.5 47l55 235q8 43 26.5 59.5t66.5 16.5h69q26 0 19 -25l-77 -309q-17 -68 -31.5 -105t-30.5 -52q-9 -9 -21.5 -16.5t-31.5 -12.5t-45 -8
t-63 -3q-39 0 -66.5 3t-47 9t-32.5 14t-22 17q-15 16 -29 51.5t-31 103.5l-76 309q-5 24 18 24h87z" />
    <glyph glyph-name="w" unicode="w" horiz-adv-x="965" 
d="M244 148q1 -21 24 -21q14 0 18.5 4t6.5 15l37 242q5 38 13 59.5t23 34.5q15 12 45 20t76 8q48 0 78 -6t44 -20q15 -12 23.5 -33t13.5 -60l33 -241q2 -14 7 -18.5t16 -4.5q15 0 20 5.5t7 21.5l43 290q5 46 23.5 62t58.5 16h68q22 0 19 -20l-71 -388q-7 -40 -17 -60.5
t-26 -32.5q-14 -11 -43.5 -19t-87.5 -8q-89 0 -120 25q-14 13 -23 34t-14 65l-33 237q-2 15 -5.5 20.5t-15.5 5.5t-16.5 -6t-6.5 -22l-36 -234q-6 -47 -17 -68t-26 -32q-14 -11 -45 -18t-80 -7q-56 0 -85 7t-43 18q-14 10 -22.5 30.5t-15.5 68.5l-68 384q-3 20 19 20h71
q22 0 37.5 -3.5t26 -12.5t16 -25t7.5 -42z" />
    <glyph glyph-name="x" unicode="x" horiz-adv-x="637" 
d="M331 333q19 0 27.5 6.5t16.5 24.5l40 93q6 19 13.5 31.5t19 20t28 10.5t39.5 3h80q8 0 15 -5t3 -16l-80 -175q-9 -23 -13 -36.5t-4 -26.5q0 -24 22 -70l74 -169q5 -12 -1.5 -18t-14.5 -6h-81q-28 0 -45 3t-28 11t-17 21t-12 33l-41 96q-9 22 -16 28.5t-26 6.5h-23
q-17 0 -25 -6t-16 -23l-44 -103q-6 -20 -14 -33t-19.5 -20.5t-28.5 -10.5t-41 -3h-82q-8 0 -13 6.5t0 17.5l81 181q17 40 17 63q0 27 -19 65l-73 166q-4 11 1 17t16 6h84q27 0 44 -3t28 -10.5t17.5 -19.5t11.5 -31l34 -88q4 -12 8 -19.5t8.5 -11t10.5 -5t16 -1.5h22z" />
    <glyph glyph-name="y" unicode="y" horiz-adv-x="657" 
d="M449 -139q-16 -59 -48 -79.5t-89 -20.5h-34q-11 0 -15 8.5t0 19.5l53 175q3 11 4 17.5t1 9.5q0 9 -13 9q-5 0 -15.5 -0.5t-21.5 -0.5q-34 0 -60 6.5t-44 23.5q-9 9 -17.5 21t-16 30t-16 44t-17.5 62l-85 311q-6 25 19 25h75q26 0 43.5 -3.5t29 -12.5t18 -25t11.5 -42
l51 -212q9 -38 14.5 -52.5t12.5 -19.5q5 -5 13.5 -6.5t20.5 -1.5q26 0 32 6q5 4 11 18.5t16 51.5l59 213q6 26 14.5 42.5t20.5 26.5t29.5 13.5t43.5 3.5h69q25 0 19 -25z" />
    <glyph glyph-name="z" unicode="z" horiz-adv-x="554" 
d="M521 448q0 -34 -5 -62.5t-19 -48.5q-8 -11 -29 -27.5t-48 -35t-57 -37.5t-56.5 -35.5t-46.5 -29.5t-26 -19q-2 -2 -2.5 -6.5t-0.5 -6.5q0 -8 3 -9q5 -2 25 -2.5t65 -0.5q65 0 113.5 2.5t77.5 4.5q8 1 13 -3t4 -15q0 -6 -4 -21t-10.5 -31.5t-16 -31.5t-20.5 -21
q-10 -5 -26.5 -8t-43 -4.5t-63.5 -2t-87 -0.5q-109 0 -160.5 2t-58.5 10q-10 8 -10 64q0 32 5.5 63t19.5 49q10 14 32 31.5t49.5 36.5t57.5 38.5t57 36.5t47 30.5t28 21.5q3 3 3 8t-1 6l-3 3q-6 1 -27 2t-77 1q-52 0 -93.5 -2.5t-67.5 -4.5q-8 0 -13 4.5t-5 12.5
q0 10 4 25.5t11.5 31t18.5 28.5t24 20q9 4 28 7t44.5 4t55 1.5t61.5 0.5q59 0 99 -1.5t65 -3.5t37 -4.5t15 -4.5q14 -9 14 -66z" />
    <glyph glyph-name="braceleft" unicode="{" horiz-adv-x="379" 
d="M229 546q-2 -45 -8 -77.5t-18 -52.5q-8 -12 -19 -24t-21 -22.5t-17.5 -19t-7.5 -14.5t7.5 -14t17.5 -18t21 -22t19 -24q12 -20 18 -53.5t8 -78.5q3 -59 9 -84.5t14 -34.5q8 -8 22 -12.5t38 -4.5q17 0 25.5 1t15.5 1q15 0 15 -14q0 -20 -11.5 -42.5t-28.5 -32.5
q-11 -6 -31 -10t-46 -4q-37 0 -64.5 9.5t-44.5 26.5q-9 11 -16 25t-12 37t-9.5 57.5t-7.5 85.5q-3 48 -8 77t-14 48t-23 32t-34 30q-12 11 -12 20t12 18q20 18 34 31.5t23 32.5t14 47.5t8 76.5q3 51 7.5 85.5t9.5 57.5t12 37t16 25q17 17 44.5 26.5t64.5 9.5q55 0 80 -14
q18 -9 27.5 -31.5t9.5 -42.5q0 -5 -3 -10t-11 -5t-16.5 0.5t-25.5 0.5q-24 0 -37.5 -4t-21.5 -13t-14.5 -34.5t-9.5 -84.5z" />
    <glyph glyph-name="bar" unicode="|" horiz-adv-x="274" 
d="M169 -262q0 -13 -12 -13h-40q-8 0 -11 3t-3 13v1069q0 14 14 14h41q11 0 11 -15v-1071z" />
    <glyph glyph-name="braceright" unicode="}" horiz-adv-x="379" 
d="M148 546q-3 59 -9.5 84.5t-13.5 34.5q-8 9 -21.5 13t-38.5 4q-17 0 -25.5 -0.5t-15.5 -0.5q-8 0 -11.5 5t-3.5 10q0 20 9.5 42.5t27.5 31.5q25 14 80 14q37 0 65 -9.5t44 -26.5q9 -11 16 -25t12.5 -37t9.5 -57.5t7 -85.5q3 -48 8 -76.5t14.5 -47.5t23.5 -32.5t34 -31.5
q12 -10 12 -18t-12 -20q-21 -17 -35 -30t-23 -32t-14 -48t-8 -77q-3 -51 -7 -85.5t-9.5 -57.5t-12.5 -37t-16 -25q-16 -17 -44 -26.5t-65 -9.5q-26 0 -45.5 4t-31.5 10q-17 10 -28 32.5t-11 42.5q0 14 15 14q6 0 14.5 -1t25.5 -1q25 0 38.5 4.5t21.5 12.5q7 9 13.5 34.5
t9.5 84.5q2 45 8 78.5t18 53.5q7 12 18.5 24t21.5 22t17.5 18t7.5 14t-7.5 14.5t-17.5 19t-21.5 22.5t-18.5 24q-12 20 -18 52.5t-8 77.5z" />
    <glyph glyph-name="asciitilde" unicode="~" horiz-adv-x="566" 
d="M367 228q-13 0 -29 3t-38 14l-43 23q-18 11 -31.5 15t-28.5 4q-16 0 -30 -5.5t-40 -18.5l-60 -31q-8 -4 -12 -1t-4 9v81q0 25 12 39.5t35 25.5l44 22q39 19 65 19q13 0 28 -2.5t39 -16.5l35 -20q18 -10 32.5 -15.5t32.5 -5.5q17 0 34.5 8t37.5 19l51 28q8 5 13 2.5
t5 -10.5v-82q0 -25 -10 -36.5t-32 -24.5l-41 -22q-17 -11 -34 -16t-31 -5z" />
    <glyph glyph-name="uni00A0" unicode="&#xa0;" horiz-adv-x="232" 
 />
    <glyph glyph-name="exclamdown" unicode="&#xa1;" horiz-adv-x="333" 
d="M260 -122q1 -18 -5.5 -24.5t-23.5 -6.5h-144q-17 0 -17 17l9 369q2 35 13 53t47 18h92q18 0 18 -20zM266 453q0 -23 -6 -41.5t-17 -26.5q-10 -7 -32.5 -10t-48.5 -3q-62 0 -78 13q-10 8 -14.5 24t-4.5 39t6.5 41.5t17.5 26.5q7 4 17.5 6.5t21.5 4t21.5 2t18.5 0.5
q64 0 80 -13q9 -8 13.5 -24t4.5 -39z" />
    <glyph glyph-name="cent" unicode="&#xa2;" horiz-adv-x="548" 
d="M205 520q14 4 20 10.5t6 20.5v98q0 14 12 14h107q11 0 14 -5t3 -17v-86q0 -12 5 -18.5t21 -8.5q24 -2 41.5 -6t28.5 -12q17 -12 30.5 -41t14.5 -59q1 -8 -5 -13.5t-13 -4.5q-26 2 -58.5 6t-69.5 4q-44 0 -69.5 -5.5t-39.5 -16.5q-17 -13 -27.5 -44t-10.5 -73
q0 -49 8.5 -75.5t25.5 -37.5q14 -11 41 -15.5t65 -4.5q47 0 80 3.5t56 5.5q6 0 12 -4.5t6 -12.5q-1 -13 -5 -28.5t-11 -30t-16 -27t-19 -18.5q-11 -7 -26 -10.5t-38 -7.5q-12 -2 -19.5 -8t-7.5 -24v-84q0 -11 -3 -16.5t-14 -5.5h-107q-6 0 -9 4.5t-3 10.5v88q0 20 -7.5 27
t-27.5 11q-29 6 -48.5 14t-36.5 20q-32 24 -52.5 75.5t-20.5 141.5q0 96 24.5 151.5t60.5 82.5q17 12 37 19.5t45 12.5z" />
    <glyph glyph-name="sterling" unicode="&#xa3;" horiz-adv-x="656" 
d="M262 420q0 -11 5 -16.5t22 -5.5h273q11 0 17.5 -4t6.5 -14t-3 -24.5t-8.5 -29.5t-12.5 -28t-15 -19q-9 -8 -23.5 -9.5t-38.5 -1.5h-200q-15 0 -19.5 -6t-4.5 -25v-80q0 -17 18 -18q17 -2 46 -2h57q78 0 134.5 2.5t101.5 4.5q9 0 14.5 -5.5t4.5 -15.5q0 -12 -5 -28.5
t-12.5 -32.5t-17.5 -29.5t-20 -19.5q-8 -5 -22.5 -7.5t-40.5 -4.5t-66 -2.5t-99 -0.5q-84 0 -145 0.5t-106 2.5q-5 1 -13 6t-8 18v204q0 26 -7 32.5t-27 6.5h-39q-9 0 -13.5 5t-3.5 13q0 11 3.5 27.5t8 32.5t10 28.5t11.5 17.5q5 4 12 5t14 1h18q17 0 19 27q3 60 18.5 109.5
t47.5 80.5q32 33 88.5 49.5t150.5 16.5q126 0 168 -24q20 -14 36 -43.5t18 -60.5q0 -9 -5.5 -16t-13.5 -6q-26 3 -65.5 6t-93.5 3q-38 0 -64 -2t-42.5 -6t-26.5 -9t-16 -11q-11 -13 -18.5 -34.5t-7.5 -57.5z" />
    <glyph glyph-name="currency" unicode="&#xa4;" horiz-adv-x="550" 
d="M366 516q12 -7 19.5 -1.5t12.5 10.5l60 56q11 10 22 2l35 -34q27 -25 -1 -55l-46 -48q-7 -7 -10 -13.5t2 -16.5q8 -17 12.5 -37.5t4.5 -41.5q0 -47 -19 -85q-7 -14 -4 -20.5t10 -13.5l75 -75q7 -8 -2 -18l-36 -35q-12 -11 -26.5 -13t-30.5 14l-51 53q-6 6 -12 8t-16 -4
q-17 -10 -39.5 -14.5t-45.5 -4.5q-24 0 -47.5 5.5t-43.5 15.5q-11 5 -18.5 0.5t-12.5 -9.5l-79 -79q-2 -3 -6.5 -3.5t-8.5 4.5l-40 37q-14 14 -13 28.5t14 27.5l57 56q8 8 13 15.5t0 15.5q-24 38 -24 86q0 49 24 93q5 10 2 15.5t-9 11.5l-67 67q-4 3 -5.5 7t4.5 9l32 36
q14 15 30 15.5t35 -18.5l44 -44q6 -6 12.5 -8t14.5 3q18 10 41 16t49 6q49 0 88 -22zM169 333q0 -23 8.5 -42.5t23 -33.5t34 -22.5t42.5 -8.5t43 8.5t34.5 22.5t23 33.5t8.5 42.5t-8.5 43t-23 34.5t-34.5 23t-43 8.5t-42.5 -8.5t-34 -23t-23 -34.5t-8.5 -43z" />
    <glyph glyph-name="yen" unicode="&#xa5;" horiz-adv-x="689" 
d="M427 24q0 -24 -24 -24h-138q-9 0 -12.5 5t-3.5 13v39q0 11 -5.5 14.5t-17.5 3.5h-137q-18 0 -18 15q0 7 2.5 18.5t7 23t10 21t10.5 13.5q6 5 14.5 6.5t16.5 1.5h92q13 0 19 3t6 13v30q0 9 -5 12t-18 3h-139q-16 0 -16 16q0 7 2.5 18.5t7 23.5t10 21.5t11.5 14.5
q13 8 32 8h72q21 0 21 11q0 8 -6.5 18.5t-22.5 31.5l-187 255q-7 11 -1.5 17t15.5 6h75q26 0 45.5 -3.5t35 -11.5t27.5 -21t23 -31l80 -103q10 -15 16.5 -22.5t14.5 -7.5t15 9t17 21l84 103q13 20 25.5 33t27.5 20.5t34 10.5t45 3h69q10 0 14.5 -7.5t-1.5 -15.5l-200 -267
q-11 -14 -16.5 -23t-5.5 -15q0 -5 3.5 -8t14.5 -3h119q18 0 18 -17q0 -6 -3 -17t-7.5 -23t-10 -22.5t-11.5 -14.5q-13 -8 -38 -8h-84q-15 0 -19.5 -3t-4.5 -12v-30q0 -9 4 -12.5t19 -3.5h134q17 0 19 -16q0 -6 -3 -17t-8 -22.5t-11 -22t-12 -14.5q-8 -5 -16.5 -6t-20.5 -1
h-81q-15 0 -19.5 -4.5t-4.5 -15.5v-31z" />
    <glyph glyph-name="brokenbar" unicode="&#xa6;" horiz-adv-x="274" 
d="M169 363q0 -13 -12 -13h-40q-8 0 -11 3t-3 13v444q0 14 14 14h41q11 0 11 -15v-446zM169 -262q0 -13 -12 -13h-40q-8 0 -11 3t-3 13v444q0 14 14 14h41q11 0 11 -15v-446z" />
    <glyph glyph-name="section" unicode="&#xa7;" horiz-adv-x="472" 
d="M185 482q8 -5 36 -12t62 -15t65.5 -18.5t46.5 -22.5q22 -19 33 -69t11 -146q0 -60 -3.5 -102t-10.5 -71t-17.5 -47.5t-23.5 -30.5q-19 -18 -57 -28.5t-100 -10.5q-60 0 -92.5 5.5t-46.5 18.5q-14 15 -23.5 38t-10.5 48q-1 11 6 16t15 3q26 -2 60 -4t69 -2q76 0 87 13
q15 17 15 53q0 15 -5 21q-6 6 -34.5 13.5t-63.5 17t-68 21t-48 25.5q-23 21 -33 72.5t-10 130.5q0 112 16.5 169.5t40.5 80.5q21 20 59 31t98 11q107 0 133 -22q14 -14 23.5 -37.5t11.5 -50.5q1 -10 -6 -15t-14 -4q-26 2 -58 4.5t-61 2.5q-45 0 -64.5 -4.5t-27.5 -10.5
q-8 -8 -11.5 -22.5t-3.5 -27.5q0 -17 5 -22zM300 242q4 0 6.5 4.5t2.5 9.5q-2 40 -6.5 54t-8.5 18q-5 5 -21 10.5t-34.5 10.5t-35 8t-20.5 3q-10 2 -10 -17q0 -26 3.5 -45t9.5 -23q4 -4 20 -9t34 -10.5t35 -9t25 -4.5z" />
    <glyph glyph-name="dieresis" unicode="&#xa8;" horiz-adv-x="510" 
d="M449 664q0 -46 -19 -62q-11 -8 -30.5 -11t-32.5 -3q-24 0 -38.5 4.5t-22.5 9.5q-8 8 -12.5 21.5t-4.5 35.5q0 23 5 39t15 24q8 5 25 9t39 4q46 0 60 -12q16 -15 16 -59zM220 664q0 -22 -5.5 -39t-13.5 -24q-5 -4 -13 -6.5t-17 -4t-17 -2t-14 -0.5q-25 0 -40 4.5t-23 9.5
q-15 15 -15 57q0 23 4 39t14 24q8 5 25.5 9t38.5 4q47 0 62 -12q8 -7 11 -22.5t3 -36.5z" />
    <glyph glyph-name="copyright" unicode="&#xa9;" horiz-adv-x="747" 
d="M640 81q-45 -45 -108.5 -63.5t-150.5 -18.5q-73 0 -139.5 17t-108.5 54q-20 18 -37.5 43t-30.5 60.5t-21 82t-8 108.5q0 117 30.5 193t81.5 118q38 32 98.5 51.5t155.5 19.5q81 0 136.5 -16t95.5 -46q48 -39 74 -110t26 -188q0 -109 -22.5 -184t-71.5 -121zM579 150
q35 35 48.5 97t13.5 134q0 95 -20 147t-48 78q-26 25 -69.5 38t-110.5 13t-111 -14t-73 -38q-35 -32 -57 -87t-22 -148q0 -48 5.5 -84.5t15.5 -64.5t24 -48t30 -34q24 -22 67.5 -36.5t113.5 -14.5q64 0 114 15t79 47zM411 592q45 0 76 -5t42 -13q15 -11 25 -36t11 -47
q0 -13 -11 -11q-20 2 -48 4t-56 2q-42 0 -63 -5t-33 -16q-10 -10 -18.5 -33t-8.5 -59q0 -44 6 -66t17 -33q27 -20 94 -20q38 0 66 3.5t48 5.5q5 0 8.5 -3.5t2.5 -9.5q-4 -22 -15.5 -46.5t-25.5 -35.5q-30 -22 -129 -22q-60 0 -94.5 10.5t-54.5 30.5q-22 23 -35.5 63.5
t-13.5 115.5q0 73 18 118t41 66q21 19 56 30.5t95 11.5z" />
    <glyph glyph-name="ordfeminine" unicode="&#xaa;" horiz-adv-x="414" 
d="M351 381q0 -11 -11 -11q-26 -4 -60.5 -6t-79.5 -2q-65 0 -95.5 7t-41.5 18q-8 10 -13.5 28t-5.5 44q0 24 5.5 46.5t16.5 31.5t55 13.5t110 7.5q6 0 7.5 2.5t1.5 5.5q0 8 -1.5 14t-6.5 11t-16.5 6t-31.5 1q-38 0 -68.5 -1.5t-47.5 -3.5q-4 -1 -7 3t-2 8q5 19 11.5 34.5
t15.5 23.5q12 10 43.5 15.5t77.5 5.5q52 0 79 -5.5t41 -19.5q6 -7 10.5 -16t7.5 -23t4.5 -35.5t1.5 -52.5v-150zM240 487q0 7 -2.5 8t-7.5 1q-21 0 -43.5 -2.5t-27.5 -6.5t-5 -19q0 -16 8 -21q6 -7 36 -7q13 0 23 0.5t12 2.5q5 3 6 6t1 13v25z" />
    <glyph glyph-name="guillemotleft" unicode="&#xab;" horiz-adv-x="548" 
d="M275 286q0 9 4 19.5t15 27.5l58 88q11 19 20.5 31t21 19t26 10t35.5 3h71q10 0 12.5 -6.5t-1.5 -14.5l-79 -125q-11 -16 -17 -29.5t-6 -22.5q0 -16 22 -56l67 -113q4 -8 1 -14.5t-13 -6.5h-69q-20 0 -34.5 2.5t-26 9t-21 17.5t-18.5 28l-52 85q-16 29 -16 48zM28 285
q0 9 3.5 20t13.5 28l60 88q10 19 20 31t21 19t26 10t36 3h70q10 0 13 -7t-2 -14l-80 -125q-9 -17 -15.5 -30t-6.5 -22t5.5 -22.5t16.5 -33.5l67 -114q5 -8 1.5 -14.5t-13.5 -6.5h-69q-39 0 -60.5 11t-38.5 46l-52 86q-16 28 -16 47z" />
    <glyph glyph-name="logicalnot" unicode="&#xac;" horiz-adv-x="566" 
d="M518 145q0 -15 -13 -15h-107q-11 0 -17.5 5.5t-6.5 19.5v163q0 9 -2.5 11.5t-9.5 2.5h-305q-10 0 -10 10v99q0 17 7 25.5t26 8.5h429q9 0 9 -10v-320z" />
    <glyph glyph-name="uni00AD" unicode="&#xad;" horiz-adv-x="504" 
d="M58 268q-18 0 -18 16q0 10 4 26t10.5 32.5t15.5 30.5t18 21q11 8 25.5 10t38.5 2h295q8 0 13 -3t5 -14q0 -9 -4.5 -24.5t-11 -32t-15.5 -31t-18 -21.5q-19 -12 -66 -12h-292z" />
    <glyph glyph-name="registered" unicode="&#xae;" horiz-adv-x="497" 
d="M420 323q-29 -28 -70 -39t-97 -11q-48 0 -90 10.5t-69 33.5q-26 22 -44 65t-18 121q0 74 19.5 122t51.5 75q24 20 62.5 31.5t99.5 11.5q100 0 148 -39q31 -25 49 -69t18 -119q0 -137 -60 -193zM372 371q23 21 30.5 58.5t7.5 82.5q0 60 -11.5 91.5t-27.5 46.5
q-19 15 -45 23t-68 8q-40 0 -67.5 -8t-45.5 -24q-20 -17 -33.5 -51t-13.5 -92q0 -31 4 -53.5t10.5 -39.5t15 -28.5t17.5 -20.5q15 -14 41 -22t69 -8q39 0 69.5 8.5t47.5 28.5zM159 623q0 3 2.5 4.5t4.5 1.5q18 1 39.5 1.5t45.5 0.5q40 0 59.5 -2.5t28.5 -8.5
q10 -6 16.5 -20.5t6.5 -37.5t-6 -36t-13 -21q-2 -5 -5 -8t-3 -6q0 -5 2.5 -12.5t5.5 -17.5l23 -62q1 -3 0.5 -7t-5.5 -4h-27q-22 0 -31.5 5.5t-15.5 24.5l-11 29q-5 13 -9.5 17t-14.5 4h-14q-10 0 -10 -10v-58q0 -12 -10 -12h-52q-7 0 -7 7v228zM293 550q0 11 -2 15.5
t-6 7.5q-4 2 -11 4t-21 2q-7 0 -11.5 -1t-8.5 -1q-6 0 -6 -7v-41q0 -8 8 -8h20q19 0 24 4q5 2 9.5 6.5t4.5 18.5z" />
    <glyph glyph-name="macron" unicode="&#xaf;" horiz-adv-x="505" 
d="M101 602q-16 0 -16 15q0 7 4 20.5t10.5 27.5t14.5 26.5t17 18.5q9 5 22 6.5t33 1.5h214q7 0 12 -3.5t5 -11.5t-4 -21t-10.5 -26.5t-14.5 -25.5t-16 -18q-10 -7 -24 -8.5t-35 -1.5h-212z" />
    <glyph glyph-name="degree" unicode="&#xb0;" horiz-adv-x="399" 
d="M35 542q0 76 40.5 122.5t125.5 46.5q83 0 123 -46.5t40 -122.5t-40 -122t-123 -46q-85 0 -125.5 46t-40.5 122zM127 541q0 -35 18 -58.5t56 -23.5q36 0 54 23.5t18 58.5t-18 58.5t-54 23.5q-38 0 -56 -23.5t-18 -58.5z" />
    <glyph glyph-name="plusminus" unicode="&#xb1;" horiz-adv-x="566" 
d="M378 375q-17 0 -22 -6.5t-5 -31.5v-111q0 -19 -6 -25.5t-21 -6.5h-102q-7 0 -7 11v143q0 16 -4.5 21.5t-15.5 5.5h-142q-4 0 -6.5 1.5t-2.5 7.5v99q0 17 7 25.5t25 8.5h109q17 0 23.5 6t6.5 27v119q0 17 5 22.5t18 5.5h104q6 0 7.5 -2.5t1.5 -7.5v-145q0 -17 5 -21t21 -4
h136q4 0 6.5 -1.5t2.5 -8.5v-100q0 -14 -5.5 -23t-19.5 -9h-119zM521 157q9 0 9 -11v-99q0 -14 -5 -23.5t-20 -9.5h-460q-10 0 -10 10v99q0 17 7 25.5t25 8.5h454z" />
    <glyph glyph-name="uni00B2" unicode="&#xb2;" horiz-adv-x="424" 
d="M32 456q0 61 19 87q10 12 37 26t57.5 28t57 26.5t35.5 20.5q2 2 4 9t2 14q0 15 -8 21q-11 8 -63 8q-31 0 -61 -3t-53 -5q-16 0 -16 14q0 8 3.5 18.5t9.5 21t13 19t15 13.5q14 9 46.5 15t83.5 6q59 0 89 -6.5t46 -19.5q14 -12 22 -33.5t8 -50.5q0 -59 -26 -88
q-10 -11 -39 -23.5t-60.5 -25t-57.5 -22.5t-31 -15q-1 -1 -1 -2v-4q0 -4 2 -6q4 -1 51 -1q24 0 48 0.5t44.5 1.5t36 2t24.5 1q16 4 16 -12q0 -5 -2.5 -16.5t-7.5 -24.5t-12 -24.5t-16 -16.5q-15 -8 -51 -9.5t-99 -1.5q-80 0 -118 3t-42 8q-3 3 -4.5 16t-1.5 31z" />
    <glyph glyph-name="uni00B3" unicode="&#xb3;" horiz-adv-x="415" 
d="M67 551q-6 0 -10.5 3.5t-4.5 9.5t3 15.5t7.5 19.5t10 18.5t11.5 11.5q12 8 43 8h64q10 0 18 0.5t11 2.5q5 2 8.5 8.5t3.5 17.5q0 12 -3 17t-9 8q-4 3 -16.5 5t-37.5 2q-43 0 -71 -1.5t-45 -3.5q-15 0 -15 15q1 14 12 34t28 31q14 9 44 14t84 5q58 0 88.5 -7t46.5 -21
q11 -10 18.5 -27.5t7.5 -42.5q0 -22 -4.5 -39.5t-9.5 -27.5q-3 -8 -6.5 -13t-3.5 -8q0 -5 3 -9.5t9 -12.5q9 -13 16 -30.5t7 -45.5q0 -30 -9 -51.5t-26 -35.5t-54 -22t-102 -8q-51 0 -83 4.5t-46 12.5q-15 10 -24.5 32t-9.5 36q0 6 4 10t10 3q19 -2 51.5 -4.5t69.5 -2.5
q30 0 47 2t25 5q6 4 10 11t4 19q0 24 -13 29q-4 2 -12 2.5t-23 0.5h-127z" />
    <glyph glyph-name="acute" unicode="&#xb4;" horiz-adv-x="505" 
d="M174 582q-9 -4 -13.5 0t-4.5 12v60q0 30 12.5 47t47.5 28l147 51q8 2 13 -0.5t5 -10.5v-57q0 -31 -13 -48t-47 -30z" />
    <glyph glyph-name="uni00B5" unicode="&#xb5;" horiz-adv-x="637" 
d="M59 506q0 16 17 16h135q16 0 19.5 -6.5t3.5 -23.5v-258q0 -35 3 -54t9 -28q18 -22 80 -22q34 0 62 5q13 3 17.5 9.5t4.5 24.5v337q0 16 18 16h135q16 0 16 -18v-473q0 -9 -5 -12.5t-15 -5.5q-32 -8 -83 -13.5t-106 -5.5q-51 0 -79.5 2.5t-38.5 2.5q-8 0 -11 -3.5
t-3 -16.5v-172q0 -25 -8 -34.5t-32 -9.5h-123q-7 0 -11.5 3.5t-4.5 15.5v724z" />
    <glyph glyph-name="paragraph" unicode="&#xb6;" horiz-adv-x="582" 
d="M442 -58q-13 0 -13 17v563q0 22 -7.5 29.5t-24.5 7.5q-18 0 -24.5 -8t-6.5 -27v-566q0 -16 -13 -16h-76q-8 0 -11.5 6t-3.5 21l1 280q0 13 -2 19.5t-5 9.5t-6.5 3.5t-5.5 0.5h-35q-34 0 -62 5t-53 22q-24 17 -41.5 56t-17.5 99q0 71 16 111.5t44 61.5q24 17 78 29t138 12
q21 0 49.5 -1t57.5 -2.5t55 -4t42 -5.5q8 -2 12.5 -6t4.5 -17v-684q0 -16 -15 -16h-75z" />
    <glyph glyph-name="periodcentered" unicode="&#xb7;" horiz-adv-x="304" 
d="M51 312q0 24 6 43t18 27q10 8 32.5 11.5t48.5 3.5q60 0 79 -16q10 -6 14.5 -22.5t4.5 -39.5q0 -24 -6.5 -42.5t-17.5 -26.5q-14 -9 -38.5 -12t-41.5 -3q-61 0 -79 15q-20 16 -20 62z" />
    <glyph glyph-name="cedilla" unicode="&#xb8;" horiz-adv-x="505" 
d="M180 -37q14 0 35 0.5t48 0.5q39 0 61 -4.5t34 -13.5q10 -8 17 -27t7 -46q0 -29 -7.5 -53t-20.5 -38q-25 -25 -108 -25q-75 0 -98 17q-5 4 -10 12t-8.5 17t-6 17.5t-2.5 14.5q0 13 11 11q15 -2 35.5 -5t51.5 -3q51 0 60 9q6 5 6 19q0 5 -1 10.5t-5 7.5q-3 3 -10.5 4
t-24.5 1q-20 0 -30.5 1.5t-16.5 6.5q-8 6 -15.5 24t-9.5 32q-2 4 0.5 7t7.5 3z" />
    <glyph glyph-name="uni00B9" unicode="&#xb9;" horiz-adv-x="361" 
d="M259 410q0 -10 -10 -10h-108q-8 0 -8 8v256q0 14 -5.5 17t-21.5 -1l-64 -8q-12 -2 -12 10q0 33 2.5 51t10.5 26q5 4 13.5 8t23.5 6l164 27q15 4 15 -12v-378z" />
    <glyph glyph-name="ordmasculine" unicode="&#xba;" horiz-adv-x="424" 
d="M376 524q0 -55 -13.5 -88.5t-31.5 -48.5t-50 -23.5t-76 -8.5q-46 0 -77.5 10.5t-47.5 26.5q-14 16 -24.5 44t-10.5 79q0 53 12.5 86t32.5 49q20 15 49.5 23.5t77.5 8.5q50 0 79 -8.5t43 -24.5q16 -16 26.5 -45t10.5 -80zM268 520q0 24 -2.5 38t-8.5 22q-5 5 -16.5 8
t-27.5 3q-17 0 -28.5 -3t-17.5 -7q-6 -8 -10.5 -22.5t-4.5 -39.5q0 -44 12 -59q7 -6 18.5 -9t25.5 -3q34 0 46 9q6 5 10 22t4 41z" />
    <glyph glyph-name="guillemotright" unicode="&#xbb;" horiz-adv-x="547" 
d="M290 294q0 -9 -3.5 -20t-13.5 -28l-60 -89q-11 -18 -20.5 -30t-20.5 -19t-26 -10t-36 -3h-70q-11 0 -13.5 7t2.5 15l79 124q10 17 16.5 29.5t6.5 22.5q0 9 -5.5 22.5t-16.5 33.5l-67 114q-5 8 -1.5 14.5t13.5 6.5h69q39 0 60.5 -11t38.5 -46l52 -86q16 -29 16 -47z
M538 294q0 -9 -4 -20t-14 -28l-58 -88q-11 -18 -21 -30t-21.5 -19t-26 -10t-35.5 -3h-71q-10 0 -12.5 7t1.5 14l80 125q10 16 16 29.5t6 22.5q0 16 -20 56l-69 114q-4 8 -0.5 14t12.5 6h70q38 0 60 -11t40 -46l50 -85q17 -31 17 -48z" />
    <glyph glyph-name="onequarter" unicode="&#xbc;" horiz-adv-x="855" 
d="M610 190q-8 -11 -8 -20q0 -6 9 -6h81q8 0 10 2.5t2 10.5v67q0 12 10 25t25.5 23.5t34.5 17.5t37 7q16 0 16 -16v-293q0 -9 -10 -9h-82q-20 0 -25.5 6t-5.5 25v35q0 10 -3 12t-10 2h-189q-15 0 -22.5 13.5t-7.5 36.5q0 43 16 69l94 139q9 16 18 26t20 15.5t26 7.5t35 2h37
q16 0 11 -14zM312 69q-18 -35 -42 -52t-68 -17h-32q-12 0 -17 8t3 22l324 574q22 42 47.5 57t66.5 15h33q12 0 17.5 -8t-1.5 -19zM254 310q0 -11 -10 -11h-108q-5 0 -6.5 3t-1.5 5v256q0 14 -5.5 17.5t-21.5 0.5l-64 -10q-6 -1 -9 2t-3 8q0 33 2.5 51t10.5 26q5 5 13.5 8.5
t23.5 5.5l164 29q8 1 11.5 -1.5t3.5 -10.5v-379z" />
    <glyph glyph-name="onehalf" unicode="&#xbd;" horiz-adv-x="877" 
d="M508 56q0 61 19 87q10 12 37 26t57.5 28t57 26.5t35.5 20.5q2 2 4 9t2 14q0 15 -8 21q-11 8 -63 8q-31 0 -61 -3t-53 -5q-16 0 -16 14q0 8 3.5 18.5t9.5 21t13 19t15 13.5q14 9 46.5 15t83.5 6q59 0 89 -6.5t46 -19.5q14 -12 22 -33.5t8 -50.5q0 -59 -26 -88
q-10 -11 -39 -23.5t-60.5 -25t-57.5 -22.5t-31 -15q-1 -1 -1 -2v-4q0 -4 2 -6q4 -1 51 -1q24 0 48 0.5t44.5 1.5t36 2t24.5 1q16 4 16 -12q0 -5 -2.5 -16.5t-7.5 -24.5t-12 -24.5t-16 -16.5q-15 -8 -51 -9.5t-99 -1.5q-80 0 -118 3t-42 8q-3 3 -4.5 16t-1.5 31zM312 69
q-18 -35 -42 -52t-68 -17h-32q-12 0 -17 8t3 22l324 574q22 42 47.5 57t66.5 15h33q12 0 17.5 -8t-1.5 -19zM254 310q0 -11 -10 -11h-108q-5 0 -6.5 3t-1.5 5v256q0 14 -5.5 17.5t-21.5 0.5l-64 -10q-6 -1 -9 2t-3 8q0 33 2.5 51t10.5 26q5 5 13.5 8.5t23.5 5.5l164 29
q8 1 11.5 -1.5t3.5 -10.5v-379z" />
    <glyph glyph-name="threequarters" unicode="&#xbe;" horiz-adv-x="975" 
d="M83 447q-6 0 -10.5 3t-4.5 10q0 6 3 15.5t7.5 19t10 18t11.5 12.5q7 4 16.5 5.5t26.5 1.5h64q10 0 18 0.5t11 3.5q5 2 8.5 8.5t3.5 17.5t-3 16t-9 9q-4 3 -16.5 5t-37.5 2q-43 0 -71 -2t-45 -4q-7 -1 -11 3.5t-4 11.5q1 15 12 34.5t28 30.5q14 10 44 14t84 4
q58 0 88.5 -6t46.5 -20q11 -10 18.5 -28.5t7.5 -43.5q0 -21 -4.5 -38.5t-9.5 -28.5q-3 -6 -6.5 -11t-3.5 -9q0 -5 3 -9l9 -12q9 -13 16 -31t7 -45q0 -60 -35 -87q-17 -14 -54 -22.5t-102 -8.5q-51 0 -83 5t-46 13q-8 5 -14 13.5t-10.5 18t-7 19.5t-2.5 17q0 6 4 10t10 3
q19 -2 51.5 -5t69.5 -3q30 0 47 2.5t25 5.5q14 7 14 30t-13 28q-7 4 -35 4h-127zM716 190q-8 -11 -8 -20q0 -6 9 -6h81q8 0 10 2.5t2 10.5v67q0 12 10 25t25.5 23.5t34.5 17.5t37 7q16 0 16 -16v-293q0 -9 -10 -9h-82q-20 0 -25.5 6t-5.5 25v35q0 10 -3 12t-10 2h-189
q-15 0 -22.5 13.5t-7.5 36.5q0 43 16 69l94 139q9 16 18 26t20 15.5t26 7.5t35 2h37q16 0 11 -14zM418 69q-18 -35 -42 -52t-68 -17h-32q-12 0 -17 8t3 22l324 574q22 42 47.5 57t66.5 15h33q12 0 17.5 -8t-1.5 -19z" />
    <glyph glyph-name="questiondown" unicode="&#xbf;" horiz-adv-x="576" 
d="M227 112q-7 -8 -10.5 -23t-3.5 -27q0 -42 15 -54q4 -4 11.5 -7.5t21 -6t34.5 -4t53 -1.5q48 0 98 5t85 8q9 1 14.5 -5t3.5 -16q-2 -14 -7.5 -29.5t-14 -30t-18 -26.5t-18.5 -18q-10 -7 -24.5 -13t-38 -10.5t-56 -7.5t-78.5 -3q-90 0 -137.5 11t-72.5 32q-23 20 -36 61
t-13 101q0 45 12 86.5t31 61.5q13 14 39.5 30t59 31t67.5 28.5t64.5 23.5t51.5 16t28 6q20 0 20 -21v-24q0 -45 -12.5 -70.5t-35.5 -38.5q-14 -8 -33.5 -17t-39 -17t-36 -16t-24.5 -15zM416 454q0 -23 -6.5 -42t-17.5 -27q-11 -7 -33.5 -10.5t-48.5 -3.5q-29 0 -49 3.5
t-30 11.5q-18 15 -18 63q0 23 6 42t19 27q13 9 37.5 11.5t41.5 2.5q62 0 79 -14q20 -16 20 -64z" />
    <glyph glyph-name="Agrave" unicode="&#xc0;" horiz-adv-x="755" 
d="M207 68q-5 -18 -12.5 -31t-18.5 -21t-28 -12t-41 -4h-78q-8 0 -13 5t-5 10q0 11 7 31l135 447q11 37 21 63t18.5 44t17 29t16.5 18q20 17 57 27t102 10q67 0 101.5 -8.5t52.5 -25.5q7 -7 15 -18.5t16 -29.5t17 -44.5t19 -62.5l132 -461l2.5 -12.5t0.5 -9.5q0 -12 -15 -12
h-91q-25 0 -42 3.5t-28.5 12t-19 21.5t-13.5 32l-31 106q-5 17 -12.5 23.5t-29.5 6.5h-179q-19 0 -28 -7t-14 -25zM461 361q0 9 -9 41l-16 63q-8 30 -14.5 42.5t-11.5 17.5t-13 7.5t-22 2.5t-23 -3t-14 -7q-7 -5 -13.5 -19t-15.5 -43l-20 -66q-4 -12 -6.5 -22.5t-2.5 -14.5
q0 -12 8 -16.5t29 -4.5h109q24 0 29.5 5.5t5.5 16.5zM313 788q-34 12 -47.5 29.5t-13.5 48.5v57q0 8 5 10.5t13 0.5l147 -51q34 -11 47 -28t13 -47v-60q0 -8 -4.5 -12t-13.5 0z" />
    <glyph glyph-name="Aacute" unicode="&#xc1;" horiz-adv-x="755" 
d="M207 68q-5 -18 -12.5 -31t-18.5 -21t-28 -12t-41 -4h-78q-8 0 -13 5t-5 10q0 11 7 31l135 447q11 37 21 63t18.5 44t17 29t16.5 18q20 17 57 27t102 10q67 0 101.5 -8.5t52.5 -25.5q7 -7 15 -18.5t16 -29.5t17 -44.5t19 -62.5l132 -461l2.5 -12.5t0.5 -9.5q0 -12 -15 -12
h-91q-25 0 -42 3.5t-28.5 12t-19 21.5t-13.5 32l-31 106q-5 17 -12.5 23.5t-29.5 6.5h-179q-19 0 -28 -7t-14 -25zM461 361q0 9 -9 41l-16 63q-8 30 -14.5 42.5t-11.5 17.5t-13 7.5t-22 2.5t-23 -3t-14 -7q-7 -5 -13.5 -19t-15.5 -43l-20 -66q-4 -12 -6.5 -22.5t-2.5 -14.5
q0 -12 8 -16.5t29 -4.5h109q24 0 29.5 5.5t5.5 16.5zM291 736q-9 -4 -13.5 0t-4.5 12v60q0 30 12.5 47t47.5 28l147 51q8 2 13 -0.5t5 -10.5v-57q0 -31 -13 -48t-47 -30z" />
    <glyph glyph-name="Acircumflex" unicode="&#xc2;" horiz-adv-x="755" 
d="M207 68q-5 -18 -12.5 -31t-18.5 -21t-28 -12t-41 -4h-78q-8 0 -13 5t-5 10q0 11 7 31l135 447q11 37 21 63t18.5 44t17 29t16.5 18q20 17 57 27t102 10q67 0 101.5 -8.5t52.5 -25.5q7 -7 15 -18.5t16 -29.5t17 -44.5t19 -62.5l132 -461l2.5 -12.5t0.5 -9.5q0 -12 -15 -12
h-91q-25 0 -42 3.5t-28.5 12t-19 21.5t-13.5 32l-31 106q-5 17 -12.5 23.5t-29.5 6.5h-179q-19 0 -28 -7t-14 -25zM461 361q0 9 -9 41l-16 63q-8 30 -14.5 42.5t-11.5 17.5t-13 7.5t-22 2.5t-23 -3t-14 -7q-7 -5 -13.5 -19t-15.5 -43l-20 -66q-4 -12 -6.5 -22.5t-2.5 -14.5
q0 -12 8 -16.5t29 -4.5h109q24 0 29.5 5.5t5.5 16.5zM372 941q14 0 37 -16l71 -41q14 -9 23 -17.5t14.5 -19t8 -24t2.5 -32.5v-42q0 -8 -6 -11t-13 2l-102 65q-11 7 -19.5 12t-16.5 5t-16.5 -4t-22.5 -14l-99 -65q-6 -5 -12 -2.5t-6 10.5v49q0 36 12.5 54t38.5 36l66 37
q12 8 21.5 13t18.5 5z" />
    <glyph glyph-name="Atilde" unicode="&#xc3;" horiz-adv-x="755" 
d="M207 68q-5 -18 -12.5 -31t-18.5 -21t-28 -12t-41 -4h-78q-8 0 -13 5t-5 10q0 11 7 31l135 447q11 37 21 63t18.5 44t17 29t16.5 18q20 17 57 27t102 10q67 0 101.5 -8.5t52.5 -25.5q7 -7 15 -18.5t16 -29.5t17 -44.5t19 -62.5l132 -461l2.5 -12.5t0.5 -9.5q0 -12 -15 -12
h-91q-25 0 -42 3.5t-28.5 12t-19 21.5t-13.5 32l-31 106q-5 17 -12.5 23.5t-29.5 6.5h-179q-19 0 -28 -7t-14 -25zM461 361q0 9 -9 41l-16 63q-8 30 -14.5 42.5t-11.5 17.5t-13 7.5t-22 2.5t-23 -3t-14 -7q-7 -5 -13.5 -19t-15.5 -43l-20 -66q-4 -12 -6.5 -22.5t-2.5 -14.5
q0 -12 8 -16.5t29 -4.5h109q24 0 29.5 5.5t5.5 16.5zM431 741q-17 0 -43 16l-33 22q-11 8 -20 11.5t-19 3.5t-18 -3t-23 -13l-42 -31q-7 -5 -11.5 -2.5t-4.5 10.5v42q0 26 7 42t34 34l27 17q22 14 42 14q9 0 20 -3t25 -12l27 -19q19 -15 39 -15q11 0 20.5 4.5t22.5 13.5
l36 26q6 4 11.5 2t5.5 -9v-43q0 -29 -9 -45t-29 -31l-24 -16q-22 -16 -41 -16z" />
    <glyph glyph-name="Adieresis" unicode="&#xc4;" horiz-adv-x="755" 
d="M207 68q-5 -18 -12.5 -31t-18.5 -21t-28 -12t-41 -4h-78q-8 0 -13 5t-5 10q0 11 7 31l135 447q11 37 21 63t18.5 44t17 29t16.5 18q20 17 57 27t102 10q67 0 101.5 -8.5t52.5 -25.5q7 -7 15 -18.5t16 -29.5t17 -44.5t19 -62.5l132 -461l2.5 -12.5t0.5 -9.5q0 -12 -15 -12
h-91q-25 0 -42 3.5t-28.5 12t-19 21.5t-13.5 32l-31 106q-5 17 -12.5 23.5t-29.5 6.5h-179q-19 0 -28 -7t-14 -25zM461 361q0 9 -9 41l-16 63q-8 30 -14.5 42.5t-11.5 17.5t-13 7.5t-22 2.5t-23 -3t-14 -7q-7 -5 -13.5 -19t-15.5 -43l-20 -66q-4 -12 -6.5 -22.5t-2.5 -14.5
q0 -12 8 -16.5t29 -4.5h109q24 0 29.5 5.5t5.5 16.5zM569 818q0 -46 -19 -62q-11 -8 -30.5 -11t-32.5 -3q-24 0 -38.5 4.5t-22.5 9.5q-8 8 -12.5 21.5t-4.5 35.5q0 23 5 39t15 24q8 5 25 9t39 4q46 0 60 -12q16 -15 16 -59zM340 818q0 -22 -5.5 -39t-13.5 -24
q-5 -4 -13 -6.5t-17 -4t-17 -2t-14 -0.5q-25 0 -40 4.5t-23 9.5q-15 15 -15 57q0 23 4 39t14 24q8 5 25.5 9t38.5 4q47 0 62 -12q8 -7 11 -22.5t3 -36.5z" />
    <glyph glyph-name="Aring" unicode="&#xc5;" horiz-adv-x="755" 
d="M207 68q-5 -18 -12.5 -31t-18.5 -21t-28 -12t-41 -4h-78q-8 0 -13 5t-5 10q0 11 7 31l135 447q11 37 21 63t18.5 44t17 29t16.5 18q20 17 57 27t102 10q67 0 101.5 -8.5t52.5 -25.5q7 -7 15 -18.5t16 -29.5t17 -44.5t19 -62.5l132 -461l2.5 -12.5t0.5 -9.5q0 -12 -15 -12
h-91q-25 0 -42 3.5t-28.5 12t-19 21.5t-13.5 32l-31 106q-5 17 -12.5 23.5t-29.5 6.5h-179q-19 0 -28 -7t-14 -25zM461 361q0 9 -9 41l-16 63q-8 30 -14.5 42.5t-11.5 17.5t-13 7.5t-22 2.5t-23 -3t-14 -7q-7 -5 -13.5 -19t-15.5 -43l-20 -66q-4 -12 -6.5 -22.5t-2.5 -14.5
q0 -12 8 -16.5t29 -4.5h109q24 0 29.5 5.5t5.5 16.5zM240 876q0 53 30.5 85t103.5 32q37 0 62.5 -8.5t41.5 -24t23 -37t7 -47.5q0 -53 -30.5 -85.5t-103.5 -32.5q-37 0 -62.5 8.5t-41.5 24t-23 37.5t-7 48zM323 874q0 -17 11.5 -27t39.5 -10t39.5 10t11.5 27q0 19 -11.5 30
t-39.5 11t-39.5 -11t-11.5 -30z" />
    <glyph glyph-name="AE" unicode="&#xc6;" horiz-adv-x="1047" 
d="M438 333q24 0 24 27v136q0 21 -6.5 28t-37.5 7q-52 0 -65 -13q-8 -8 -15.5 -24t-18.5 -53l-18 -53q-3 -11 -6.5 -22t-1.5 -16q0 -9 6 -13t23 -4h116zM462 168q0 20 -7 26.5t-24 6.5h-155q-15 0 -22.5 -6.5t-13.5 -24.5l-38 -109q-6 -18 -12.5 -30t-17 -19t-26 -9.5
t-37.5 -2.5h-95q-5 0 -9.5 3.5t-4.5 9.5q0 4 3 12l6 16l147 417q16 43 29 73.5t24 51.5t20 33t17 20q23 19 64.5 29t121.5 10q38 0 75 -0.5t56 -0.5q33 0 79 2t117 2q69 0 119.5 -1.5t67.5 -9.5q9 -5 17.5 -17t16 -28t12.5 -34t7 -35q1 -9 -5 -14.5t-14 -5.5q-35 2 -88 4
t-111 2q-33 0 -65.5 -0.5t-51.5 -1.5q-14 -1 -19 -7t-5 -20v-81q0 -20 25 -20l289 1q10 0 15.5 -3.5t5.5 -14.5q0 -10 -3.5 -24.5t-9 -30t-13 -29t-16.5 -20.5q-10 -8 -25 -10t-39 -2h-202q-16 0 -21.5 -6t-5.5 -18v-84q0 -17 6.5 -22.5t22.5 -6.5q8 0 16 -0.5t18.5 -0.5
t24.5 -0.5t34 -0.5q77 0 131 2.5t96 4.5q8 1 14.5 -4t4.5 -17q-2 -16 -8.5 -33.5t-15.5 -33.5t-19 -28t-19 -17q-8 -4 -21.5 -6.5t-37.5 -4t-61 -2t-92 -0.5q-83 0 -142 0.5t-107 2.5q-6 0 -14.5 5t-8.5 22v140z" />
    <glyph glyph-name="Ccedilla" unicode="&#xc7;" horiz-adv-x="668" 
d="M231 340q0 -68 12 -108t32 -56q22 -17 60.5 -24t104.5 -7q58 0 106.5 5.5t77.5 7.5q6 0 11.5 -3.5t3.5 -13.5q-3 -17 -9 -34.5t-14.5 -33.5t-19 -29.5t-20.5 -20.5q-24 -15 -72.5 -23.5t-136.5 -8.5q-90 0 -151 17t-91 46q-32 28 -56 93.5t-24 182.5q0 115 29 187.5
t71 106.5q15 12 36 23t50 19.5t67.5 13t90.5 4.5q72 0 119.5 -6t67.5 -19q26 -17 42.5 -52.5t18.5 -67.5q0 -6 -4.5 -12t-12.5 -5q-33 5 -76 9t-100 4q-38 0 -64 -2.5t-45 -7t-31.5 -10t-21.5 -12.5q-23 -17 -37 -57t-14 -106zM283 -37q14 0 35 0.5t48 0.5q39 0 61 -4.5
t34 -13.5q10 -8 17 -27t7 -46q0 -29 -7.5 -53t-20.5 -38q-25 -25 -108 -25q-75 0 -98 17q-5 4 -10 12t-8.5 17t-6 17.5t-2.5 14.5q0 13 11 11q15 -2 35.5 -5t51.5 -3q51 0 60 9q6 5 6 19q0 5 -1 10.5t-5 7.5q-3 3 -10.5 4t-24.5 1q-20 0 -30.5 1.5t-16.5 6.5q-8 6 -15.5 24
t-9.5 32q-2 4 0.5 7t7.5 3z" />
    <glyph glyph-name="Egrave" unicode="&#xc8;" horiz-adv-x="643" 
d="M380 538h-62t-46 -1q-14 -1 -18.5 -7t-4.5 -20v-81q0 -11 5.5 -15.5t19.5 -4.5h288q9 0 15 -3.5t6 -14.5q0 -10 -3.5 -24.5t-9.5 -29.5t-13.5 -28.5t-15.5 -20.5q-11 -8 -26 -10t-39 -2h-202q-16 0 -20.5 -6t-4.5 -18v-84q0 -17 5.5 -22.5t21.5 -6.5q8 0 16 -0.5
t18.5 -0.5t25 -0.5t34.5 -0.5q77 0 130.5 2.5t95.5 4.5q8 1 14.5 -4t5.5 -17q-2 -16 -8 -33.5t-15 -33.5t-19.5 -28.5t-19.5 -16.5q-8 -4 -22 -6.5t-38 -4t-61 -2t-92 -0.5q-83 0 -141.5 0.5t-107.5 2.5q-5 0 -13.5 5t-8.5 22v623q0 14 8.5 18t13.5 4q31 1 59 2t56.5 1.5
t59 1t66.5 0.5q94 0 148.5 -1.5t71.5 -9.5q9 -5 18 -17t16.5 -28t12.5 -34t7 -35q1 -9 -5.5 -14.5t-14.5 -5.5q-18 1 -41.5 2t-50.5 1.5t-56.5 1t-58.5 0.5zM279 788q-34 12 -47.5 29.5t-13.5 48.5v57q0 8 5 10.5t13 0.5l147 -51q34 -11 47 -28t13 -47v-60q0 -8 -4.5 -12
t-13.5 0z" />
    <glyph glyph-name="Eacute" unicode="&#xc9;" horiz-adv-x="643" 
d="M380 538h-62t-46 -1q-14 -1 -18.5 -7t-4.5 -20v-81q0 -11 5.5 -15.5t19.5 -4.5h288q9 0 15 -3.5t6 -14.5q0 -10 -3.5 -24.5t-9.5 -29.5t-13.5 -28.5t-15.5 -20.5q-11 -8 -26 -10t-39 -2h-202q-16 0 -20.5 -6t-4.5 -18v-84q0 -17 5.5 -22.5t21.5 -6.5q8 0 16 -0.5
t18.5 -0.5t25 -0.5t34.5 -0.5q77 0 130.5 2.5t95.5 4.5q8 1 14.5 -4t5.5 -17q-2 -16 -8 -33.5t-15 -33.5t-19.5 -28.5t-19.5 -16.5q-8 -4 -22 -6.5t-38 -4t-61 -2t-92 -0.5q-83 0 -141.5 0.5t-107.5 2.5q-5 0 -13.5 5t-8.5 22v623q0 14 8.5 18t13.5 4q31 1 59 2t56.5 1.5
t59 1t66.5 0.5q94 0 148.5 -1.5t71.5 -9.5q9 -5 18 -17t16.5 -28t12.5 -34t7 -35q1 -9 -5.5 -14.5t-14.5 -5.5q-18 1 -41.5 2t-50.5 1.5t-56.5 1t-58.5 0.5zM264 736q-9 -4 -13.5 0t-4.5 12v60q0 30 12.5 47t47.5 28l147 51q8 2 13 -0.5t5 -10.5v-57q0 -31 -13 -48t-47 -30z
" />
    <glyph glyph-name="Ecircumflex" unicode="&#xca;" horiz-adv-x="643" 
d="M380 538h-62t-46 -1q-14 -1 -18.5 -7t-4.5 -20v-81q0 -11 5.5 -15.5t19.5 -4.5h288q9 0 15 -3.5t6 -14.5q0 -10 -3.5 -24.5t-9.5 -29.5t-13.5 -28.5t-15.5 -20.5q-11 -8 -26 -10t-39 -2h-202q-16 0 -20.5 -6t-4.5 -18v-84q0 -17 5.5 -22.5t21.5 -6.5q8 0 16 -0.5
t18.5 -0.5t25 -0.5t34.5 -0.5q77 0 130.5 2.5t95.5 4.5q8 1 14.5 -4t5.5 -17q-2 -16 -8 -33.5t-15 -33.5t-19.5 -28.5t-19.5 -16.5q-8 -4 -22 -6.5t-38 -4t-61 -2t-92 -0.5q-83 0 -141.5 0.5t-107.5 2.5q-5 0 -13.5 5t-8.5 22v623q0 14 8.5 18t13.5 4q31 1 59 2t56.5 1.5
t59 1t66.5 0.5q94 0 148.5 -1.5t71.5 -9.5q9 -5 18 -17t16.5 -28t12.5 -34t7 -35q1 -9 -5.5 -14.5t-14.5 -5.5q-18 1 -41.5 2t-50.5 1.5t-56.5 1t-58.5 0.5zM340 941q14 0 37 -16l71 -41q14 -9 23 -17.5t14.5 -19t8 -24t2.5 -32.5v-42q0 -8 -6 -11t-13 2l-102 65
q-11 7 -19.5 12t-16.5 5t-16.5 -4t-22.5 -14l-99 -65q-6 -5 -12 -2.5t-6 10.5v49q0 36 12.5 54t38.5 36l66 37q12 8 21.5 13t18.5 5z" />
    <glyph glyph-name="Edieresis" unicode="&#xcb;" horiz-adv-x="643" 
d="M380 538h-62t-46 -1q-14 -1 -18.5 -7t-4.5 -20v-81q0 -11 5.5 -15.5t19.5 -4.5h288q9 0 15 -3.5t6 -14.5q0 -10 -3.5 -24.5t-9.5 -29.5t-13.5 -28.5t-15.5 -20.5q-11 -8 -26 -10t-39 -2h-202q-16 0 -20.5 -6t-4.5 -18v-84q0 -17 5.5 -22.5t21.5 -6.5q8 0 16 -0.5
t18.5 -0.5t25 -0.5t34.5 -0.5q77 0 130.5 2.5t95.5 4.5q8 1 14.5 -4t5.5 -17q-2 -16 -8 -33.5t-15 -33.5t-19.5 -28.5t-19.5 -16.5q-8 -4 -22 -6.5t-38 -4t-61 -2t-92 -0.5q-83 0 -141.5 0.5t-107.5 2.5q-5 0 -13.5 5t-8.5 22v623q0 14 8.5 18t13.5 4q31 1 59 2t56.5 1.5
t59 1t66.5 0.5q94 0 148.5 -1.5t71.5 -9.5q9 -5 18 -17t16.5 -28t12.5 -34t7 -35q1 -9 -5.5 -14.5t-14.5 -5.5q-18 1 -41.5 2t-50.5 1.5t-56.5 1t-58.5 0.5zM538 818q0 -46 -19 -62q-11 -8 -30.5 -11t-32.5 -3q-24 0 -38.5 4.5t-22.5 9.5q-8 8 -12.5 21.5t-4.5 35.5
q0 23 5 39t15 24q8 5 25 9t39 4q46 0 60 -12q16 -15 16 -59zM309 818q0 -22 -5.5 -39t-13.5 -24q-5 -4 -13 -6.5t-17 -4t-17 -2t-14 -0.5q-25 0 -40 4.5t-23 9.5q-15 15 -15 57q0 23 4 39t14 24q8 5 25.5 9t38.5 4q47 0 62 -12q8 -7 11 -22.5t3 -36.5z" />
    <glyph glyph-name="Igrave" unicode="&#xcc;" horiz-adv-x="320" 
d="M250 51q0 -31 -10.5 -41t-37.5 -10h-115q-17 0 -17 20v607q0 28 10 38.5t39 10.5h114q17 0 17 -19v-606zM90 788q-34 12 -47.5 29.5t-13.5 48.5v57q0 8 5 10.5t13 0.5l147 -51q34 -11 47 -28t13 -47v-60q0 -8 -4.5 -12t-13.5 0z" />
    <glyph glyph-name="Iacute" unicode="&#xcd;" horiz-adv-x="320" 
d="M250 51q0 -31 -10.5 -41t-37.5 -10h-115q-17 0 -17 20v607q0 28 10 38.5t39 10.5h114q17 0 17 -19v-606zM77 736q-9 -4 -13.5 0t-4.5 12v60q0 30 12.5 47t47.5 28l147 51q8 2 13 -0.5t5 -10.5v-57q0 -31 -13 -48t-47 -30z" />
    <glyph glyph-name="Icircumflex" unicode="&#xce;" horiz-adv-x="320" 
d="M250 51q0 -31 -10.5 -41t-37.5 -10h-115q-17 0 -17 20v607q0 28 10 38.5t39 10.5h114q17 0 17 -19v-606zM158 941q14 0 37 -16l71 -41q14 -9 23 -17.5t14.5 -19t8 -24t2.5 -32.5v-42q0 -8 -6 -11t-13 2l-102 65q-11 7 -19.5 12t-16.5 5t-16.5 -4t-22.5 -14l-99 -65
q-6 -5 -12 -2.5t-6 10.5v49q0 36 12.5 54t38.5 36l66 37q12 8 21.5 13t18.5 5z" />
    <glyph glyph-name="Idieresis" unicode="&#xcf;" horiz-adv-x="320" 
d="M250 51q0 -31 -10.5 -41t-37.5 -10h-115q-17 0 -17 20v607q0 28 10 38.5t39 10.5h114q17 0 17 -19v-606zM352 818q0 -46 -19 -62q-11 -8 -30.5 -11t-32.5 -3q-24 0 -38.5 4.5t-22.5 9.5q-8 8 -12.5 21.5t-4.5 35.5q0 23 5 39t15 24q8 5 25 9t39 4q46 0 60 -12
q16 -15 16 -59zM123 818q0 -22 -5.5 -39t-13.5 -24q-5 -4 -13 -6.5t-17 -4t-17 -2t-14 -0.5q-25 0 -40 4.5t-23 9.5q-15 15 -15 57q0 23 4 39t14 24q8 5 25.5 9t38.5 4q47 0 62 -12q8 -7 11 -22.5t3 -36.5z" />
    <glyph glyph-name="Eth" unicode="&#xd0;" horiz-adv-x="777" 
d="M87 649q0 14 7.5 18.5t12.5 3.5q28 1 60.5 3t66 3l67 2t63.5 1q63 0 110 -3.5t81 -11t57.5 -18.5t41.5 -26q33 -27 57 -93t24 -179q0 -114 -29 -190t-71 -108q-38 -29 -102.5 -43t-173.5 -14q-70 0 -135 2t-116 5q-5 0 -13 5.5t-8 22.5v204q0 29 -8 35t-25 6h-45
q-19 0 -19 19q0 12 2 26.5t6 28.5t9.5 26t12.5 18q10 6 30 6h15q11 0 16.5 6t5.5 21v224zM263 169q0 -14 5 -18.5t19 -5.5q16 -1 41 -1.5t55 -0.5q51 0 79.5 7t44.5 19q17 14 31.5 58.5t14.5 113.5q0 74 -12 110.5t-29 53.5q-19 16 -55.5 21.5t-81.5 5.5q-25 0 -50 -0.5
t-42 -2.5q-14 -2 -17 -7t-3 -18v-79q0 -17 6 -22t26 -5h108q6 0 11 -4t5 -14t-2.5 -24t-7 -28t-10.5 -25.5t-13 -17.5q-8 -7 -19 -8.5t-27 -1.5h-46q-19 0 -25 -6.5t-6 -25.5v-74z" />
    <glyph glyph-name="Ntilde" unicode="&#xd1;" horiz-adv-x="840" 
d="M771 136q0 -47 -6.5 -73t-19.5 -41q-7 -8 -18 -13.5t-28.5 -9t-42.5 -5.5t-60 -2q-59 0 -89 6.5t-47 20.5q-16 13 -31 39t-27 65l-116 374q-7 22 -14.5 30t-19.5 8q-14 0 -18 -5.5t-4 -19.5v-435q0 -25 -6 -39.5t-18 -22.5t-30.5 -10.5t-44.5 -2.5h-43q-18 0 -18 20v497
q0 63 8 93t25 46q16 14 48.5 21t89.5 7q52 0 82.5 -6.5t50.5 -20.5q36 -27 67 -125l113 -358q7 -22 14 -29.5t20 -7.5t16.5 9.5t3.5 25.5v431q0 21 3.5 35t13 22.5t27.5 12t48 3.5h52q19 0 19 -19v-521zM495 741q-17 0 -43 16l-33 22q-11 8 -20 11.5t-19 3.5t-18 -3t-23 -13
l-42 -31q-7 -5 -11.5 -2.5t-4.5 10.5v42q0 26 7 42t34 34l27 17q22 14 42 14q9 0 20 -3t25 -12l27 -19q19 -15 39 -15q11 0 20.5 4.5t22.5 13.5l36 26q6 4 11.5 2t5.5 -9v-43q0 -29 -9 -45t-29 -31l-24 -16q-22 -16 -41 -16z" />
    <glyph glyph-name="Ograve" unicode="&#xd2;" horiz-adv-x="756" 
d="M712 343q0 -115 -27 -187.5t-69 -105.5q-41 -32 -107.5 -47t-138.5 -15q-51 0 -90 5.5t-68.5 15t-51 22t-36.5 27.5q-35 32 -57.5 99t-22.5 181q0 109 29 182.5t69 107.5q32 26 93 45t152 19q97 0 155 -17.5t89 -46.5q33 -30 57 -102t24 -183zM530 343q0 69 -11 110
t-28 59q-17 14 -47.5 20.5t-62.5 6.5q-43 0 -70.5 -9t-41.5 -21q-16 -16 -30.5 -58.5t-14.5 -111.5q0 -66 12 -108t29 -59q15 -15 43.5 -23t63.5 -8q44 0 73 8t42 19q16 15 29.5 58t13.5 117zM313 788q-34 12 -47.5 29.5t-13.5 48.5v57q0 8 5 10.5t13 0.5l147 -51
q34 -11 47 -28t13 -47v-60q0 -8 -4.5 -12t-13.5 0z" />
    <glyph glyph-name="Oacute" unicode="&#xd3;" horiz-adv-x="756" 
d="M712 343q0 -115 -27 -187.5t-69 -105.5q-41 -32 -107.5 -47t-138.5 -15q-51 0 -90 5.5t-68.5 15t-51 22t-36.5 27.5q-35 32 -57.5 99t-22.5 181q0 109 29 182.5t69 107.5q32 26 93 45t152 19q97 0 155 -17.5t89 -46.5q33 -30 57 -102t24 -183zM530 343q0 69 -11 110
t-28 59q-17 14 -47.5 20.5t-62.5 6.5q-43 0 -70.5 -9t-41.5 -21q-16 -16 -30.5 -58.5t-14.5 -111.5q0 -66 12 -108t29 -59q15 -15 43.5 -23t63.5 -8q44 0 73 8t42 19q16 15 29.5 58t13.5 117zM292 736q-9 -4 -13.5 0t-4.5 12v60q0 30 12.5 47t47.5 28l147 51q8 2 13 -0.5
t5 -10.5v-57q0 -31 -13 -48t-47 -30z" />
    <glyph glyph-name="Ocircumflex" unicode="&#xd4;" horiz-adv-x="756" 
d="M712 343q0 -115 -27 -187.5t-69 -105.5q-41 -32 -107.5 -47t-138.5 -15q-51 0 -90 5.5t-68.5 15t-51 22t-36.5 27.5q-35 32 -57.5 99t-22.5 181q0 109 29 182.5t69 107.5q32 26 93 45t152 19q97 0 155 -17.5t89 -46.5q33 -30 57 -102t24 -183zM530 343q0 69 -11 110
t-28 59q-17 14 -47.5 20.5t-62.5 6.5q-43 0 -70.5 -9t-41.5 -21q-16 -16 -30.5 -58.5t-14.5 -111.5q0 -66 12 -108t29 -59q15 -15 43.5 -23t63.5 -8q44 0 73 8t42 19q16 15 29.5 58t13.5 117zM379 941q14 0 37 -16l71 -41q14 -9 23 -17.5t14.5 -19t8 -24t2.5 -32.5v-42
q0 -8 -6 -11t-13 2l-102 65q-11 7 -19.5 12t-16.5 5t-16.5 -4t-22.5 -14l-99 -65q-6 -5 -12 -2.5t-6 10.5v49q0 36 12.5 54t38.5 36l66 37q12 8 21.5 13t18.5 5z" />
    <glyph glyph-name="Otilde" unicode="&#xd5;" horiz-adv-x="756" 
d="M712 343q0 -115 -27 -187.5t-69 -105.5q-41 -32 -107.5 -47t-138.5 -15q-51 0 -90 5.5t-68.5 15t-51 22t-36.5 27.5q-35 32 -57.5 99t-22.5 181q0 109 29 182.5t69 107.5q32 26 93 45t152 19q97 0 155 -17.5t89 -46.5q33 -30 57 -102t24 -183zM530 343q0 69 -11 110
t-28 59q-17 14 -47.5 20.5t-62.5 6.5q-43 0 -70.5 -9t-41.5 -21q-16 -16 -30.5 -58.5t-14.5 -111.5q0 -66 12 -108t29 -59q15 -15 43.5 -23t63.5 -8q44 0 73 8t42 19q16 15 29.5 58t13.5 117zM440 741q-17 0 -43 16l-33 22q-11 8 -20 11.5t-19 3.5t-18 -3t-23 -13l-42 -31
q-7 -5 -11.5 -2.5t-4.5 10.5v42q0 26 7 42t34 34l27 17q22 14 42 14q9 0 20 -3t25 -12l27 -19q19 -15 39 -15q11 0 20.5 4.5t22.5 13.5l36 26q6 4 11.5 2t5.5 -9v-43q0 -29 -9 -45t-29 -31l-24 -16q-22 -16 -41 -16z" />
    <glyph glyph-name="Odieresis" unicode="&#xd6;" horiz-adv-x="756" 
d="M712 343q0 -115 -27 -187.5t-69 -105.5q-41 -32 -107.5 -47t-138.5 -15q-51 0 -90 5.5t-68.5 15t-51 22t-36.5 27.5q-35 32 -57.5 99t-22.5 181q0 109 29 182.5t69 107.5q32 26 93 45t152 19q97 0 155 -17.5t89 -46.5q33 -30 57 -102t24 -183zM530 343q0 69 -11 110
t-28 59q-17 14 -47.5 20.5t-62.5 6.5q-43 0 -70.5 -9t-41.5 -21q-16 -16 -30.5 -58.5t-14.5 -111.5q0 -66 12 -108t29 -59q15 -15 43.5 -23t63.5 -8q44 0 73 8t42 19q16 15 29.5 58t13.5 117zM570 818q0 -46 -19 -62q-11 -8 -30.5 -11t-32.5 -3q-24 0 -38.5 4.5t-22.5 9.5
q-8 8 -12.5 21.5t-4.5 35.5q0 23 5 39t15 24q8 5 25 9t39 4q46 0 60 -12q16 -15 16 -59zM341 818q0 -22 -5.5 -39t-13.5 -24q-5 -4 -13 -6.5t-17 -4t-17 -2t-14 -0.5q-25 0 -40 4.5t-23 9.5q-15 15 -15 57q0 23 4 39t14 24q8 5 25.5 9t38.5 4q47 0 62 -12q8 -7 11 -22.5
t3 -36.5z" />
    <glyph glyph-name="multiply" unicode="&#xd7;" horiz-adv-x="566" 
d="M55 477q-6 6 -1 14l73 69q8 9 18.5 11t21.5 -10l98 -111q11 -14 20 -14t23 17l95 107q11 14 19.5 14.5t20.5 -13.5l73 -70q5 -7 -1 -15l-115 -130q-9 -11 -9.5 -17t7.5 -16l117 -131q6 -7 2 -15l-71 -68q-11 -13 -21.5 -13.5t-26.5 15.5l-92 107q-14 14 -21 13.5
t-20 -14.5l-98 -111q-12 -13 -20 -12.5t-18 12.5l-73 71q-5 5 -4 7.5t3 4.5l115 132q12 13 10.5 19.5t-13.5 18.5l-112 128v0z" />
    <glyph glyph-name="Oslash" unicode="&#xd8;" horiz-adv-x="756" 
d="M367 546q-42 0 -69 -9.5t-38 -19.5q-23 -19 -37 -63t-15 -99q0 -47 8.5 -77t17.5 -48q15 -20 26 -3l127 259q3 4 5.5 11.5l5 15t4 13.5t1.5 9q0 5 -8 8t-28 3zM383 134q36 0 69.5 7.5t48.5 21.5q16 17 30.5 60.5t14.5 114.5q0 33 -6 67t-24 57q-6 6 -11 7t-11 -8
l-139 -296q-6 -15 -6 -22q0 -5 7 -7t27 -2zM618 638q24 -17 41.5 -46t29 -67t17.5 -84t6 -97q0 -116 -28 -189t-68 -105t-105.5 -47t-144.5 -15q-19 0 -38 0.5t-31 2.5q-9 0 -15 -3t-15 -23q-17 -31 -39.5 -41t-57.5 -10h-46q-5 0 -8 4t1 10l34 64q3 8 5.5 16t2.5 15
q0 8 -7.5 14.5t-16.5 13.5q-44 35 -67.5 104.5t-23.5 183.5q0 102 28 178t70 111q35 29 94.5 46.5t150.5 17.5q23 0 39 -0.5t26 -1.5q8 0 15.5 3.5t17.5 25.5q18 35 37 46t48 11h50q6 0 10 -4t0 -12l-33 -68q-4 -9 -6.5 -15t-2.5 -10q0 -10 8 -14.5t22 -14.5z" />
    <glyph glyph-name="Ugrave" unicode="&#xd9;" horiz-adv-x="755" 
d="M685 277q0 -47 -3 -81.5t-10 -60t-18 -44.5t-27 -34q-26 -26 -88 -46.5t-166 -20.5q-103 0 -165.5 20.5t-91.5 53.5q-13 14 -22 31t-14.5 41t-8 55.5t-2.5 73.5v392q0 11 5.5 15t13.5 4h78q29 0 46.5 -2.5t26.5 -12t11.5 -30t2.5 -56.5v-300q0 -45 4.5 -68t17.5 -37
q11 -11 37 -18.5t63 -7.5q39 0 65 6.5t40 18.5q12 12 18 35t6 71v301q0 35 3 55t12 30t26 12.5t46 2.5h73q21 0 21 -19v-380zM313 788q-34 12 -47.5 29.5t-13.5 48.5v57q0 8 5 10.5t13 0.5l147 -51q34 -11 47 -28t13 -47v-60q0 -8 -4.5 -12t-13.5 0z" />
    <glyph glyph-name="Uacute" unicode="&#xda;" horiz-adv-x="755" 
d="M685 277q0 -47 -3 -81.5t-10 -60t-18 -44.5t-27 -34q-26 -26 -88 -46.5t-166 -20.5q-103 0 -165.5 20.5t-91.5 53.5q-13 14 -22 31t-14.5 41t-8 55.5t-2.5 73.5v392q0 11 5.5 15t13.5 4h78q29 0 46.5 -2.5t26.5 -12t11.5 -30t2.5 -56.5v-300q0 -45 4.5 -68t17.5 -37
q11 -11 37 -18.5t63 -7.5q39 0 65 6.5t40 18.5q12 12 18 35t6 71v301q0 35 3 55t12 30t26 12.5t46 2.5h73q21 0 21 -19v-380zM288 736q-9 -4 -13.5 0t-4.5 12v60q0 30 12.5 47t47.5 28l147 51q8 2 13 -0.5t5 -10.5v-57q0 -31 -13 -48t-47 -30z" />
    <glyph glyph-name="Ucircumflex" unicode="&#xdb;" horiz-adv-x="755" 
d="M685 277q0 -47 -3 -81.5t-10 -60t-18 -44.5t-27 -34q-26 -26 -88 -46.5t-166 -20.5q-103 0 -165.5 20.5t-91.5 53.5q-13 14 -22 31t-14.5 41t-8 55.5t-2.5 73.5v392q0 11 5.5 15t13.5 4h78q29 0 46.5 -2.5t26.5 -12t11.5 -30t2.5 -56.5v-300q0 -45 4.5 -68t17.5 -37
q11 -11 37 -18.5t63 -7.5q39 0 65 6.5t40 18.5q12 12 18 35t6 71v301q0 35 3 55t12 30t26 12.5t46 2.5h73q21 0 21 -19v-380zM382 941q14 0 37 -16l71 -41q14 -9 23 -17.5t14.5 -19t8 -24t2.5 -32.5v-42q0 -8 -6 -11t-13 2l-102 65q-11 7 -19.5 12t-16.5 5t-16.5 -4
t-22.5 -14l-99 -65q-6 -5 -12 -2.5t-6 10.5v49q0 36 12.5 54t38.5 36l66 37q12 8 21.5 13t18.5 5z" />
    <glyph glyph-name="Udieresis" unicode="&#xdc;" horiz-adv-x="755" 
d="M685 277q0 -47 -3 -81.5t-10 -60t-18 -44.5t-27 -34q-26 -26 -88 -46.5t-166 -20.5q-103 0 -165.5 20.5t-91.5 53.5q-13 14 -22 31t-14.5 41t-8 55.5t-2.5 73.5v392q0 11 5.5 15t13.5 4h78q29 0 46.5 -2.5t26.5 -12t11.5 -30t2.5 -56.5v-300q0 -45 4.5 -68t17.5 -37
q11 -11 37 -18.5t63 -7.5q39 0 65 6.5t40 18.5q12 12 18 35t6 71v301q0 35 3 55t12 30t26 12.5t46 2.5h73q21 0 21 -19v-380zM574 818q0 -46 -19 -62q-11 -8 -30.5 -11t-32.5 -3q-24 0 -38.5 4.5t-22.5 9.5q-8 8 -12.5 21.5t-4.5 35.5q0 23 5 39t15 24q8 5 25 9t39 4
q46 0 60 -12q16 -15 16 -59zM345 818q0 -22 -5.5 -39t-13.5 -24q-5 -4 -13 -6.5t-17 -4t-17 -2t-14 -0.5q-25 0 -40 4.5t-23 9.5q-15 15 -15 57q0 23 4 39t14 24q8 5 25.5 9t38.5 4q47 0 62 -12q8 -7 11 -22.5t3 -36.5z" />
    <glyph glyph-name="Yacute" unicode="&#xdd;" horiz-adv-x="673" 
d="M451 267q-8 -15 -13.5 -27t-8.5 -24.5t-4 -26.5t-1 -33v-124q0 -16 -6 -24t-25 -8h-135q-16 0 -16 19v131q0 19 -0.5 33.5t-3 28t-7.5 26.5t-14 30l-221 380q-6 11 -0.5 19.5t17.5 8.5h64q56 0 90 -18.5t57 -62.5l83 -152q8 -14 15.5 -26t15.5 -12t14.5 9.5t16.5 25.5
l83 148q13 23 27 40t31 27.5t38.5 15.5t49.5 5h65q11 0 16 -7t0 -18zM266 736q-9 -4 -13.5 0t-4.5 12v60q0 30 12.5 47t47.5 28l147 51q8 2 13 -0.5t5 -10.5v-57q0 -31 -13 -48t-47 -30z" />
    <glyph glyph-name="Thorn" unicode="&#xde;" 
d="M454 352q0 33 -6 50.5t-18 25.5q-10 7 -29 9.5t-60 2.5q-25 0 -44.5 -0.5t-33.5 -1.5q-17 -2 -17 -18v-138q0 -13 6 -18.5t21 -5.5h68q32 0 49 0.5t28 6.5q14 8 25 28t11 59zM635 367q0 -74 -21 -126.5t-52 -75.5q-14 -11 -31.5 -19t-40 -13t-51.5 -7t-67 -2h-98
q-15 0 -21.5 -5t-6.5 -19v-65q0 -19 -7.5 -27t-29.5 -8h-124q-11 0 -13.5 5.5t-2.5 12.5v638q0 20 21 20h132q15 0 19.5 -6.5t4.5 -24.5v-43q0 -16 5.5 -21.5t14.5 -5.5q14 0 36 0.5t61 0.5q87 0 134 -7.5t74 -26.5q26 -17 45 -57.5t19 -117.5z" />
    <glyph glyph-name="germandbls" unicode="&#xdf;" horiz-adv-x="691" 
d="M571 460q-8 -8 -24 -15.5t-33.5 -14t-32 -12.5t-20.5 -10q-10 -6 -10 -32q0 -8 2 -15.5t7 -11.5t28.5 -10.5t52 -14t55.5 -16t38 -17.5q14 -12 21 -36.5t7 -68.5q0 -58 -14.5 -98.5t-34.5 -57.5q-19 -17 -58.5 -27.5t-105.5 -10.5q-104 0 -134 21q-7 6 -14 18.5t-12.5 27
t-9 29t-3.5 23.5q0 21 14 19q22 -4 49 -6.5t57 -2.5q65 0 79 10q16 13 16 38q0 11 -2.5 16.5t-5.5 8.5q-8 6 -32 12.5t-52.5 14t-54 15.5t-34.5 16q-11 11 -19 37t-8 80q0 76 34 110q6 6 19.5 12t28 12.5t27.5 12t17 9.5q7 6 9.5 14t2.5 25q0 24 -11 33q-5 6 -23.5 9
t-42.5 3q-28 0 -49 -3.5t-30 -12.5q-19 -19 -19 -66v-508q0 -19 -17 -19h-141q-15 0 -15 20v479q0 40 3 69.5t8.5 51t14 36.5t19.5 27q12 12 30 23.5t46 20.5t67.5 14.5t93.5 5.5q81 0 134.5 -12t73.5 -32q18 -17 29.5 -44t11.5 -82q0 -42 -9.5 -72.5t-23.5 -44.5z" />
    <glyph glyph-name="agrave" unicode="&#xe0;" horiz-adv-x="615" 
d="M554 25q0 -16 -16 -18q-42 -6 -102 -10t-126 -4q-52 0 -90 3t-65 8.5t-45 13.5t-28 17q-14 15 -25 45t-11 77q0 45 11 78.5t28 47.5q10 7 36.5 12t64.5 9.5t84.5 8.5t96.5 7q15 1 15 17q0 34 -16 47q-8 8 -29.5 10.5t-63.5 2.5q-57 0 -107.5 -3t-77.5 -8q-7 0 -12.5 4.5
t-4.5 12.5q1 13 5.5 27.5t11.5 27.5t15 24t16 17q20 15 70.5 23t126.5 8q79 0 125.5 -9t67.5 -29q11 -10 19.5 -24t14 -35.5t8.5 -53.5t3 -78v-276zM380 202q0 11 -4.5 13.5t-12.5 2.5q-18 0 -39.5 -1t-41 -3t-34.5 -4t-19 -5q-11 -10 -11 -39t13 -39q8 -6 25.5 -10t47.5 -4
q23 0 42.5 2.5t23.5 5.5q5 5 7.5 10t2.5 22v49zM249 634q-34 12 -47.5 29.5t-13.5 48.5v57q0 8 5 10.5t13 0.5l147 -51q34 -11 47 -28t13 -47v-60q0 -8 -4.5 -12t-13.5 0z" />
    <glyph glyph-name="aacute" unicode="&#xe1;" horiz-adv-x="615" 
d="M554 25q0 -16 -16 -18q-42 -6 -102 -10t-126 -4q-52 0 -90 3t-65 8.5t-45 13.5t-28 17q-14 15 -25 45t-11 77q0 45 11 78.5t28 47.5q10 7 36.5 12t64.5 9.5t84.5 8.5t96.5 7q15 1 15 17q0 34 -16 47q-8 8 -29.5 10.5t-63.5 2.5q-57 0 -107.5 -3t-77.5 -8q-7 0 -12.5 4.5
t-4.5 12.5q1 13 5.5 27.5t11.5 27.5t15 24t16 17q20 15 70.5 23t126.5 8q79 0 125.5 -9t67.5 -29q11 -10 19.5 -24t14 -35.5t8.5 -53.5t3 -78v-276zM380 202q0 11 -4.5 13.5t-12.5 2.5q-18 0 -39.5 -1t-41 -3t-34.5 -4t-19 -5q-11 -10 -11 -39t13 -39q8 -6 25.5 -10t47.5 -4
q23 0 42.5 2.5t23.5 5.5q5 5 7.5 10t2.5 22v49zM231 582q-9 -4 -13.5 0t-4.5 12v60q0 30 12.5 47t47.5 28l147 51q8 2 13 -0.5t5 -10.5v-57q0 -31 -13 -48t-47 -30z" />
    <glyph glyph-name="acircumflex" unicode="&#xe2;" horiz-adv-x="615" 
d="M554 25q0 -16 -16 -18q-42 -6 -102 -10t-126 -4q-52 0 -90 3t-65 8.5t-45 13.5t-28 17q-14 15 -25 45t-11 77q0 45 11 78.5t28 47.5q10 7 36.5 12t64.5 9.5t84.5 8.5t96.5 7q15 1 15 17q0 34 -16 47q-8 8 -29.5 10.5t-63.5 2.5q-57 0 -107.5 -3t-77.5 -8q-7 0 -12.5 4.5
t-4.5 12.5q1 13 5.5 27.5t11.5 27.5t15 24t16 17q20 15 70.5 23t126.5 8q79 0 125.5 -9t67.5 -29q11 -10 19.5 -24t14 -35.5t8.5 -53.5t3 -78v-276zM380 202q0 11 -4.5 13.5t-12.5 2.5q-18 0 -39.5 -1t-41 -3t-34.5 -4t-19 -5q-11 -10 -11 -39t13 -39q8 -6 25.5 -10t47.5 -4
q23 0 42.5 2.5t23.5 5.5q5 5 7.5 10t2.5 22v49zM311 787q14 0 37 -16l71 -41q14 -9 23 -17.5t14.5 -19t8 -24t2.5 -32.5v-42q0 -8 -6 -11t-13 2l-102 65q-11 7 -19.5 12t-16.5 5t-16.5 -4t-22.5 -14l-99 -65q-6 -5 -12 -2.5t-6 10.5v49q0 36 12.5 54t38.5 36l66 37
q12 8 21.5 13t18.5 5z" />
    <glyph glyph-name="atilde" unicode="&#xe3;" horiz-adv-x="615" 
d="M554 25q0 -16 -16 -18q-42 -6 -102 -10t-126 -4q-52 0 -90 3t-65 8.5t-45 13.5t-28 17q-14 15 -25 45t-11 77q0 45 11 78.5t28 47.5q10 7 36.5 12t64.5 9.5t84.5 8.5t96.5 7q15 1 15 17q0 34 -16 47q-8 8 -29.5 10.5t-63.5 2.5q-57 0 -107.5 -3t-77.5 -8q-7 0 -12.5 4.5
t-4.5 12.5q1 13 5.5 27.5t11.5 27.5t15 24t16 17q20 15 70.5 23t126.5 8q79 0 125.5 -9t67.5 -29q11 -10 19.5 -24t14 -35.5t8.5 -53.5t3 -78v-276zM380 202q0 11 -4.5 13.5t-12.5 2.5q-18 0 -39.5 -1t-41 -3t-34.5 -4t-19 -5q-11 -10 -11 -39t13 -39q8 -6 25.5 -10t47.5 -4
q23 0 42.5 2.5t23.5 5.5q5 5 7.5 10t2.5 22v49zM366 587q-17 0 -43 16l-33 22q-11 8 -20 11.5t-19 3.5t-18 -3t-23 -13l-42 -31q-7 -5 -11.5 -2.5t-4.5 10.5v42q0 26 7 42t34 34l27 17q22 14 42 14q9 0 20 -3t25 -12l27 -19q19 -15 39 -15q11 0 20.5 4.5t22.5 13.5l36 26
q6 4 11.5 2t5.5 -9v-43q0 -29 -9 -45t-29 -31l-24 -16q-22 -16 -41 -16z" />
    <glyph glyph-name="adieresis" unicode="&#xe4;" horiz-adv-x="615" 
d="M554 25q0 -16 -16 -18q-42 -6 -102 -10t-126 -4q-52 0 -90 3t-65 8.5t-45 13.5t-28 17q-14 15 -25 45t-11 77q0 45 11 78.5t28 47.5q10 7 36.5 12t64.5 9.5t84.5 8.5t96.5 7q15 1 15 17q0 34 -16 47q-8 8 -29.5 10.5t-63.5 2.5q-57 0 -107.5 -3t-77.5 -8q-7 0 -12.5 4.5
t-4.5 12.5q1 13 5.5 27.5t11.5 27.5t15 24t16 17q20 15 70.5 23t126.5 8q79 0 125.5 -9t67.5 -29q11 -10 19.5 -24t14 -35.5t8.5 -53.5t3 -78v-276zM380 202q0 11 -4.5 13.5t-12.5 2.5q-18 0 -39.5 -1t-41 -3t-34.5 -4t-19 -5q-11 -10 -11 -39t13 -39q8 -6 25.5 -10t47.5 -4
q23 0 42.5 2.5t23.5 5.5q5 5 7.5 10t2.5 22v49zM502 664q0 -46 -19 -62q-11 -8 -30.5 -11t-32.5 -3q-24 0 -38.5 4.5t-22.5 9.5q-8 8 -12.5 21.5t-4.5 35.5q0 23 5 39t15 24q8 5 25 9t39 4q46 0 60 -12q16 -15 16 -59zM273 664q0 -22 -5.5 -39t-13.5 -24q-5 -4 -13 -6.5
t-17 -4t-17 -2t-14 -0.5q-25 0 -40 4.5t-23 9.5q-15 15 -15 57q0 23 4 39t14 24q8 5 25.5 9t38.5 4q47 0 62 -12q8 -7 11 -22.5t3 -36.5z" />
    <glyph glyph-name="aring" unicode="&#xe5;" horiz-adv-x="615" 
d="M554 25q0 -16 -16 -18q-42 -6 -102 -10t-126 -4q-52 0 -90 3t-65 8.5t-45 13.5t-28 17q-14 15 -25 45t-11 77q0 45 11 78.5t28 47.5q10 7 36.5 12t64.5 9.5t84.5 8.5t96.5 7q15 1 15 17q0 34 -16 47q-8 8 -29.5 10.5t-63.5 2.5q-57 0 -107.5 -3t-77.5 -8q-7 0 -12.5 4.5
t-4.5 12.5q1 13 5.5 27.5t11.5 27.5t15 24t16 17q20 15 70.5 23t126.5 8q79 0 125.5 -9t67.5 -29q11 -10 19.5 -24t14 -35.5t8.5 -53.5t3 -78v-276zM380 202q0 11 -4.5 13.5t-12.5 2.5q-18 0 -39.5 -1t-41 -3t-34.5 -4t-19 -5q-11 -10 -11 -39t13 -39q8 -6 25.5 -10t47.5 -4
q23 0 42.5 2.5t23.5 5.5q5 5 7.5 10t2.5 22v49zM183 700q0 53 30.5 85t103.5 32q37 0 62.5 -8.5t41.5 -24t23 -37t7 -47.5q0 -53 -30.5 -85.5t-103.5 -32.5q-37 0 -62.5 8.5t-41.5 24t-23 37.5t-7 48zM266 698q0 -17 11.5 -27t39.5 -10t39.5 10t11.5 27q0 19 -11.5 30
t-39.5 11t-39.5 -11t-11.5 -30z" />
    <glyph glyph-name="ae" unicode="&#xe6;" horiz-adv-x="936" 
d="M378 205q0 11 -5 12t-13 1q-15 0 -36 -1t-41 -3t-35 -4.5t-19 -4.5q-5 -4 -8.5 -13t-3.5 -26q0 -30 14 -39q17 -14 70 -14q27 0 44.5 4t20.5 6q6 5 9 10.5t3 21.5v50zM468 9q-19 0 -64 -7.5t-118 -7.5q-83 0 -132 10.5t-72 30.5q-15 16 -25.5 46.5t-10.5 75.5q0 44 11 78
t28 48q9 7 35 12.5t64 10t84 8t96 6.5q14 1 14 14q0 22 -1 33.5t-8 18.5q-8 7 -33.5 9.5t-63.5 2.5q-25 0 -51 -1t-50.5 -2.5t-46.5 -3.5t-38 -4q-6 -1 -11 3.5t-4 11.5q2 12 6.5 26.5t11 28t14.5 24.5t16 17q43 32 191 32q51 0 86.5 -3.5t55.5 -7.5q14 -3 20 -4t13 -1
q6 0 12.5 0.5t16.5 2.5q25 6 63 10t80 4q132 0 183 -47q12 -11 23.5 -29.5t20 -47t13.5 -68.5t5 -94q0 -12 -5.5 -19.5t-15.5 -7.5h-301q-21 0 -26.5 -3.5t-5.5 -9.5q0 -29 2.5 -42t10.5 -20q9 -8 44.5 -12t89.5 -4q53 0 101 3t74 5q7 1 12 -3.5t4 -11.5q-1 -12 -6 -26.5
t-12.5 -28.5t-17 -26t-18.5 -18q-17 -13 -63 -21t-124 -8q-74 0 -119.5 8.5t-57.5 8.5zM641 410q-24 0 -47 -3t-33 -12q-4 -3 -6.5 -13t-3.5 -21t-1.5 -19.5t-0.5 -9.5q0 -8 3.5 -10t22.5 -2h107h24.5t14.5 2q2 3 3 5.5t1 7.5q0 14 -5 33t-15 28q-9 7 -24 10.5t-40 3.5z" />
    <glyph glyph-name="ccedilla" unicode="&#xe7;" horiz-adv-x="530" 
d="M472 509q17 -12 28.5 -40t12.5 -56q1 -12 -6 -18t-15 -4q-24 3 -57 5.5t-68 2.5q-92 0 -118 -26q-14 -13 -23 -40.5t-9 -68.5q0 -48 8 -71.5t23 -37.5t42.5 -19t65.5 -5q51 0 82 3t56 5q8 1 14 -3.5t6 -14.5q0 -13 -4.5 -28t-11.5 -29.5t-16 -26.5t-18 -19
q-17 -12 -56.5 -19t-99.5 -7q-41 0 -71.5 3t-54 9.5t-41 15.5t-31.5 21q-31 26 -49.5 77.5t-18.5 137.5q0 89 22 144t57 83q30 25 81 37.5t118 12.5q57 0 96.5 -5.5t55.5 -18.5zM208 -37q14 0 35 0.5t48 0.5q39 0 61 -4.5t34 -13.5q10 -8 17 -27t7 -46q0 -29 -7.5 -53
t-20.5 -38q-25 -25 -108 -25q-75 0 -98 17q-5 4 -10 12t-8.5 17t-6 17.5t-2.5 14.5q0 13 11 11q15 -2 35.5 -5t51.5 -3q51 0 60 9q6 5 6 19q0 5 -1 10.5t-5 7.5q-3 3 -10.5 4t-24.5 1q-20 0 -30.5 1.5t-16.5 6.5q-8 6 -15.5 24t-9.5 32q-2 4 0.5 7t7.5 3z" />
    <glyph glyph-name="egrave" unicode="&#xe8;" horiz-adv-x="606" 
d="M41 254q0 92 22.5 146.5t57.5 81.5q29 23 80 36t121 13q75 0 120 -12t70 -35q12 -11 23 -28.5t19.5 -45.5t13.5 -68t5 -97q0 -14 -3.5 -20.5t-17.5 -6.5h-301q-18 0 -23.5 -4t-5.5 -13q0 -32 21 -53q13 -11 43 -16t84 -5t98 3.5t72 6.5q8 0 13 -4.5t5 -12.5
q-2 -14 -7 -28.5t-12.5 -28t-16.5 -24.5t-19 -17q-16 -11 -61.5 -20.5t-119.5 -9.5q-79 0 -131.5 13.5t-80.5 37.5q-32 26 -50.5 76t-18.5 135zM313 410q-48 0 -67 -19q-13 -11 -18 -29t-5 -29q0 -8 4 -10.5t19 -2.5h106h26.5t12.5 3q5 5 5 12q0 18 -5 35t-15 25
q-9 7 -23.5 11t-39.5 4zM251 634q-34 12 -47.5 29.5t-13.5 48.5v57q0 8 5 10.5t13 0.5l147 -51q34 -11 47 -28t13 -47v-60q0 -8 -4.5 -12t-13.5 0z" />
    <glyph glyph-name="eacute" unicode="&#xe9;" horiz-adv-x="606" 
d="M41 254q0 92 22.5 146.5t57.5 81.5q29 23 80 36t121 13q75 0 120 -12t70 -35q12 -11 23 -28.5t19.5 -45.5t13.5 -68t5 -97q0 -14 -3.5 -20.5t-17.5 -6.5h-301q-18 0 -23.5 -4t-5.5 -13q0 -32 21 -53q13 -11 43 -16t84 -5t98 3.5t72 6.5q8 0 13 -4.5t5 -12.5
q-2 -14 -7 -28.5t-12.5 -28t-16.5 -24.5t-19 -17q-16 -11 -61.5 -20.5t-119.5 -9.5q-79 0 -131.5 13.5t-80.5 37.5q-32 26 -50.5 76t-18.5 135zM313 410q-48 0 -67 -19q-13 -11 -18 -29t-5 -29q0 -8 4 -10.5t19 -2.5h106h26.5t12.5 3q5 5 5 12q0 18 -5 35t-15 25
q-9 7 -23.5 11t-39.5 4zM236 582q-9 -4 -13.5 0t-4.5 12v60q0 30 12.5 47t47.5 28l147 51q8 2 13 -0.5t5 -10.5v-57q0 -31 -13 -48t-47 -30z" />
    <glyph glyph-name="ecircumflex" unicode="&#xea;" horiz-adv-x="606" 
d="M41 254q0 92 22.5 146.5t57.5 81.5q29 23 80 36t121 13q75 0 120 -12t70 -35q12 -11 23 -28.5t19.5 -45.5t13.5 -68t5 -97q0 -14 -3.5 -20.5t-17.5 -6.5h-301q-18 0 -23.5 -4t-5.5 -13q0 -32 21 -53q13 -11 43 -16t84 -5t98 3.5t72 6.5q8 0 13 -4.5t5 -12.5
q-2 -14 -7 -28.5t-12.5 -28t-16.5 -24.5t-19 -17q-16 -11 -61.5 -20.5t-119.5 -9.5q-79 0 -131.5 13.5t-80.5 37.5q-32 26 -50.5 76t-18.5 135zM313 410q-48 0 -67 -19q-13 -11 -18 -29t-5 -29q0 -8 4 -10.5t19 -2.5h106h26.5t12.5 3q5 5 5 12q0 18 -5 35t-15 25
q-9 7 -23.5 11t-39.5 4zM316 787q14 0 37 -16l71 -41q14 -9 23 -17.5t14.5 -19t8 -24t2.5 -32.5v-42q0 -8 -6 -11t-13 2l-102 65q-11 7 -19.5 12t-16.5 5t-16.5 -4t-22.5 -14l-99 -65q-6 -5 -12 -2.5t-6 10.5v49q0 36 12.5 54t38.5 36l66 37q12 8 21.5 13t18.5 5z" />
    <glyph glyph-name="edieresis" unicode="&#xeb;" horiz-adv-x="606" 
d="M41 254q0 92 22.5 146.5t57.5 81.5q29 23 80 36t121 13q75 0 120 -12t70 -35q12 -11 23 -28.5t19.5 -45.5t13.5 -68t5 -97q0 -14 -3.5 -20.5t-17.5 -6.5h-301q-18 0 -23.5 -4t-5.5 -13q0 -32 21 -53q13 -11 43 -16t84 -5t98 3.5t72 6.5q8 0 13 -4.5t5 -12.5
q-2 -14 -7 -28.5t-12.5 -28t-16.5 -24.5t-19 -17q-16 -11 -61.5 -20.5t-119.5 -9.5q-79 0 -131.5 13.5t-80.5 37.5q-32 26 -50.5 76t-18.5 135zM313 410q-48 0 -67 -19q-13 -11 -18 -29t-5 -29q0 -8 4 -10.5t19 -2.5h106h26.5t12.5 3q5 5 5 12q0 18 -5 35t-15 25
q-9 7 -23.5 11t-39.5 4zM507 664q0 -46 -19 -62q-11 -8 -30.5 -11t-32.5 -3q-24 0 -38.5 4.5t-22.5 9.5q-8 8 -12.5 21.5t-4.5 35.5q0 23 5 39t15 24q8 5 25 9t39 4q46 0 60 -12q16 -15 16 -59zM278 664q0 -22 -5.5 -39t-13.5 -24q-5 -4 -13 -6.5t-17 -4t-17 -2t-14 -0.5
q-25 0 -40 4.5t-23 9.5q-15 15 -15 57q0 23 4 39t14 24q8 5 25.5 9t38.5 4q47 0 62 -12q8 -7 11 -22.5t3 -36.5z" />
    <glyph glyph-name="igrave" unicode="&#xec;" horiz-adv-x="304" 
d="M240 19q0 -19 -20 -19h-141q-10 0 -12.5 5t-2.5 15v484q0 18 20 18h140q11 0 13.5 -4.5t2.5 -14.5v-484zM86 634q-34 12 -47.5 29.5t-13.5 48.5v57q0 8 5 10.5t13 0.5l147 -51q34 -11 47 -28t13 -47v-60q0 -8 -4.5 -12t-13.5 0z" />
    <glyph glyph-name="iacute" unicode="&#xed;" horiz-adv-x="304" 
d="M240 19q0 -19 -20 -19h-141q-10 0 -12.5 5t-2.5 15v484q0 18 20 18h140q11 0 13.5 -4.5t2.5 -14.5v-484zM77 582q-9 -4 -13.5 0t-4.5 12v60q0 30 12.5 47t47.5 28l147 51q8 2 13 -0.5t5 -10.5v-57q0 -31 -13 -48t-47 -30z" />
    <glyph glyph-name="icircumflex" unicode="&#xee;" horiz-adv-x="304" 
d="M240 19q0 -19 -20 -19h-141q-10 0 -12.5 5t-2.5 15v484q0 18 20 18h140q11 0 13.5 -4.5t2.5 -14.5v-484zM154 787q14 0 37 -16l71 -41q14 -9 23 -17.5t14.5 -19t8 -24t2.5 -32.5v-42q0 -8 -6 -11t-13 2l-102 65q-11 7 -19.5 12t-16.5 5t-16.5 -4t-22.5 -14l-99 -65
q-6 -5 -12 -2.5t-6 10.5v49q0 36 12.5 54t38.5 36l66 37q12 8 21.5 13t18.5 5z" />
    <glyph glyph-name="idieresis" unicode="&#xef;" horiz-adv-x="304" 
d="M240 19q0 -19 -20 -19h-141q-10 0 -12.5 5t-2.5 15v484q0 18 20 18h140q11 0 13.5 -4.5t2.5 -14.5v-484zM348 664q0 -46 -19 -62q-11 -8 -30.5 -11t-32.5 -3q-24 0 -38.5 4.5t-22.5 9.5q-8 8 -12.5 21.5t-4.5 35.5q0 23 5 39t15 24q8 5 25 9t39 4q46 0 60 -12
q16 -15 16 -59zM119 664q0 -22 -5.5 -39t-13.5 -24q-5 -4 -13 -6.5t-17 -4t-17 -2t-14 -0.5q-25 0 -40 4.5t-23 9.5q-15 15 -15 57q0 23 4 39t14 24q8 5 25.5 9t38.5 4q47 0 62 -12q8 -7 11 -22.5t3 -36.5z" />
    <glyph glyph-name="eth" unicode="&#xf0;" horiz-adv-x="646" 
d="M430 249q0 37 -4 64t-16 38q-8 9 -26 12t-47 3q-77 0 -97 -23q-12 -11 -20.5 -31t-8.5 -66q0 -38 5.5 -60t16.5 -35q14 -16 37 -22t46 -6q59 0 83 21q13 11 22 36t9 69zM91 727q-5 6 -2.5 13t10.5 7h83q33 0 50 -4.5t36 -20.5l25 -16q5 -4 9.5 -7t12.5 5l26 20
q15 13 30 18t43 5h71q8 0 12 -5.5t-4 -13.5l-71 -68q-12 -12 -12 -20q0 -4 4 -9l8 -10l39 -29q33 -33 59 -65t41 -59q17 -33 28.5 -82t11.5 -125q0 -90 -23.5 -142.5t-55.5 -77.5q-29 -25 -83 -40t-129 -15q-73 0 -129.5 17t-84.5 49q-21 24 -38 67t-17 119q0 85 21.5 132.5
t54.5 73.5q15 12 34.5 22t46 17t62 10.5t82.5 3.5q16 0 16 8q0 4 -5.5 11t-20.5 22l-33 25q-5 5 -9.5 7t-12.5 -6l-27 -21q-13 -11 -26 -16.5t-38 -5.5h-79q-9 0 -10.5 6t3.5 13l86 77q4 5 7.5 9.5t3.5 9.5q0 4 -5 8.5t-12 9.5z" />
    <glyph glyph-name="ntilde" unicode="&#xf1;" horiz-adv-x="652" 
d="M592 18q0 -11 -4.5 -14.5t-13.5 -3.5h-138q-13 0 -16 6t-3 18v264q0 35 -2.5 54t-10.5 29q-9 11 -25 15.5t-45 4.5q-25 0 -43.5 -2t-33.5 -4q-11 -2 -14.5 -8t-3.5 -26v-332q0 -19 -18 -19h-143q-9 0 -11.5 5t-2.5 15v472q0 9 4 12.5t14 5.5q51 7 120.5 13t143.5 6
q47 0 81.5 -3.5t59 -9.5t40.5 -15t26 -19q11 -11 18.5 -24t12 -31.5t6.5 -44.5t2 -62v-302zM385 587q-17 0 -43 16l-33 22q-11 8 -20 11.5t-19 3.5t-18 -3t-23 -13l-42 -31q-7 -5 -11.5 -2.5t-4.5 10.5v42q0 26 7 42t34 34l27 17q22 14 42 14q9 0 20 -3t25 -12l27 -19
q19 -15 39 -15q11 0 20.5 4.5t22.5 13.5l36 26q6 4 11.5 2t5.5 -9v-43q0 -29 -9 -45t-29 -31l-24 -16q-22 -16 -41 -16z" />
    <glyph glyph-name="ograve" unicode="&#xf2;" 
d="M604 268q0 -92 -25 -148.5t-55 -81.5t-83 -38.5t-129 -13.5t-129 16.5t-81 43.5q-25 26 -42.5 74t-17.5 133q0 86 22.5 143t56.5 84q32 25 81.5 38.5t130.5 13.5t131.5 -14.5t76.5 -41.5q27 -26 45 -75.5t18 -132.5zM432 262q0 43 -6 69.5t-18 40.5q-9 11 -30 17t-50 6
q-65 0 -86 -23q-10 -12 -19.5 -40t-9.5 -74q0 -41 6.5 -69.5t18.5 -42.5q12 -12 33.5 -17t47.5 -5q58 0 80 19q14 11 23.5 41.5t9.5 77.5zM255 634q-34 12 -47.5 29.5t-13.5 48.5v57q0 8 5 10.5t13 0.5l147 -51q34 -11 47 -28t13 -47v-60q0 -8 -4.5 -12t-13.5 0z" />
    <glyph glyph-name="oacute" unicode="&#xf3;" 
d="M604 268q0 -92 -25 -148.5t-55 -81.5t-83 -38.5t-129 -13.5t-129 16.5t-81 43.5q-25 26 -42.5 74t-17.5 133q0 86 22.5 143t56.5 84q32 25 81.5 38.5t130.5 13.5t131.5 -14.5t76.5 -41.5q27 -26 45 -75.5t18 -132.5zM432 262q0 43 -6 69.5t-18 40.5q-9 11 -30 17t-50 6
q-65 0 -86 -23q-10 -12 -19.5 -40t-9.5 -74q0 -41 6.5 -69.5t18.5 -42.5q12 -12 33.5 -17t47.5 -5q58 0 80 19q14 11 23.5 41.5t9.5 77.5zM240 582q-9 -4 -13.5 0t-4.5 12v60q0 30 12.5 47t47.5 28l147 51q8 2 13 -0.5t5 -10.5v-57q0 -31 -13 -48t-47 -30z" />
    <glyph glyph-name="ocircumflex" unicode="&#xf4;" 
d="M604 268q0 -92 -25 -148.5t-55 -81.5t-83 -38.5t-129 -13.5t-129 16.5t-81 43.5q-25 26 -42.5 74t-17.5 133q0 86 22.5 143t56.5 84q32 25 81.5 38.5t130.5 13.5t131.5 -14.5t76.5 -41.5q27 -26 45 -75.5t18 -132.5zM432 262q0 43 -6 69.5t-18 40.5q-9 11 -30 17t-50 6
q-65 0 -86 -23q-10 -12 -19.5 -40t-9.5 -74q0 -41 6.5 -69.5t18.5 -42.5q12 -12 33.5 -17t47.5 -5q58 0 80 19q14 11 23.5 41.5t9.5 77.5zM322 787q14 0 37 -16l71 -41q14 -9 23 -17.5t14.5 -19t8 -24t2.5 -32.5v-42q0 -8 -6 -11t-13 2l-102 65q-11 7 -19.5 12t-16.5 5
t-16.5 -4t-22.5 -14l-99 -65q-6 -5 -12 -2.5t-6 10.5v49q0 36 12.5 54t38.5 36l66 37q12 8 21.5 13t18.5 5z" />
    <glyph glyph-name="otilde" unicode="&#xf5;" 
d="M604 268q0 -92 -25 -148.5t-55 -81.5t-83 -38.5t-129 -13.5t-129 16.5t-81 43.5q-25 26 -42.5 74t-17.5 133q0 86 22.5 143t56.5 84q32 25 81.5 38.5t130.5 13.5t131.5 -14.5t76.5 -41.5q27 -26 45 -75.5t18 -132.5zM432 262q0 43 -6 69.5t-18 40.5q-9 11 -30 17t-50 6
q-65 0 -86 -23q-10 -12 -19.5 -40t-9.5 -74q0 -41 6.5 -69.5t18.5 -42.5q12 -12 33.5 -17t47.5 -5q58 0 80 19q14 11 23.5 41.5t9.5 77.5zM378 587q-17 0 -43 16l-33 22q-11 8 -20 11.5t-19 3.5t-18 -3t-23 -13l-42 -31q-7 -5 -11.5 -2.5t-4.5 10.5v42q0 26 7 42t34 34
l27 17q22 14 42 14q9 0 20 -3t25 -12l27 -19q19 -15 39 -15q11 0 20.5 4.5t22.5 13.5l36 26q6 4 11.5 2t5.5 -9v-43q0 -29 -9 -45t-29 -31l-24 -16q-22 -16 -41 -16z" />
    <glyph glyph-name="odieresis" unicode="&#xf6;" 
d="M604 268q0 -92 -25 -148.5t-55 -81.5t-83 -38.5t-129 -13.5t-129 16.5t-81 43.5q-25 26 -42.5 74t-17.5 133q0 86 22.5 143t56.5 84q32 25 81.5 38.5t130.5 13.5t131.5 -14.5t76.5 -41.5q27 -26 45 -75.5t18 -132.5zM432 262q0 43 -6 69.5t-18 40.5q-9 11 -30 17t-50 6
q-65 0 -86 -23q-10 -12 -19.5 -40t-9.5 -74q0 -41 6.5 -69.5t18.5 -42.5q12 -12 33.5 -17t47.5 -5q58 0 80 19q14 11 23.5 41.5t9.5 77.5zM514 664q0 -46 -19 -62q-11 -8 -30.5 -11t-32.5 -3q-24 0 -38.5 4.5t-22.5 9.5q-8 8 -12.5 21.5t-4.5 35.5q0 23 5 39t15 24q8 5 25 9
t39 4q46 0 60 -12q16 -15 16 -59zM285 664q0 -22 -5.5 -39t-13.5 -24q-5 -4 -13 -6.5t-17 -4t-17 -2t-14 -0.5q-25 0 -40 4.5t-23 9.5q-15 15 -15 57q0 23 4 39t14 24q8 5 25.5 9t38.5 4q47 0 62 -12q8 -7 11 -22.5t3 -36.5z" />
    <glyph glyph-name="divide" unicode="&#xf7;" horiz-adv-x="566" 
d="M514 398q8 0 8 -10v-100q0 -14 -5.5 -23t-19.5 -9h-443q-10 0 -10 10v99q0 17 7 25t25 8h438zM199 542q0 20 5 35.5t15 23.5q11 8 31 10.5t35 2.5q23 0 38 -4t25 -9q8 -8 12.5 -22t4.5 -32q0 -20 -5 -35t-16 -22q-8 -5 -25.5 -9.5t-40.5 -4.5t-38.5 3.5t-24.5 8.5
q-8 7 -12 21.5t-4 32.5zM197 110q0 19 5 35t16 22q11 10 31 12.5t35 2.5q23 0 38 -4t24 -11q18 -12 18 -53q0 -19 -5 -34t-16 -23q-8 -5 -25.5 -9t-40.5 -4t-38.5 3.5t-25.5 8.5q-8 8 -12 22t-4 32z" />
    <glyph glyph-name="oslash" unicode="&#xf8;" 
d="M604 268q0 -46 -7 -83.5t-19 -67t-27 -50t-31 -32.5q-33 -25 -85.5 -36.5t-121.5 -11.5q-15 0 -27.5 0.5t-23.5 1.5t-17.5 -2.5t-13.5 -18.5q-9 -18 -17.5 -30t-19 -18.5t-24.5 -9t-33 -2.5h-32q-7 0 -10 3.5t1 10.5l35 66q4 8 6 13t2 10q0 7 -7 13.5t-15 11.5
q-36 26 -56 79.5t-20 138.5t23 143.5t58 85.5q32 25 82.5 37t128.5 12h38q8 0 17 3t17 22q9 21 17.5 34t18.5 20t22.5 9.5t28.5 2.5h39q6 0 9 -4t0 -11l-36 -71q-2 -7 -4.5 -12.5t-2.5 -9.5q0 -7 8.5 -12t21.5 -15q35 -26 56 -80.5t21 -139.5zM450 257q0 31 -5.5 50.5
t-13.5 33.5q-4 8 -9 9t-9 -7l-104 -199q-4 -10 -6.5 -15t-2.5 -9q0 -5 7.5 -6t19.5 -1q26 0 49 4t38 15q17 11 26.5 45.5t9.5 79.5zM335 400q0 5 -5.5 6.5t-19.5 1.5q-32 0 -54 -6.5t-33 -17.5q-11 -14 -21.5 -43.5t-10.5 -77.5q0 -28 5.5 -50.5t12.5 -33.5q11 -14 18 -1
l101 199q7 14 7 23z" />
    <glyph glyph-name="ugrave" unicode="&#xf9;" horiz-adv-x="652" 
d="M587 34q0 -9 -4 -13t-14 -6q-42 -9 -108 -15.5t-139 -6.5q-96 0 -148.5 13t-77.5 39q-11 12 -18 26t-11.5 33t-6 45t-1.5 61v294q0 18 18 18h136q14 0 18 -6t4 -19v-267q0 -32 3 -49.5t11 -27.5q18 -21 78 -21q38 0 61 3q14 4 19.5 11t5.5 24v334q0 18 18 18h141
q9 0 12 -4.5t3 -15.5v-468zM254 634q-34 12 -47.5 29.5t-13.5 48.5v57q0 8 5 10.5t13 0.5l147 -51q34 -11 47 -28t13 -47v-60q0 -8 -4.5 -12t-13.5 0z" />
    <glyph glyph-name="uacute" unicode="&#xfa;" horiz-adv-x="652" 
d="M587 34q0 -9 -4 -13t-14 -6q-42 -9 -108 -15.5t-139 -6.5q-96 0 -148.5 13t-77.5 39q-11 12 -18 26t-11.5 33t-6 45t-1.5 61v294q0 18 18 18h136q14 0 18 -6t4 -19v-267q0 -32 3 -49.5t11 -27.5q18 -21 78 -21q38 0 61 3q14 4 19.5 11t5.5 24v334q0 18 18 18h141
q9 0 12 -4.5t3 -15.5v-468zM248 582q-9 -4 -13.5 0t-4.5 12v60q0 30 12.5 47t47.5 28l147 51q8 2 13 -0.5t5 -10.5v-57q0 -31 -13 -48t-47 -30z" />
    <glyph glyph-name="ucircumflex" unicode="&#xfb;" horiz-adv-x="652" 
d="M587 34q0 -9 -4 -13t-14 -6q-42 -9 -108 -15.5t-139 -6.5q-96 0 -148.5 13t-77.5 39q-11 12 -18 26t-11.5 33t-6 45t-1.5 61v294q0 18 18 18h136q14 0 18 -6t4 -19v-267q0 -32 3 -49.5t11 -27.5q18 -21 78 -21q38 0 61 3q14 4 19.5 11t5.5 24v334q0 18 18 18h141
q9 0 12 -4.5t3 -15.5v-468zM326 787q14 0 37 -16l71 -41q14 -9 23 -17.5t14.5 -19t8 -24t2.5 -32.5v-42q0 -8 -6 -11t-13 2l-102 65q-11 7 -19.5 12t-16.5 5t-16.5 -4t-22.5 -14l-99 -65q-6 -5 -12 -2.5t-6 10.5v49q0 36 12.5 54t38.5 36l66 37q12 8 21.5 13t18.5 5z" />
    <glyph glyph-name="udieresis" unicode="&#xfc;" horiz-adv-x="652" 
d="M587 34q0 -9 -4 -13t-14 -6q-42 -9 -108 -15.5t-139 -6.5q-96 0 -148.5 13t-77.5 39q-11 12 -18 26t-11.5 33t-6 45t-1.5 61v294q0 18 18 18h136q14 0 18 -6t4 -19v-267q0 -32 3 -49.5t11 -27.5q18 -21 78 -21q38 0 61 3q14 4 19.5 11t5.5 24v334q0 18 18 18h141
q9 0 12 -4.5t3 -15.5v-468zM520 664q0 -46 -19 -62q-11 -8 -30.5 -11t-32.5 -3q-24 0 -38.5 4.5t-22.5 9.5q-8 8 -12.5 21.5t-4.5 35.5q0 23 5 39t15 24q8 5 25 9t39 4q46 0 60 -12q16 -15 16 -59zM291 664q0 -22 -5.5 -39t-13.5 -24q-5 -4 -13 -6.5t-17 -4t-17 -2t-14 -0.5
q-25 0 -40 4.5t-23 9.5q-15 15 -15 57q0 23 4 39t14 24q8 5 25.5 9t38.5 4q47 0 62 -12q8 -7 11 -22.5t3 -36.5z" />
    <glyph glyph-name="yacute" unicode="&#xfd;" horiz-adv-x="657" 
d="M449 -139q-16 -59 -48 -79.5t-89 -20.5h-34q-11 0 -15 8.5t0 19.5l53 175q3 11 4 17.5t1 9.5q0 9 -13 9q-5 0 -15.5 -0.5t-21.5 -0.5q-34 0 -60 6.5t-44 23.5q-9 9 -17.5 21t-16 30t-16 44t-17.5 62l-85 311q-6 25 19 25h75q26 0 43.5 -3.5t29 -12.5t18 -25t11.5 -42
l51 -212q9 -38 14.5 -52.5t12.5 -19.5q5 -5 13.5 -6.5t20.5 -1.5q26 0 32 6q5 4 11 18.5t16 51.5l59 213q6 26 14.5 42.5t20.5 26.5t29.5 13.5t43.5 3.5h69q25 0 19 -25zM258 582q-9 -4 -13.5 0t-4.5 12v60q0 30 12.5 47t47.5 28l147 51q8 2 13 -0.5t5 -10.5v-57
q0 -31 -13 -48t-47 -30z" />
    <glyph glyph-name="thorn" unicode="&#xfe;" horiz-adv-x="657" 
d="M615 276q0 -96 -22.5 -151t-52.5 -80q-28 -24 -73.5 -37.5t-114.5 -13.5q-27 0 -48 1.5t-41 2.5q-10 1 -15.5 -2.5t-5.5 -20.5v-165q0 -23 -10 -32t-28 -9h-122q-10 0 -14 4t-4 15v935q0 18 18 18h144q11 0 13.5 -5t2.5 -15v-175q0 -16 5.5 -20t16.5 -2q20 1 49 3t61 2
q64 0 106 -8.5t69 -30.5q29 -26 47.5 -78t18.5 -136zM433 266q0 50 -8 76t-19 35q-11 11 -29 14.5t-42 3.5q-29 0 -47 -1t-28 -3q-11 -3 -14.5 -9t-3.5 -23v-194q0 -15 3.5 -21t14.5 -8q12 -2 24.5 -3t35.5 -1q63 0 85 22q12 12 20 41t8 71z" />
    <glyph glyph-name="ydieresis" unicode="&#xff;" horiz-adv-x="657" 
d="M449 -139q-16 -59 -48 -79.5t-89 -20.5h-34q-11 0 -15 8.5t0 19.5l53 175q3 11 4 17.5t1 9.5q0 9 -13 9q-5 0 -15.5 -0.5t-21.5 -0.5q-34 0 -60 6.5t-44 23.5q-9 9 -17.5 21t-16 30t-16 44t-17.5 62l-85 311q-6 25 19 25h75q26 0 43.5 -3.5t29 -12.5t18 -25t11.5 -42
l51 -212q9 -38 14.5 -52.5t12.5 -19.5q5 -5 13.5 -6.5t20.5 -1.5q26 0 32 6q5 4 11 18.5t16 51.5l59 213q6 26 14.5 42.5t20.5 26.5t29.5 13.5t43.5 3.5h69q25 0 19 -25zM515 664q0 -46 -19 -62q-11 -8 -30.5 -11t-32.5 -3q-24 0 -38.5 4.5t-22.5 9.5q-8 8 -12.5 21.5
t-4.5 35.5q0 23 5 39t15 24q8 5 25 9t39 4q46 0 60 -12q16 -15 16 -59zM286 664q0 -22 -5.5 -39t-13.5 -24q-5 -4 -13 -6.5t-17 -4t-17 -2t-14 -0.5q-25 0 -40 4.5t-23 9.5q-15 15 -15 57q0 23 4 39t14 24q8 5 25.5 9t38.5 4q47 0 62 -12q8 -7 11 -22.5t3 -36.5z" />
    <glyph glyph-name="Amacron" unicode="&#x100;" horiz-adv-x="755" 
d="M207 68q-5 -18 -12.5 -31t-18.5 -21t-28 -12t-41 -4h-78q-8 0 -13 5t-5 10q0 11 7 31l135 447q11 37 21 63t18.5 44t17 29t16.5 18q20 17 57 27t102 10q67 0 101.5 -8.5t52.5 -25.5q7 -7 15 -18.5t16 -29.5t17 -44.5t19 -62.5l132 -461l2.5 -12.5t0.5 -9.5q0 -12 -15 -12
h-91q-25 0 -42 3.5t-28.5 12t-19 21.5t-13.5 32l-31 106q-5 17 -12.5 23.5t-29.5 6.5h-179q-19 0 -28 -7t-14 -25zM461 361q0 9 -9 41l-16 63q-8 30 -14.5 42.5t-11.5 17.5t-13 7.5t-22 2.5t-23 -3t-14 -7q-7 -5 -13.5 -19t-15.5 -43l-20 -66q-4 -12 -6.5 -22.5t-2.5 -14.5
q0 -12 8 -16.5t29 -4.5h109q24 0 29.5 5.5t5.5 16.5zM233 756q-16 0 -16 15q0 7 4 20.5t10.5 27.5t14.5 26.5t17 18.5q9 5 22 6.5t33 1.5h214q7 0 12 -3.5t5 -11.5t-4 -21t-10.5 -26.5t-14.5 -25.5t-16 -18q-10 -7 -24 -8.5t-35 -1.5h-212z" />
    <glyph glyph-name="amacron" unicode="&#x101;" horiz-adv-x="615" 
d="M554 25q0 -16 -16 -18q-42 -6 -102 -10t-126 -4q-52 0 -90 3t-65 8.5t-45 13.5t-28 17q-14 15 -25 45t-11 77q0 45 11 78.5t28 47.5q10 7 36.5 12t64.5 9.5t84.5 8.5t96.5 7q15 1 15 17q0 34 -16 47q-8 8 -29.5 10.5t-63.5 2.5q-57 0 -107.5 -3t-77.5 -8q-7 0 -12.5 4.5
t-4.5 12.5q1 13 5.5 27.5t11.5 27.5t15 24t16 17q20 15 70.5 23t126.5 8q79 0 125.5 -9t67.5 -29q11 -10 19.5 -24t14 -35.5t8.5 -53.5t3 -78v-276zM380 202q0 11 -4.5 13.5t-12.5 2.5q-18 0 -39.5 -1t-41 -3t-34.5 -4t-19 -5q-11 -10 -11 -39t13 -39q8 -6 25.5 -10t47.5 -4
q23 0 42.5 2.5t23.5 5.5q5 5 7.5 10t2.5 22v49zM169 602q-16 0 -16 15q0 7 4 20.5t10.5 27.5t14.5 26.5t17 18.5q9 5 22 6.5t33 1.5h214q7 0 12 -3.5t5 -11.5t-4 -21t-10.5 -26.5t-14.5 -25.5t-16 -18q-10 -7 -24 -8.5t-35 -1.5h-212z" />
    <glyph glyph-name="Abreve" unicode="&#x102;" horiz-adv-x="755" 
d="M207 68q-5 -18 -12.5 -31t-18.5 -21t-28 -12t-41 -4h-78q-8 0 -13 5t-5 10q0 11 7 31l135 447q11 37 21 63t18.5 44t17 29t16.5 18q20 17 57 27t102 10q67 0 101.5 -8.5t52.5 -25.5q7 -7 15 -18.5t16 -29.5t17 -44.5t19 -62.5l132 -461l2.5 -12.5t0.5 -9.5q0 -12 -15 -12
h-91q-25 0 -42 3.5t-28.5 12t-19 21.5t-13.5 32l-31 106q-5 17 -12.5 23.5t-29.5 6.5h-179q-19 0 -28 -7t-14 -25zM461 361q0 9 -9 41l-16 63q-8 30 -14.5 42.5t-11.5 17.5t-13 7.5t-22 2.5t-23 -3t-14 -7q-7 -5 -13.5 -19t-15.5 -43l-20 -66q-4 -12 -6.5 -22.5t-2.5 -14.5
q0 -12 8 -16.5t29 -4.5h109q24 0 29.5 5.5t5.5 16.5zM517 878q0 -24 -1.5 -40t-4.5 -27t-7 -18.5t-10 -14.5q-11 -14 -41.5 -26.5t-81.5 -12.5q-93 0 -123 39q-11 13 -15 32t-4 63v40q0 8 9 8h43q21 0 30 -7.5t9 -29.5v-15q0 -22 7 -33q12 -12 46 -12q15 0 27.5 2.5
t18.5 10.5q4 5 5.5 12t1.5 21v13q0 23 10 30.5t32 7.5h39q10 0 10 -7v-36z" />
    <glyph glyph-name="abreve" unicode="&#x103;" horiz-adv-x="615" 
d="M554 25q0 -16 -16 -18q-42 -6 -102 -10t-126 -4q-52 0 -90 3t-65 8.5t-45 13.5t-28 17q-14 15 -25 45t-11 77q0 45 11 78.5t28 47.5q10 7 36.5 12t64.5 9.5t84.5 8.5t96.5 7q15 1 15 17q0 34 -16 47q-8 8 -29.5 10.5t-63.5 2.5q-57 0 -107.5 -3t-77.5 -8q-7 0 -12.5 4.5
t-4.5 12.5q1 13 5.5 27.5t11.5 27.5t15 24t16 17q20 15 70.5 23t126.5 8q79 0 125.5 -9t67.5 -29q11 -10 19.5 -24t14 -35.5t8.5 -53.5t3 -78v-276zM380 202q0 11 -4.5 13.5t-12.5 2.5q-18 0 -39.5 -1t-41 -3t-34.5 -4t-19 -5q-11 -10 -11 -39t13 -39q8 -6 25.5 -10t47.5 -4
q23 0 42.5 2.5t23.5 5.5q5 5 7.5 10t2.5 22v49zM462 724q0 -24 -1.5 -40t-4.5 -27t-7 -18.5t-10 -14.5q-11 -14 -41.5 -26.5t-81.5 -12.5q-93 0 -123 39q-11 13 -15 32t-4 63v40q0 8 9 8h43q21 0 30 -7.5t9 -29.5v-15q0 -22 7 -33q12 -12 46 -12q15 0 27.5 2.5t18.5 10.5
q4 5 5.5 12t1.5 21v13q0 23 10 30.5t32 7.5h39q10 0 10 -7v-36z" />
    <glyph glyph-name="Aogonek" unicode="&#x104;" horiz-adv-x="755" 
d="M461 361q0 9 -9 41l-16 64q-9 30 -15 42t-11 17t-13 7.5t-22 2.5t-23 -3t-14 -7q-7 -5 -14.5 -19.5t-15.5 -43.5l-19 -65q-3 -12 -6 -22.5t-3 -14.5q0 -12 8 -16.5t29 -4.5h109q24 0 29.5 5.5t5.5 16.5zM583 5q-19 6 -32.5 24t-22.5 51l-29 99q-4 15 -11 20.5t-29 5.5
h-179q-19 0 -27.5 -6.5t-13.5 -24.5l-32 -107q-8 -35 -28.5 -51t-67.5 -16h-78q-11 0 -16 6t-5 14q0 5 3.5 16t8.5 28l129 428q11 36 20.5 62t18.5 44t17.5 29.5t16.5 18.5q19 17 56.5 27.5t102.5 10.5q67 0 102 -9t53 -26q14 -13 30 -47.5t36 -107.5l131 -457
q3 -10 4.5 -14.5t1.5 -9.5q0 -10 -15 -21t-42 -31q-42 -30 -59.5 -47.5t-22.5 -24.5q-6 -7 -6 -23q0 -12 7 -19q12 -7 52 -7q26 0 42.5 1.5t32.5 3.5q4 1 7.5 -1.5t3.5 -8.5t-4 -16t-10 -20.5t-13.5 -19.5t-14.5 -13q-11 -7 -37 -11.5t-61 -4.5q-40 0 -66 6.5t-38 17.5
q-9 10 -15.5 26t-6.5 47q0 23 6.5 42t17.5 31q10 13 30 30.5t41 29.5q10 8 13.5 14.5t-2.5 10.5z" />
    <glyph glyph-name="aogonek" unicode="&#x105;" horiz-adv-x="615" 
d="M554 29q0 -8 -2 -13.5t-8 -11.5q-8 -9 -27 -23t-41 -31q-56 -42 -66 -61q-6 -9 -6 -23q0 -15 7 -19q5 -4 21 -6t34 -2q24 0 43.5 1.5t36.5 3.5q8 2 8 -8q0 -6 -3.5 -16t-9.5 -20.5t-13 -19.5t-14 -13q-13 -8 -40 -12.5t-61 -4.5q-83 0 -107 24q-9 8 -15.5 25t-6.5 48
q0 23 6.5 42t15.5 31q6 8 17.5 18t25 20.5t27.5 20t26 17.5q-45 -3 -92 -3q-52 0 -90 3t-65 8.5t-45 13.5t-28 17q-14 15 -25 45t-11 77q0 45 11 78.5t28 47.5q10 7 36.5 12t64.5 9.5t84.5 8.5t96.5 7q15 1 15 17q0 34 -16 47q-8 8 -29.5 10.5t-63.5 2.5q-58 0 -108 -3
t-78 -7q-7 -1 -12 3.5t-4 11.5q4 29 18 57.5t30 39.5q22 16 72 23.5t125 7.5q79 0 125.5 -9t67.5 -29q11 -10 19.5 -24t14 -35.5t8.5 -53.5t3 -78v-272zM380 202q0 11 -4.5 13.5t-12.5 2.5q-18 0 -39.5 -1t-41 -3t-34.5 -4t-19 -5q-11 -10 -11 -39t13 -39q8 -6 25.5 -10
t47.5 -4q23 0 42.5 2.5t23.5 5.5q5 5 7.5 10t2.5 22v49z" />
    <glyph glyph-name="Cacute" unicode="&#x106;" horiz-adv-x="668" 
d="M231 340q0 -68 12 -108t32 -56q22 -17 60.5 -24t104.5 -7q58 0 106.5 5.5t77.5 7.5q6 0 11.5 -3.5t3.5 -13.5q-3 -17 -9 -34.5t-14.5 -33.5t-19 -29.5t-20.5 -20.5q-24 -15 -72.5 -23.5t-136.5 -8.5q-90 0 -151 17t-91 46q-32 28 -56 93.5t-24 182.5q0 115 29 187.5
t71 106.5q15 12 36 23t50 19.5t67.5 13t90.5 4.5q72 0 119.5 -6t67.5 -19q26 -17 42.5 -52.5t18.5 -67.5q0 -6 -4.5 -12t-12.5 -5q-33 5 -76 9t-100 4q-38 0 -64 -2.5t-45 -7t-31.5 -10t-21.5 -12.5q-23 -17 -37 -57t-14 -106zM292 736q-9 -4 -13.5 0t-4.5 12v60
q0 30 12.5 47t47.5 28l147 51q8 2 13 -0.5t5 -10.5v-57q0 -31 -13 -48t-47 -30z" />
    <glyph glyph-name="cacute" unicode="&#x107;" horiz-adv-x="530" 
d="M472 509q17 -12 28.5 -40t12.5 -56q1 -12 -6 -18t-15 -4q-24 3 -57 5.5t-68 2.5q-92 0 -118 -26q-14 -13 -23 -40.5t-9 -68.5q0 -48 8 -71.5t23 -37.5t42.5 -19t65.5 -5q51 0 82 3t56 5q8 1 14 -3.5t6 -14.5q0 -13 -4.5 -28t-11.5 -29.5t-16 -26.5t-18 -19
q-17 -12 -56.5 -19t-99.5 -7q-41 0 -71.5 3t-54 9.5t-41 15.5t-31.5 21q-31 26 -49.5 77.5t-18.5 137.5q0 89 22 144t57 83q30 25 81 37.5t118 12.5q57 0 96.5 -5.5t55.5 -18.5zM220 582q-9 -4 -13.5 0t-4.5 12v60q0 30 12.5 47t47.5 28l147 51q8 2 13 -0.5t5 -10.5v-57
q0 -31 -13 -48t-47 -30z" />
    <glyph glyph-name="Ccircumflex" unicode="&#x108;" horiz-adv-x="668" 
d="M231 340q0 -68 12 -108t32 -56q22 -17 60.5 -24t104.5 -7q58 0 106.5 5.5t77.5 7.5q6 0 11.5 -3.5t3.5 -13.5q-3 -17 -9 -34.5t-14.5 -33.5t-19 -29.5t-20.5 -20.5q-24 -15 -72.5 -23.5t-136.5 -8.5q-90 0 -151 17t-91 46q-32 28 -56 93.5t-24 182.5q0 115 29 187.5
t71 106.5q15 12 36 23t50 19.5t67.5 13t90.5 4.5q72 0 119.5 -6t67.5 -19q26 -17 42.5 -52.5t18.5 -67.5q0 -6 -4.5 -12t-12.5 -5q-33 5 -76 9t-100 4q-38 0 -64 -2.5t-45 -7t-31.5 -10t-21.5 -12.5q-23 -17 -37 -57t-14 -106zM371 941q14 0 37 -16l71 -41q14 -9 23 -17.5
t14.5 -19t8 -24t2.5 -32.5v-42q0 -8 -6 -11t-13 2l-102 65q-11 7 -19.5 12t-16.5 5t-16.5 -4t-22.5 -14l-99 -65q-6 -5 -12 -2.5t-6 10.5v49q0 36 12.5 54t38.5 36l66 37q12 8 21.5 13t18.5 5z" />
    <glyph glyph-name="ccircumflex" unicode="&#x109;" horiz-adv-x="530" 
d="M472 509q17 -12 28.5 -40t12.5 -56q1 -12 -6 -18t-15 -4q-24 3 -57 5.5t-68 2.5q-92 0 -118 -26q-14 -13 -23 -40.5t-9 -68.5q0 -48 8 -71.5t23 -37.5t42.5 -19t65.5 -5q51 0 82 3t56 5q8 1 14 -3.5t6 -14.5q0 -13 -4.5 -28t-11.5 -29.5t-16 -26.5t-18 -19
q-17 -12 -56.5 -19t-99.5 -7q-41 0 -71.5 3t-54 9.5t-41 15.5t-31.5 21q-31 26 -49.5 77.5t-18.5 137.5q0 89 22 144t57 83q30 25 81 37.5t118 12.5q57 0 96.5 -5.5t55.5 -18.5zM293 787q14 0 37 -16l71 -41q14 -9 23 -17.5t14.5 -19t8 -24t2.5 -32.5v-42q0 -8 -6 -11t-13 2
l-102 65q-11 7 -19.5 12t-16.5 5t-16.5 -4t-22.5 -14l-99 -65q-6 -5 -12 -2.5t-6 10.5v49q0 36 12.5 54t38.5 36l66 37q12 8 21.5 13t18.5 5z" />
    <glyph glyph-name="Cdotaccent" unicode="&#x10a;" horiz-adv-x="668" 
d="M231 340q0 -68 12 -108t32 -56q22 -17 60.5 -24t104.5 -7q58 0 106.5 5.5t77.5 7.5q6 0 11.5 -3.5t3.5 -13.5q-3 -17 -9 -34.5t-14.5 -33.5t-19 -29.5t-20.5 -20.5q-24 -15 -72.5 -23.5t-136.5 -8.5q-90 0 -151 17t-91 46q-32 28 -56 93.5t-24 182.5q0 115 29 187.5
t71 106.5q15 12 36 23t50 19.5t67.5 13t90.5 4.5q72 0 119.5 -6t67.5 -19q26 -17 42.5 -52.5t18.5 -67.5q0 -6 -4.5 -12t-12.5 -5q-33 5 -76 9t-100 4q-38 0 -64 -2.5t-45 -7t-31.5 -10t-21.5 -12.5q-23 -17 -37 -57t-14 -106zM460 827q0 -23 -5.5 -40t-16.5 -25
q-6 -4 -15 -6.5t-18.5 -4t-19 -2t-15.5 -0.5q-27 0 -43 4t-24 9q-8 7 -13.5 22t-5.5 38q0 22 6 39t15 23q8 7 27 11.5t43 4.5q50 0 67 -14q18 -15 18 -59z" />
    <glyph glyph-name="cdotaccent" unicode="&#x10b;" horiz-adv-x="530" 
d="M472 509q17 -12 28.5 -40t12.5 -56q1 -12 -6 -18t-15 -4q-24 3 -57 5.5t-68 2.5q-92 0 -118 -26q-14 -13 -23 -40.5t-9 -68.5q0 -48 8 -71.5t23 -37.5t42.5 -19t65.5 -5q51 0 82 3t56 5q8 1 14 -3.5t6 -14.5q0 -13 -4.5 -28t-11.5 -29.5t-16 -26.5t-18 -19
q-17 -12 -56.5 -19t-99.5 -7q-41 0 -71.5 3t-54 9.5t-41 15.5t-31.5 21q-31 26 -49.5 77.5t-18.5 137.5q0 89 22 144t57 83q30 25 81 37.5t118 12.5q57 0 96.5 -5.5t55.5 -18.5zM383 673q0 -23 -5.5 -40t-16.5 -25q-6 -4 -15 -6.5t-18.5 -4t-19 -2t-15.5 -0.5q-27 0 -43 4
t-24 9q-8 7 -13.5 22t-5.5 38q0 22 6 39t15 23q8 7 27 11.5t43 4.5q50 0 67 -14q18 -15 18 -59z" />
    <glyph glyph-name="Ccaron" unicode="&#x10c;" horiz-adv-x="668" 
d="M231 340q0 -68 12 -108t32 -56q22 -17 60.5 -24t104.5 -7q58 0 106.5 5.5t77.5 7.5q6 0 11.5 -3.5t3.5 -13.5q-3 -17 -9 -34.5t-14.5 -33.5t-19 -29.5t-20.5 -20.5q-24 -15 -72.5 -23.5t-136.5 -8.5q-90 0 -151 17t-91 46q-32 28 -56 93.5t-24 182.5q0 115 29 187.5
t71 106.5q15 12 36 23t50 19.5t67.5 13t90.5 4.5q72 0 119.5 -6t67.5 -19q26 -17 42.5 -52.5t18.5 -67.5q0 -6 -4.5 -12t-12.5 -5q-33 5 -76 9t-100 4q-38 0 -64 -2.5t-45 -7t-31.5 -10t-21.5 -12.5q-23 -17 -37 -57t-14 -106zM363 727q-8 0 -16.5 3.5t-21.5 11.5l-70 42
q-14 9 -23 17.5t-14.5 18.5t-8 23.5t-2.5 33.5v42q0 8 6.5 11t11.5 -2l103 -64q11 -8 20 -12.5t17 -4.5q7 0 15 3t22 14l99 66q7 4 13 1.5t6 -9.5v-51q0 -35 -12.5 -53.5t-39.5 -35.5l-65 -37q-12 -8 -21 -13t-19 -5z" />
    <glyph glyph-name="ccaron" unicode="&#x10d;" horiz-adv-x="530" 
d="M472 509q17 -12 28.5 -40t12.5 -56q1 -12 -6 -18t-15 -4q-24 3 -57 5.5t-68 2.5q-92 0 -118 -26q-14 -13 -23 -40.5t-9 -68.5q0 -48 8 -71.5t23 -37.5t42.5 -19t65.5 -5q51 0 82 3t56 5q8 1 14 -3.5t6 -14.5q0 -13 -4.5 -28t-11.5 -29.5t-16 -26.5t-18 -19
q-17 -12 -56.5 -19t-99.5 -7q-41 0 -71.5 3t-54 9.5t-41 15.5t-31.5 21q-31 26 -49.5 77.5t-18.5 137.5q0 89 22 144t57 83q30 25 81 37.5t118 12.5q57 0 96.5 -5.5t55.5 -18.5zM291 573q-8 0 -16.5 3.5t-21.5 11.5l-70 42q-14 9 -23 17.5t-14.5 18.5t-8 23.5t-2.5 33.5v42
q0 8 6.5 11t11.5 -2l103 -64q11 -8 20 -12.5t17 -4.5q7 0 15 3t22 14l99 66q7 4 13 1.5t6 -9.5v-51q0 -35 -12.5 -53.5t-39.5 -35.5l-65 -37q-12 -8 -21 -13t-19 -5z" />
    <glyph glyph-name="Dcaron" unicode="&#x10e;" horiz-adv-x="760" 
d="M718 349q0 -114 -29 -190t-71 -108q-37 -29 -102 -43t-174 -14q-69 0 -134.5 2t-116.5 5q-5 0 -13 5.5t-8 22.5v620q0 14 8 18t12 4q28 1 61 2.5t67 2.5t67.5 2t62.5 1q63 0 110 -3.5t81 -11t57.5 -18t41.5 -25.5q33 -28 56.5 -93.5t23.5 -178.5zM535 341q0 73 -12.5 109
t-29.5 52q-17 15 -52.5 20.5t-80.5 5.5h-51t-41 -2q-13 -1 -16 -6.5t-3 -18.5v-331q0 -13 4.5 -17.5t18.5 -5.5q16 -1 40.5 -1h53.5q51 0 79.5 6.5t42.5 17.5q18 14 32.5 58t14.5 113zM378 727q-8 0 -16.5 3.5t-21.5 11.5l-70 42q-14 9 -23 17.5t-14.5 18.5t-8 23.5
t-2.5 33.5v42q0 8 6.5 11t11.5 -2l103 -64q11 -8 20 -12.5t17 -4.5q7 0 15 3t22 14l99 66q7 4 13 1.5t6 -9.5v-51q0 -35 -12.5 -53.5t-39.5 -35.5l-65 -37q-12 -8 -21 -13t-19 -5z" />
    <glyph glyph-name="dcaron" unicode="&#x10f;" horiz-adv-x="729" 
d="M755 675q0 -34 -1 -57.5t-3 -40t-5.5 -28t-9.5 -21.5t-16 -20t-22 -18t-24 -13t-22 -5q-14 0 -14 16v162q0 27 2 45t9.5 28.5t22.5 15t40 4.5h29q14 0 14 -19v-49zM218 260q0 -51 9 -76.5t21 -36.5q11 -9 30.5 -12.5t52.5 -3.5q22 0 35.5 1t25.5 4q8 2 12 8t4 25v189
q0 28 -17 29q-15 3 -28.5 4t-30.5 1q-29 0 -51 -5.5t-33 -16.5q-14 -12 -22 -42t-8 -68zM557 10q-41 -6 -98.5 -11.5t-128.5 -5.5q-45 0 -79.5 2.5t-60.5 8t-45 14t-34 19.5q-31 24 -50.5 74.5t-19.5 137.5q0 49 6.5 86.5t17 64.5t23.5 45.5t26 30.5q28 25 73 39t114 14
h42.5t42.5 -2q10 -1 16 1.5t6 19.5v157q0 21 6 28.5t24 7.5h126q18 0 18 -19v-679q0 -18 -5.5 -24.5t-19.5 -8.5z" />
    <glyph glyph-name="Dcroat" unicode="&#x110;" horiz-adv-x="780" 
d="M87 649q0 14 7.5 18.5t12.5 3.5q28 1 60.5 3t66 3l67 2t63.5 1q63 0 110 -3.5t81 -11t57.5 -18.5t41.5 -26q33 -27 57 -93t24 -179q0 -114 -29 -190t-71 -108q-38 -29 -102.5 -43t-173.5 -14q-70 0 -135 2t-116 5q-5 0 -13 5.5t-8 22.5v204q0 29 -8 35t-25 6h-45
q-19 0 -19 19q0 12 2 26.5t6 28.5t9.5 26t12.5 18q10 6 30 6h15q11 0 16.5 6t5.5 21v224zM263 169q0 -14 5 -18.5t19 -5.5q16 -1 41 -1.5t55 -0.5q51 0 79.5 7t44.5 19q17 14 31.5 58.5t14.5 113.5q0 74 -12 110.5t-29 53.5q-19 16 -55.5 21.5t-81.5 5.5q-25 0 -50 -0.5
t-42 -2.5q-14 -2 -17 -7t-3 -18v-79q0 -17 6 -22t26 -5h108q6 0 11 -4t5 -14t-2.5 -24t-7 -28t-10.5 -25.5t-13 -17.5q-8 -7 -19 -8.5t-27 -1.5h-46q-19 0 -25 -6.5t-6 -25.5v-74z" />
    <glyph glyph-name="dcroat" unicode="&#x111;" horiz-adv-x="652" 
d="M582 694q0 -16 19 -16h66q9 0 12 -5t2 -12q-2 -31 -10 -54t-19 -31q-8 -5 -16 -6t-18 -1h-14q-22 0 -22 -21v-503q0 -20 -5.5 -26.5t-21.5 -8.5q-39 -5 -94 -11t-130 -6q-90 0 -140.5 10.5t-78.5 32.5q-32 24 -51.5 74t-19.5 129q0 45 6.5 79.5t17 61t23 44.5t25.5 30
q28 25 72.5 38t113.5 13q26 0 46 -0.5t41 -1.5q11 -1 16.5 1.5t5.5 13.5v31q0 10 -4 13.5t-17 3.5h-172q-8 0 -12 5.5t-3 11.5q3 28 15.5 54t25.5 35q15 6 38 6h106q23 0 23 22v11q0 17 6.5 23.5t23.5 6.5h126q8 0 13 -3.5t5 -14.5v-29zM218 246q0 -44 9.5 -68.5t21.5 -32.5
q11 -8 30 -12t53 -4q20 0 34.5 1t25.5 3q8 2 12 8.5t4 23.5v173q0 15 -3 21t-14 7q-15 2 -29 3t-31 1q-62 0 -83 -20q-14 -12 -22 -40.5t-8 -63.5z" />
    <glyph glyph-name="Emacron" unicode="&#x112;" horiz-adv-x="643" 
d="M380 538h-62t-46 -1q-14 -1 -18.5 -7t-4.5 -20v-81q0 -11 5.5 -15.5t19.5 -4.5h288q9 0 15 -3.5t6 -14.5q0 -10 -3.5 -24.5t-9.5 -29.5t-13.5 -28.5t-15.5 -20.5q-11 -8 -26 -10t-39 -2h-202q-16 0 -20.5 -6t-4.5 -18v-84q0 -17 5.5 -22.5t21.5 -6.5q8 0 16 -0.5
t18.5 -0.5t25 -0.5t34.5 -0.5q77 0 130.5 2.5t95.5 4.5q8 1 14.5 -4t5.5 -17q-2 -16 -8 -33.5t-15 -33.5t-19.5 -28.5t-19.5 -16.5q-8 -4 -22 -6.5t-38 -4t-61 -2t-92 -0.5q-83 0 -141.5 0.5t-107.5 2.5q-5 0 -13.5 5t-8.5 22v623q0 14 8.5 18t13.5 4q31 1 59 2t56.5 1.5
t59 1t66.5 0.5q94 0 148.5 -1.5t71.5 -9.5q9 -5 18 -17t16.5 -28t12.5 -34t7 -35q1 -9 -5.5 -14.5t-14.5 -5.5q-18 1 -41.5 2t-50.5 1.5t-56.5 1t-58.5 0.5zM201 756q-16 0 -16 15q0 7 4 20.5t10.5 27.5t14.5 26.5t17 18.5q9 5 22 6.5t33 1.5h214q7 0 12 -3.5t5 -11.5
t-4 -21t-10.5 -26.5t-14.5 -25.5t-16 -18q-10 -7 -24 -8.5t-35 -1.5h-212z" />
    <glyph glyph-name="emacron" unicode="&#x113;" horiz-adv-x="606" 
d="M41 254q0 92 22.5 146.5t57.5 81.5q29 23 80 36t121 13q75 0 120 -12t70 -35q12 -11 23 -28.5t19.5 -45.5t13.5 -68t5 -97q0 -14 -3.5 -20.5t-17.5 -6.5h-301q-18 0 -23.5 -4t-5.5 -13q0 -32 21 -53q13 -11 43 -16t84 -5t98 3.5t72 6.5q8 0 13 -4.5t5 -12.5
q-2 -14 -7 -28.5t-12.5 -28t-16.5 -24.5t-19 -17q-16 -11 -61.5 -20.5t-119.5 -9.5q-79 0 -131.5 13.5t-80.5 37.5q-32 26 -50.5 76t-18.5 135zM313 410q-48 0 -67 -19q-13 -11 -18 -29t-5 -29q0 -8 4 -10.5t19 -2.5h106h26.5t12.5 3q5 5 5 12q0 18 -5 35t-15 25
q-9 7 -23.5 11t-39.5 4zM165 602q-16 0 -16 15q0 7 4 20.5t10.5 27.5t14.5 26.5t17 18.5q9 5 22 6.5t33 1.5h214q7 0 12 -3.5t5 -11.5t-4 -21t-10.5 -26.5t-14.5 -25.5t-16 -18q-10 -7 -24 -8.5t-35 -1.5h-212z" />
    <glyph glyph-name="Ebreve" unicode="&#x114;" horiz-adv-x="643" 
d="M380 538h-62t-46 -1q-14 -1 -18.5 -7t-4.5 -20v-81q0 -11 5.5 -15.5t19.5 -4.5h288q9 0 15 -3.5t6 -14.5q0 -10 -3.5 -24.5t-9.5 -29.5t-13.5 -28.5t-15.5 -20.5q-11 -8 -26 -10t-39 -2h-202q-16 0 -20.5 -6t-4.5 -18v-84q0 -17 5.5 -22.5t21.5 -6.5q8 0 16 -0.5
t18.5 -0.5t25 -0.5t34.5 -0.5q77 0 130.5 2.5t95.5 4.5q8 1 14.5 -4t5.5 -17q-2 -16 -8 -33.5t-15 -33.5t-19.5 -28.5t-19.5 -16.5q-8 -4 -22 -6.5t-38 -4t-61 -2t-92 -0.5q-83 0 -141.5 0.5t-107.5 2.5q-5 0 -13.5 5t-8.5 22v623q0 14 8.5 18t13.5 4q31 1 59 2t56.5 1.5
t59 1t66.5 0.5q94 0 148.5 -1.5t71.5 -9.5q9 -5 18 -17t16.5 -28t12.5 -34t7 -35q1 -9 -5.5 -14.5t-14.5 -5.5q-18 1 -41.5 2t-50.5 1.5t-56.5 1t-58.5 0.5zM492 878q0 -24 -1.5 -40t-4.5 -27t-7 -18.5t-10 -14.5q-11 -14 -41.5 -26.5t-81.5 -12.5q-93 0 -123 39
q-11 13 -15 32t-4 63v40q0 8 9 8h43q21 0 30 -7.5t9 -29.5v-15q0 -22 7 -33q12 -12 46 -12q15 0 27.5 2.5t18.5 10.5q4 5 5.5 12t1.5 21v13q0 23 10 30.5t32 7.5h39q10 0 10 -7v-36z" />
    <glyph glyph-name="ebreve" unicode="&#x115;" horiz-adv-x="606" 
d="M41 254q0 92 22.5 146.5t57.5 81.5q29 23 80 36t121 13q75 0 120 -12t70 -35q12 -11 23 -28.5t19.5 -45.5t13.5 -68t5 -97q0 -14 -3.5 -20.5t-17.5 -6.5h-301q-18 0 -23.5 -4t-5.5 -13q0 -32 21 -53q13 -11 43 -16t84 -5t98 3.5t72 6.5q8 0 13 -4.5t5 -12.5
q-2 -14 -7 -28.5t-12.5 -28t-16.5 -24.5t-19 -17q-16 -11 -61.5 -20.5t-119.5 -9.5q-79 0 -131.5 13.5t-80.5 37.5q-32 26 -50.5 76t-18.5 135zM313 410q-48 0 -67 -19q-13 -11 -18 -29t-5 -29q0 -8 4 -10.5t19 -2.5h106h26.5t12.5 3q5 5 5 12q0 18 -5 35t-15 25
q-9 7 -23.5 11t-39.5 4zM459 724q0 -24 -1.5 -40t-4.5 -27t-7 -18.5t-10 -14.5q-11 -14 -41.5 -26.5t-81.5 -12.5q-93 0 -123 39q-11 13 -15 32t-4 63v40q0 8 9 8h43q21 0 30 -7.5t9 -29.5v-15q0 -22 7 -33q12 -12 46 -12q15 0 27.5 2.5t18.5 10.5q4 5 5.5 12t1.5 21v13
q0 23 10 30.5t32 7.5h39q10 0 10 -7v-36z" />
    <glyph glyph-name="Edotaccent" unicode="&#x116;" horiz-adv-x="643" 
d="M380 538h-62t-46 -1q-14 -1 -18.5 -7t-4.5 -20v-81q0 -11 5.5 -15.5t19.5 -4.5h288q9 0 15 -3.5t6 -14.5q0 -10 -3.5 -24.5t-9.5 -29.5t-13.5 -28.5t-15.5 -20.5q-11 -8 -26 -10t-39 -2h-202q-16 0 -20.5 -6t-4.5 -18v-84q0 -17 5.5 -22.5t21.5 -6.5q8 0 16 -0.5
t18.5 -0.5t25 -0.5t34.5 -0.5q77 0 130.5 2.5t95.5 4.5q8 1 14.5 -4t5.5 -17q-2 -16 -8 -33.5t-15 -33.5t-19.5 -28.5t-19.5 -16.5q-8 -4 -22 -6.5t-38 -4t-61 -2t-92 -0.5q-83 0 -141.5 0.5t-107.5 2.5q-5 0 -13.5 5t-8.5 22v623q0 14 8.5 18t13.5 4q31 1 59 2t56.5 1.5
t59 1t66.5 0.5q94 0 148.5 -1.5t71.5 -9.5q9 -5 18 -17t16.5 -28t12.5 -34t7 -35q1 -9 -5.5 -14.5t-14.5 -5.5q-18 1 -41.5 2t-50.5 1.5t-56.5 1t-58.5 0.5zM439 827q0 -23 -5.5 -40t-16.5 -25q-6 -4 -15 -6.5t-18.5 -4t-19 -2t-15.5 -0.5q-27 0 -43 4t-24 9q-8 7 -13.5 22
t-5.5 38q0 22 6 39t15 23q8 7 27 11.5t43 4.5q50 0 67 -14q18 -15 18 -59z" />
    <glyph glyph-name="edotaccent" unicode="&#x117;" horiz-adv-x="606" 
d="M41 254q0 92 22.5 146.5t57.5 81.5q29 23 80 36t121 13q75 0 120 -12t70 -35q12 -11 23 -28.5t19.5 -45.5t13.5 -68t5 -97q0 -14 -3.5 -20.5t-17.5 -6.5h-301q-18 0 -23.5 -4t-5.5 -13q0 -32 21 -53q13 -11 43 -16t84 -5t98 3.5t72 6.5q8 0 13 -4.5t5 -12.5
q-2 -14 -7 -28.5t-12.5 -28t-16.5 -24.5t-19 -17q-16 -11 -61.5 -20.5t-119.5 -9.5q-79 0 -131.5 13.5t-80.5 37.5q-32 26 -50.5 76t-18.5 135zM313 410q-48 0 -67 -19q-13 -11 -18 -29t-5 -29q0 -8 4 -10.5t19 -2.5h106h26.5t12.5 3q5 5 5 12q0 18 -5 35t-15 25
q-9 7 -23.5 11t-39.5 4zM399 673q0 -23 -5.5 -40t-16.5 -25q-6 -4 -15 -6.5t-18.5 -4t-19 -2t-15.5 -0.5q-27 0 -43 4t-24 9q-8 7 -13.5 22t-5.5 38q0 22 6 39t15 23q8 7 27 11.5t43 4.5q50 0 67 -14q18 -15 18 -59z" />
    <glyph glyph-name="Eogonek" unicode="&#x118;" horiz-adv-x="643" 
d="M388 539q-33 0 -66 -0.5t-50 -1.5q-15 -1 -19.5 -7t-4.5 -20v-81q0 -11 5.5 -15.5t19.5 -4.5l288 1q10 0 15.5 -3.5t5.5 -14.5q0 -10 -3.5 -24.5t-9 -30t-13 -29t-16.5 -20.5q-10 -8 -25.5 -10t-38.5 -2h-202q-16 0 -21 -6t-5 -18v-84q0 -17 5.5 -22.5t21.5 -6.5
q8 0 16.5 -0.5t19 -0.5t24.5 -0.5t34 -0.5q77 0 131 2.5t95 4.5q9 1 15 -3.5t5 -16.5q-1 -13 -6 -28t-11.5 -30t-15 -28t-16.5 -22q-14 -14 -33.5 -30t-40.5 -34q-35 -29 -49 -43t-17 -21q-6 -9 -6 -22q0 -14 8 -19q4 -4 22 -5.5t35 -1.5q24 0 42 1.5t35 3.5q3 1 6 -1.5
t3 -7.5q0 -6 -4 -16t-10 -20.5t-13.5 -19.5t-14.5 -13q-11 -8 -39 -12.5t-62 -4.5q-39 0 -67 6t-39 17q-9 9 -15.5 25.5t-6.5 49.5q0 23 6 41t15 30q11 14 38.5 37t56.5 43h-85q-76 0 -134.5 0.5t-104.5 2.5q-5 0 -14 5t-9 22v622q0 14 9 18t14 4q30 1 58 2t56 1.5t59 1
t67 0.5q95 0 149.5 -1.5t70.5 -9.5q9 -5 18 -17t16.5 -28t12.5 -34t7 -35q1 -9 -5 -14.5t-14 -5.5q-36 2 -88.5 4t-110.5 2z" />
    <glyph glyph-name="eogonek" unicode="&#x119;" horiz-adv-x="606" 
d="M41 254q0 92 22.5 146.5t57.5 81.5q28 23 79.5 36t121.5 13q74 0 119 -12t70 -35q12 -11 23.5 -28.5t20 -45.5t13.5 -68t5 -97q0 -14 -4 -20.5t-17 -6.5h-301q-18 0 -23.5 -4t-5.5 -13q0 -33 21 -53q12 -11 42.5 -17t84.5 -6t99.5 3.5t72.5 6.5q7 0 11.5 -4t2.5 -11
q-2 -24 -14.5 -49t-26.5 -43q-17 -17 -45.5 -39.5t-51.5 -39.5q-17 -14 -28 -23.5t-18 -16t-10.5 -11t-5.5 -8.5q-6 -11 -6 -24q0 -15 7 -19q5 -4 21 -6t34 -2q24 0 43.5 1.5t36.5 3.5q8 2 8 -8q0 -6 -3.5 -16t-9.5 -20.5t-13.5 -19.5t-14.5 -13q-12 -8 -39 -12.5t-61 -4.5
q-83 0 -107 24q-9 8 -15.5 25t-6.5 48q0 23 6.5 42t15.5 31q11 14 34.5 33t58.5 40q-5 0 -15.5 -0.5t-19.5 -0.5q-70 0 -121 13.5t-79 37.5q-32 26 -50.5 76t-18.5 135zM313 410q-47 0 -67 -18q-13 -11 -18 -29.5t-5 -30.5q0 -8 3.5 -10t19.5 -2h106h26.5t11.5 2q6 6 6 13
q0 18 -5 35.5t-15 25.5q-9 6 -23.5 10t-39.5 4z" />
    <glyph glyph-name="Ecaron" unicode="&#x11a;" horiz-adv-x="643" 
d="M380 538h-62t-46 -1q-14 -1 -18.5 -7t-4.5 -20v-81q0 -11 5.5 -15.5t19.5 -4.5h288q9 0 15 -3.5t6 -14.5q0 -10 -3.5 -24.5t-9.5 -29.5t-13.5 -28.5t-15.5 -20.5q-11 -8 -26 -10t-39 -2h-202q-16 0 -20.5 -6t-4.5 -18v-84q0 -17 5.5 -22.5t21.5 -6.5q8 0 16 -0.5
t18.5 -0.5t25 -0.5t34.5 -0.5q77 0 130.5 2.5t95.5 4.5q8 1 14.5 -4t5.5 -17q-2 -16 -8 -33.5t-15 -33.5t-19.5 -28.5t-19.5 -16.5q-8 -4 -22 -6.5t-38 -4t-61 -2t-92 -0.5q-83 0 -141.5 0.5t-107.5 2.5q-5 0 -13.5 5t-8.5 22v623q0 14 8.5 18t13.5 4q31 1 59 2t56.5 1.5
t59 1t66.5 0.5q94 0 148.5 -1.5t71.5 -9.5q9 -5 18 -17t16.5 -28t12.5 -34t7 -35q1 -9 -5.5 -14.5t-14.5 -5.5q-18 1 -41.5 2t-50.5 1.5t-56.5 1t-58.5 0.5zM345 727q-8 0 -16.5 3.5t-21.5 11.5l-70 42q-14 9 -23 17.5t-14.5 18.5t-8 23.5t-2.5 33.5v42q0 8 6.5 11t11.5 -2
l103 -64q11 -8 20 -12.5t17 -4.5q7 0 15 3t22 14l99 66q7 4 13 1.5t6 -9.5v-51q0 -35 -12.5 -53.5t-39.5 -35.5l-65 -37q-12 -8 -21 -13t-19 -5z" />
    <glyph glyph-name="ecaron" unicode="&#x11b;" horiz-adv-x="606" 
d="M41 254q0 92 22.5 146.5t57.5 81.5q29 23 80 36t121 13q75 0 120 -12t70 -35q12 -11 23 -28.5t19.5 -45.5t13.5 -68t5 -97q0 -14 -3.5 -20.5t-17.5 -6.5h-301q-18 0 -23.5 -4t-5.5 -13q0 -32 21 -53q13 -11 43 -16t84 -5t98 3.5t72 6.5q8 0 13 -4.5t5 -12.5
q-2 -14 -7 -28.5t-12.5 -28t-16.5 -24.5t-19 -17q-16 -11 -61.5 -20.5t-119.5 -9.5q-79 0 -131.5 13.5t-80.5 37.5q-32 26 -50.5 76t-18.5 135zM313 410q-48 0 -67 -19q-13 -11 -18 -29t-5 -29q0 -8 4 -10.5t19 -2.5h106h26.5t12.5 3q5 5 5 12q0 18 -5 35t-15 25
q-9 7 -23.5 11t-39.5 4zM312 573q-8 0 -16.5 3.5t-21.5 11.5l-70 42q-14 9 -23 17.5t-14.5 18.5t-8 23.5t-2.5 33.5v42q0 8 6.5 11t11.5 -2l103 -64q11 -8 20 -12.5t17 -4.5q7 0 15 3t22 14l99 66q7 4 13 1.5t6 -9.5v-51q0 -35 -12.5 -53.5t-39.5 -35.5l-65 -37
q-12 -8 -21 -13t-19 -5z" />
    <glyph glyph-name="Gcircumflex" unicode="&#x11c;" horiz-adv-x="719" 
d="M665 92q0 -34 -9.5 -47.5t-34.5 -21.5q-38 -11 -101.5 -21t-144.5 -10q-53 0 -92.5 4.5t-69.5 13t-52 20t-38 25.5t-30.5 36.5t-25.5 55.5t-17.5 77.5t-6.5 102.5q0 61 8 108.5t21.5 82.5t30 59t33.5 39q33 30 99.5 49t172.5 19q73 0 122.5 -6t72.5 -18q10 -6 19.5 -18.5
t18 -28.5t14 -33.5t7.5 -35.5q0 -7 -5.5 -12t-13.5 -4q-31 3 -83 7t-110 4q-78 0 -119.5 -9.5t-59.5 -26.5q-19 -17 -34 -58.5t-15 -107.5q0 -78 12 -117.5t29 -54.5q16 -14 43 -20t65 -6q35 0 59 2t41 5t17 26v82q0 19 -19 19h-95q-12 0 -12 15q0 8 4 22.5t10 29.5
t13.5 28.5t15.5 18.5q8 8 22.5 11.5t40.5 3.5h150q21 0 34 -9t13 -38v-263zM375 941q14 0 37 -16l71 -41q14 -9 23 -17.5t14.5 -19t8 -24t2.5 -32.5v-42q0 -8 -6 -11t-13 2l-102 65q-11 7 -19.5 12t-16.5 5t-16.5 -4t-22.5 -14l-99 -65q-6 -5 -12 -2.5t-6 10.5v49
q0 36 12.5 54t38.5 36l66 37q12 8 21.5 13t18.5 5z" />
    <glyph glyph-name="gcircumflex" unicode="&#x11d;" horiz-adv-x="617" 
d="M350 527q69 0 124 -4t87 -7q18 -2 18 -18q0 -105 -16.5 -183t-52.5 -110q-11 -10 -26.5 -18t-39.5 -13.5t-57.5 -9.5t-81.5 -5q-42 -1 -58.5 -2.5t-22.5 -4.5q-5 -3 -6.5 -14.5t-1.5 -24.5q0 -15 14 -14q15 0 52 0.5t82 0.5q89 0 133 -6t60 -16q14 -11 24 -37.5t10 -75.5
q0 -63 -16 -105.5t-38 -60.5q-29 -23 -86.5 -36.5t-152.5 -13.5q-83 0 -135.5 7.5t-72.5 23.5q-20 14 -30 43t-12 57q0 8 5 11.5t13 3.5q35 -4 85.5 -8t110.5 -4q67 0 101.5 4.5t41.5 11.5q15 10 15 39q0 25 -13 29q-2 1 -8.5 2t-21 1.5t-38 1t-59.5 0.5q-53 0 -109 -1
t-98 -1q-17 0 -17 16q0 23 2 49t4.5 50t4.5 43.5t2 30.5q0 32 -7 73t-7 100q0 107 46 149q13 10 32 18.5t48 14.5t70.5 9.5t98.5 3.5zM219 338q0 -20 3 -36t8 -18q3 -4 18 -4.5t32 -0.5q48 0 69.5 6t28.5 12q13 8 20.5 29.5t7.5 51.5q0 8 -2.5 13t-12.5 7q-14 2 -28.5 3
t-40.5 1q-73 0 -88 -15q-15 -14 -15 -49zM320 787q14 0 37 -16l71 -41q14 -9 23 -17.5t14.5 -19t8 -24t2.5 -32.5v-42q0 -8 -6 -11t-13 2l-102 65q-11 7 -19.5 12t-16.5 5t-16.5 -4t-22.5 -14l-99 -65q-6 -5 -12 -2.5t-6 10.5v49q0 36 12.5 54t38.5 36l66 37q12 8 21.5 13
t18.5 5z" />
    <glyph glyph-name="Gbreve" unicode="&#x11e;" horiz-adv-x="719" 
d="M665 92q0 -34 -9.5 -47.5t-34.5 -21.5q-38 -11 -101.5 -21t-144.5 -10q-53 0 -92.5 4.5t-69.5 13t-52 20t-38 25.5t-30.5 36.5t-25.5 55.5t-17.5 77.5t-6.5 102.5q0 61 8 108.5t21.5 82.5t30 59t33.5 39q33 30 99.5 49t172.5 19q73 0 122.5 -6t72.5 -18q10 -6 19.5 -18.5
t18 -28.5t14 -33.5t7.5 -35.5q0 -7 -5.5 -12t-13.5 -4q-31 3 -83 7t-110 4q-78 0 -119.5 -9.5t-59.5 -26.5q-19 -17 -34 -58.5t-15 -107.5q0 -78 12 -117.5t29 -54.5q16 -14 43 -20t65 -6q35 0 59 2t41 5t17 26v82q0 19 -19 19h-95q-12 0 -12 15q0 8 4 22.5t10 29.5
t13.5 28.5t15.5 18.5q8 8 22.5 11.5t40.5 3.5h150q21 0 34 -9t13 -38v-263zM527 878q0 -24 -1.5 -40t-4.5 -27t-7 -18.5t-10 -14.5q-11 -14 -41.5 -26.5t-81.5 -12.5q-93 0 -123 39q-11 13 -15 32t-4 63v40q0 8 9 8h43q21 0 30 -7.5t9 -29.5v-15q0 -22 7 -33q12 -12 46 -12
q15 0 27.5 2.5t18.5 10.5q4 5 5.5 12t1.5 21v13q0 23 10 30.5t32 7.5h39q10 0 10 -7v-36z" />
    <glyph glyph-name="gbreve" unicode="&#x11f;" horiz-adv-x="617" 
d="M350 527q69 0 124 -4t87 -7q18 -2 18 -18q0 -105 -16.5 -183t-52.5 -110q-11 -10 -26.5 -18t-39.5 -13.5t-57.5 -9.5t-81.5 -5q-42 -1 -58.5 -2.5t-22.5 -4.5q-5 -3 -6.5 -14.5t-1.5 -24.5q0 -15 14 -14q15 0 52 0.5t82 0.5q89 0 133 -6t60 -16q14 -11 24 -37.5t10 -75.5
q0 -63 -16 -105.5t-38 -60.5q-29 -23 -86.5 -36.5t-152.5 -13.5q-83 0 -135.5 7.5t-72.5 23.5q-20 14 -30 43t-12 57q0 8 5 11.5t13 3.5q35 -4 85.5 -8t110.5 -4q67 0 101.5 4.5t41.5 11.5q15 10 15 39q0 25 -13 29q-2 1 -8.5 2t-21 1.5t-38 1t-59.5 0.5q-53 0 -109 -1
t-98 -1q-17 0 -17 16q0 23 2 49t4.5 50t4.5 43.5t2 30.5q0 32 -7 73t-7 100q0 107 46 149q13 10 32 18.5t48 14.5t70.5 9.5t98.5 3.5zM219 338q0 -20 3 -36t8 -18q3 -4 18 -4.5t32 -0.5q48 0 69.5 6t28.5 12q13 8 20.5 29.5t7.5 51.5q0 8 -2.5 13t-12.5 7q-14 2 -28.5 3
t-40.5 1q-73 0 -88 -15q-15 -14 -15 -49zM461 724q0 -24 -1.5 -40t-4.5 -27t-7 -18.5t-10 -14.5q-11 -14 -41.5 -26.5t-81.5 -12.5q-93 0 -123 39q-11 13 -15 32t-4 63v40q0 8 9 8h43q21 0 30 -7.5t9 -29.5v-15q0 -22 7 -33q12 -12 46 -12q15 0 27.5 2.5t18.5 10.5
q4 5 5.5 12t1.5 21v13q0 23 10 30.5t32 7.5h39q10 0 10 -7v-36z" />
    <glyph glyph-name="Gdotaccent" unicode="&#x120;" horiz-adv-x="719" 
d="M665 92q0 -34 -9.5 -47.5t-34.5 -21.5q-38 -11 -101.5 -21t-144.5 -10q-53 0 -92.5 4.5t-69.5 13t-52 20t-38 25.5t-30.5 36.5t-25.5 55.5t-17.5 77.5t-6.5 102.5q0 61 8 108.5t21.5 82.5t30 59t33.5 39q33 30 99.5 49t172.5 19q73 0 122.5 -6t72.5 -18q10 -6 19.5 -18.5
t18 -28.5t14 -33.5t7.5 -35.5q0 -7 -5.5 -12t-13.5 -4q-31 3 -83 7t-110 4q-78 0 -119.5 -9.5t-59.5 -26.5q-19 -17 -34 -58.5t-15 -107.5q0 -78 12 -117.5t29 -54.5q16 -14 43 -20t65 -6q35 0 59 2t41 5t17 26v82q0 19 -19 19h-95q-12 0 -12 15q0 8 4 22.5t10 29.5
t13.5 28.5t15.5 18.5q8 8 22.5 11.5t40.5 3.5h150q21 0 34 -9t13 -38v-263zM473 827q0 -23 -5.5 -40t-16.5 -25q-6 -4 -15 -6.5t-18.5 -4t-19 -2t-15.5 -0.5q-27 0 -43 4t-24 9q-8 7 -13.5 22t-5.5 38q0 22 6 39t15 23q8 7 27 11.5t43 4.5q50 0 67 -14q18 -15 18 -59z" />
    <glyph glyph-name="gdotaccent" unicode="&#x121;" horiz-adv-x="617" 
d="M350 527q69 0 124 -4t87 -7q18 -2 18 -18q0 -105 -16.5 -183t-52.5 -110q-11 -10 -26.5 -18t-39.5 -13.5t-57.5 -9.5t-81.5 -5q-42 -1 -58.5 -2.5t-22.5 -4.5q-5 -3 -6.5 -14.5t-1.5 -24.5q0 -15 14 -14q15 0 52 0.5t82 0.5q89 0 133 -6t60 -16q14 -11 24 -37.5t10 -75.5
q0 -63 -16 -105.5t-38 -60.5q-29 -23 -86.5 -36.5t-152.5 -13.5q-83 0 -135.5 7.5t-72.5 23.5q-20 14 -30 43t-12 57q0 8 5 11.5t13 3.5q35 -4 85.5 -8t110.5 -4q67 0 101.5 4.5t41.5 11.5q15 10 15 39q0 25 -13 29q-2 1 -8.5 2t-21 1.5t-38 1t-59.5 0.5q-53 0 -109 -1
t-98 -1q-17 0 -17 16q0 23 2 49t4.5 50t4.5 43.5t2 30.5q0 32 -7 73t-7 100q0 107 46 149q13 10 32 18.5t48 14.5t70.5 9.5t98.5 3.5zM219 338q0 -20 3 -36t8 -18q3 -4 18 -4.5t32 -0.5q48 0 69.5 6t28.5 12q13 8 20.5 29.5t7.5 51.5q0 8 -2.5 13t-12.5 7q-14 2 -28.5 3
t-40.5 1q-73 0 -88 -15q-15 -14 -15 -49zM408 673q0 -23 -5.5 -40t-16.5 -25q-6 -4 -15 -6.5t-18.5 -4t-19 -2t-15.5 -0.5q-27 0 -43 4t-24 9q-8 7 -13.5 22t-5.5 38q0 22 6 39t15 23q8 7 27 11.5t43 4.5q50 0 67 -14q18 -15 18 -59z" />
    <glyph glyph-name="Gcommaaccent" unicode="&#x122;" horiz-adv-x="719" 
d="M665 92q0 -34 -9.5 -47.5t-34.5 -21.5q-38 -11 -101.5 -21t-144.5 -10q-53 0 -92.5 4.5t-69.5 13t-52 20t-38 25.5t-30.5 36.5t-25.5 55.5t-17.5 77.5t-6.5 102.5q0 61 8 108.5t21.5 82.5t30 59t33.5 39q33 30 99.5 49t172.5 19q73 0 122.5 -6t72.5 -18q10 -6 19.5 -18.5
t18 -28.5t14 -33.5t7.5 -35.5q0 -7 -5.5 -12t-13.5 -4q-31 3 -83 7t-110 4q-78 0 -119.5 -9.5t-59.5 -26.5q-19 -17 -34 -58.5t-15 -107.5q0 -78 12 -117.5t29 -54.5q16 -14 43 -20t65 -6q35 0 59 2t41 5t17 26v82q0 19 -19 19h-95q-12 0 -12 15q0 8 4 22.5t10 29.5
t13.5 28.5t15.5 18.5q8 8 22.5 11.5t40.5 3.5h150q21 0 34 -9t13 -38v-263zM416 -164q-9 -21 -17.5 -34.5t-18.5 -21t-23.5 -10.5t-33.5 -3h-47q-7 0 -10.5 4t1.5 14l50 115q13 32 28 44t47 12h60q6 0 10 -5t1 -13z" />
    <glyph glyph-name="gcommaaccent" unicode="&#x123;" horiz-adv-x="617" 
d="M401 658q-9 -21 -17.5 -34.5t-18.5 -21t-23.5 -10.5t-33.5 -3h-47q-7 0 -10.5 4t1.5 14l50 115q13 32 28 44t47 12h60q6 0 10 -5t1 -13zM350 527q69 0 124 -4t87 -7q18 -2 18 -18q0 -105 -16.5 -183t-52.5 -110q-11 -10 -26.5 -18t-39.5 -13.5t-57.5 -9.5t-81.5 -5
q-42 -1 -58.5 -2.5t-22.5 -4.5q-5 -3 -6.5 -14.5t-1.5 -24.5q0 -15 14 -14q15 0 52 0.5t82 0.5q89 0 133 -6t60 -16q14 -11 24 -37.5t10 -75.5q0 -63 -16 -105.5t-38 -60.5q-29 -23 -86.5 -36.5t-152.5 -13.5q-83 0 -135.5 7.5t-72.5 23.5q-20 14 -30 43t-12 57q0 8 5 11.5
t13 3.5q35 -4 85.5 -8t110.5 -4q67 0 101.5 4.5t41.5 11.5q15 10 15 39q0 25 -13 29q-2 1 -8.5 2t-21 1.5t-38 1t-59.5 0.5q-53 0 -109 -1t-98 -1q-17 0 -17 16q0 23 2 49t4.5 50t4.5 43.5t2 30.5q0 32 -7 73t-7 100q0 107 46 149q13 10 32 18.5t48 14.5t70.5 9.5t98.5 3.5z
M219 338q0 -20 3 -36t8 -18q3 -4 18 -4.5t32 -0.5q48 0 69.5 6t28.5 12q13 8 20.5 29.5t7.5 51.5q0 8 -2.5 13t-12.5 7q-14 2 -28.5 3t-40.5 1q-73 0 -88 -15q-15 -14 -15 -49z" />
    <glyph glyph-name="Hcircumflex" unicode="&#x124;" horiz-adv-x="765" 
d="M695 18q0 -8 -5 -13t-12 -5h-112q-29 0 -39 10t-10 44v153q0 36 -9.5 47.5t-38.5 11.5h-170q-31 0 -40.5 -11t-9.5 -46v-156q0 -32 -10 -42.5t-39 -10.5h-114q-16 0 -16 20v639q0 8 5 12.5t12 4.5h107q32 0 43.5 -9.5t11.5 -43.5v-152q0 -19 2.5 -30t8.5 -16t15 -6.5
t23 -1.5h172q28 0 37.5 9.5t9.5 42.5v156q0 32 10 41.5t41 9.5h110q17 0 17 -18v-640zM383 941q14 0 37 -16l71 -41q14 -9 23 -17.5t14.5 -19t8 -24t2.5 -32.5v-42q0 -8 -6 -11t-13 2l-102 65q-11 7 -19.5 12t-16.5 5t-16.5 -4t-22.5 -14l-99 -65q-6 -5 -12 -2.5t-6 10.5v49
q0 36 12.5 54t38.5 36l66 37q12 8 21.5 13t18.5 5z" />
    <glyph glyph-name="hcircumflex" unicode="&#x125;" horiz-adv-x="653" 
d="M592 19q0 -19 -19 -19h-136q-14 0 -17 6.5t-3 18.5v262q0 34 -3 53t-12 30q-8 10 -23 14t-46 4q-20 0 -40.5 -2t-32.5 -4q-12 -3 -16.5 -10t-4.5 -30v-323q0 -19 -18 -19h-143q-9 0 -11.5 5t-2.5 15v703q0 18 17 18h143q10 0 12.5 -5t2.5 -15v-190q0 -8 4.5 -13.5
t13.5 -3.5q30 5 69 9.5t87 4.5q54 0 87.5 -8.5t56.5 -31.5q20 -21 27.5 -59t7.5 -108v-302zM156 964q14 0 37 -16l71 -41q14 -9 23 -17.5t14.5 -19t8 -24t2.5 -32.5v-42q0 -8 -6 -11t-13 2l-102 65q-11 7 -19.5 12t-16.5 5t-16.5 -4t-22.5 -14l-99 -65q-6 -5 -12 -2.5
t-6 10.5v49q0 36 12.5 54t38.5 36l66 37q12 8 21.5 13t18.5 5z" />
    <glyph glyph-name="Hbar" unicode="&#x126;" horiz-adv-x="774" 
d="M517 629q0 29 9 38t36 9h117q16 0 16 -17v-68q0 -14 5.5 -20t21.5 -6h44q14 0 14 -15q0 -6 -1.5 -19.5t-4.5 -28.5t-7.5 -28.5t-11.5 -19.5q-9 -6 -28 -6h-11q-21 0 -21 -23v-409q0 -8 -4.5 -12t-9.5 -4h-115q-31 0 -40 11.5t-9 43.5v128q0 31 -10.5 39.5t-34.5 8.5h-175
q-31 0 -39 -10.5t-8 -37.5v-130q0 -29 -10.5 -41t-39.5 -12h-112q-18 0 -18 19v386q0 23 -5.5 33t-22.5 10h-46q-8 0 -12 3t-4 12q0 6 2 20t6 29.5t9.5 28.5t12.5 18q7 6 31 6h10q12 0 15.5 6t3.5 21v68q0 16 18 16h110q31 0 41.5 -10.5t10.5 -40.5v-34q0 -14 4.5 -20
t19.5 -6h222q13 0 17 6.5t4 20.5v37zM517 422q0 12 -6.5 19t-23.5 7h-205q-20 0 -26 -6t-6 -17v-39q0 -18 6 -24t26 -6h204q18 0 24.5 6t6.5 26v34z" />
    <glyph glyph-name="hbar" unicode="&#x127;" horiz-adv-x="671" 
d="M243 506q0 -9 5 -14.5t15 -3.5q26 5 66.5 10t91.5 5q57 0 90 -9t55 -32q22 -22 29.5 -59.5t7.5 -107.5v-276q0 -19 -19 -19h-141q-11 0 -15 5.5t-4 19.5v237q0 33 -4 52.5t-12 29.5q-8 11 -23 15t-46 4q-21 0 -41 -2t-34 -6q-11 -2 -16 -8.5t-5 -29.5v-299q0 -18 -17 -18
h-147q-10 0 -12.5 5t-2.5 14v527q0 13 -3.5 16.5t-17.5 3.5h-58q-8 0 -12 5t-4 12q2 31 11.5 55t20.5 32q6 4 13 5t15 1h14q21 0 21 24v21q0 9 5 14.5t19 5.5h140q15 0 15 -18v-25q0 -22 20 -22h172q13 0 13 -15q0 -11 -4 -24.5t-9.5 -25.5t-12.5 -21.5t-13 -13.5
q-8 -5 -19 -6.5t-25 -1.5h-98q-14 0 -19 -6t-5 -23v-33z" />
    <glyph glyph-name="Itilde" unicode="&#x128;" horiz-adv-x="320" 
d="M250 51q0 -31 -10.5 -41t-37.5 -10h-115q-17 0 -17 20v607q0 28 10 38.5t39 10.5h114q17 0 17 -19v-606zM217 741q-17 0 -43 16l-33 22q-11 8 -20 11.5t-19 3.5t-18 -3t-23 -13l-42 -31q-7 -5 -11.5 -2.5t-4.5 10.5v42q0 26 7 42t34 34l27 17q22 14 42 14q9 0 20 -3
t25 -12l27 -19q19 -15 39 -15q11 0 20.5 4.5t22.5 13.5l36 26q6 4 11.5 2t5.5 -9v-43q0 -29 -9 -45t-29 -31l-24 -16q-22 -16 -41 -16z" />
    <glyph glyph-name="itilde" unicode="&#x129;" horiz-adv-x="304" 
d="M240 19q0 -19 -20 -19h-141q-10 0 -12.5 5t-2.5 15v484q0 18 20 18h140q11 0 13.5 -4.5t2.5 -14.5v-484zM209 587q-17 0 -43 16l-33 22q-11 8 -20 11.5t-19 3.5t-18 -3t-23 -13l-42 -31q-7 -5 -11.5 -2.5t-4.5 10.5v42q0 26 7 42t34 34l27 17q22 14 42 14q9 0 20 -3
t25 -12l27 -19q19 -15 39 -15q11 0 20.5 4.5t22.5 13.5l36 26q6 4 11.5 2t5.5 -9v-43q0 -29 -9 -45t-29 -31l-24 -16q-22 -16 -41 -16z" />
    <glyph glyph-name="Imacron" unicode="&#x12a;" horiz-adv-x="320" 
d="M250 51q0 -31 -10.5 -41t-37.5 -10h-115q-17 0 -17 20v607q0 28 10 38.5t39 10.5h114q17 0 17 -19v-606zM13 756q-16 0 -16 15q0 7 4 20.5t10.5 27.5t14.5 26.5t17 18.5q9 5 22 6.5t33 1.5h214q7 0 12 -3.5t5 -11.5t-4 -21t-10.5 -26.5t-14.5 -25.5t-16 -18
q-10 -7 -24 -8.5t-35 -1.5h-212z" />
    <glyph glyph-name="imacron" unicode="&#x12b;" horiz-adv-x="304" 
d="M240 19q0 -19 -20 -19h-141q-10 0 -12.5 5t-2.5 15v484q0 18 20 18h140q11 0 13.5 -4.5t2.5 -14.5v-484zM7 602q-16 0 -16 15q0 7 4 20.5t10.5 27.5t14.5 26.5t17 18.5q9 5 22 6.5t33 1.5h214q7 0 12 -3.5t5 -11.5t-4 -21t-10.5 -26.5t-14.5 -25.5t-16 -18
q-10 -7 -24 -8.5t-35 -1.5h-212z" />
    <glyph glyph-name="Ibreve" unicode="&#x12c;" horiz-adv-x="320" 
d="M250 51q0 -31 -10.5 -41t-37.5 -10h-115q-17 0 -17 20v607q0 28 10 38.5t39 10.5h114q17 0 17 -19v-606zM303 878q0 -24 -1.5 -40t-4.5 -27t-7 -18.5t-10 -14.5q-11 -14 -41.5 -26.5t-81.5 -12.5q-93 0 -123 39q-11 13 -15 32t-4 63v40q0 8 9 8h43q21 0 30 -7.5t9 -29.5
v-15q0 -22 7 -33q12 -12 46 -12q15 0 27.5 2.5t18.5 10.5q4 5 5.5 12t1.5 21v13q0 23 10 30.5t32 7.5h39q10 0 10 -7v-36z" />
    <glyph glyph-name="ibreve" unicode="&#x12d;" horiz-adv-x="304" 
d="M240 19q0 -19 -20 -19h-141q-10 0 -12.5 5t-2.5 15v484q0 18 20 18h140q11 0 13.5 -4.5t2.5 -14.5v-484zM297 724q0 -24 -1.5 -40t-4.5 -27t-7 -18.5t-10 -14.5q-11 -14 -41.5 -26.5t-81.5 -12.5q-93 0 -123 39q-11 13 -15 32t-4 63v40q0 8 9 8h43q21 0 30 -7.5t9 -29.5
v-15q0 -22 7 -33q12 -12 46 -12q15 0 27.5 2.5t18.5 10.5q4 5 5.5 12t1.5 21v13q0 23 10 30.5t32 7.5h39q10 0 10 -7v-36z" />
    <glyph glyph-name="Iogonek" unicode="&#x12e;" horiz-adv-x="320" 
d="M249 51q0 -12 -1.5 -25.5t-6.5 -23.5q-6 -11 -16.5 -23.5t-29.5 -30.5q-28 -26 -40 -38t-18 -21q-2 -5 -3.5 -10.5t-1.5 -11.5q0 -15 8 -21q4 -3 19 -4.5t34 -1.5q25 0 44 1t36 3q10 2 10 -9q0 -6 -4 -16t-10 -20t-13 -19t-14 -13q-12 -8 -40 -12.5t-62 -4.5
q-39 0 -67.5 6t-39.5 17q-9 8 -15 24.5t-6 49.5q0 28 6.5 44t14.5 28q4 6 12.5 14.5l17.5 17.5t18.5 17t17.5 14q5 4 6.5 6.5t1.5 5.5q0 6 -16 6q-14 0 -17.5 4.5t-3.5 15.5v609q0 26 10 36.5t39 10.5h114q16 0 16 -17v-608z" />
    <glyph glyph-name="iogonek" unicode="&#x12f;" horiz-adv-x="304" 
d="M240 21q0 -21 -8 -32.5t-28 -28.5q-34 -29 -51.5 -46t-22.5 -26q-4 -5 -5.5 -9.5t-1.5 -12.5q0 -15 8 -19q6 -4 20 -5.5t32 -1.5q26 0 43.5 1.5t34.5 3.5q13 2 13 -11q0 -6 -3.5 -15.5t-8.5 -19.5t-12 -19t-13 -13q-13 -8 -42 -12.5t-62 -4.5q-38 0 -66 6t-39 17
q-10 8 -15.5 24.5t-5.5 49.5q0 47 21 73q7 9 25 24.5t38 32.5q8 7 12.5 10.5t4.5 6.5q0 6 -12 6q-20 0 -26 6.5t-6 24.5v474q0 17 21 17h139q11 0 13.5 -4.5t2.5 -14.5v-482zM253 668q0 -24 -6.5 -42.5t-17.5 -24.5q-7 -5 -17.5 -8t-21.5 -4.5t-21 -2t-16 -0.5
q-32 0 -50.5 4t-27.5 11q-19 13 -19 62q0 24 6 43t18 27q8 6 30.5 10t48.5 4q28 0 47 -3t27 -10q10 -7 15 -25t5 -41z" />
    <glyph glyph-name="Idotaccent" unicode="&#x130;" horiz-adv-x="320" 
d="M250 51q0 -31 -10.5 -41t-37.5 -10h-115q-17 0 -17 20v607q0 28 10 38.5t39 10.5h114q17 0 17 -19v-606zM246 827q0 -23 -5.5 -40t-16.5 -25q-6 -4 -15 -6.5t-18.5 -4t-19 -2t-15.5 -0.5q-27 0 -43 4t-24 9q-8 7 -13.5 22t-5.5 38q0 22 6 39t15 23q8 7 27 11.5t43 4.5
q50 0 67 -14q18 -15 18 -59z" />
    <glyph glyph-name="dotlessi" unicode="&#x131;" horiz-adv-x="304" 
d="M240 19q0 -19 -20 -19h-141q-10 0 -12.5 5t-2.5 15v484q0 18 20 18h140q11 0 13.5 -4.5t2.5 -14.5v-484z" />
    <glyph glyph-name="IJ" unicode="&#x132;" horiz-adv-x="911" 
d="M250 51q0 -31 -10.5 -41t-37.5 -10h-115q-17 0 -17 20v607q0 28 10 38.5t39 10.5h114q17 0 17 -19v-606zM542 -8q-40 0 -69.5 2t-50.5 5.5t-35.5 8.5t-23.5 11q-10 6 -19.5 18.5t-17 28t-12.5 32t-5 31.5q0 9 4.5 15t14.5 4q33 -3 70.5 -8t97.5 -5q58 0 87 6.5t47 21.5
q16 13 24 45t8 77v339q0 34 12 43t44 9h106q11 0 14 -5t3 -14v-355q0 -100 -16 -156.5t-50 -89.5q-63 -64 -233 -64z" />
    <glyph glyph-name="ij" unicode="&#x133;" horiz-adv-x="606" 
d="M240 19q0 -19 -20 -19h-141q-10 0 -12.5 5t-2.5 15v484q0 18 20 18h140q11 0 13.5 -4.5t2.5 -14.5v-484zM252 669q0 -24 -6 -43t-16 -27q-7 -5 -17.5 -7.5t-22 -3.5t-21.5 -1.5t-17 -0.5q-59 0 -77 15q-19 14 -19 62q0 25 6 43.5t17 26.5q8 5 30.5 9.5t48.5 4.5
q28 0 48 -3t28 -10q18 -15 18 -65zM542 -46q0 -50 -3.5 -80t-17.5 -51q-10 -15 -25.5 -27t-33.5 -20.5t-37.5 -13.5t-35.5 -5q-13 0 -17.5 6.5t-4.5 18.5v722q0 18 18 18h141q10 0 13 -4.5t3 -14.5v-549zM556 669q0 -24 -6 -43t-17 -27q-7 -5 -17.5 -7.5t-21.5 -3.5
t-21.5 -1.5t-16.5 -0.5q-60 0 -78 15q-18 13 -18 62q0 25 5.5 43.5t16.5 26.5q9 5 31 9.5t48 4.5q29 0 48.5 -3t27.5 -10q19 -16 19 -65z" />
    <glyph glyph-name="Jcircumflex" unicode="&#x134;" horiz-adv-x="607" 
d="M240 -8q-40 0 -69.5 2t-50.5 5.5t-35.5 8.5t-23.5 11q-10 6 -19.5 18.5t-17 28t-12.5 32t-5 31.5q0 9 4.5 15t14.5 4q33 -3 70.5 -8t97.5 -5q58 0 87 6.5t47 21.5q16 13 24 45t8 77v339q0 34 12 43t44 9h106q11 0 14 -5t3 -14v-355q0 -100 -16 -156.5t-50 -89.5
q-63 -64 -233 -64zM447 941q14 0 37 -16l71 -41q14 -9 23 -17.5t14.5 -19t8 -24t2.5 -32.5v-42q0 -8 -6 -11t-13 2l-102 65q-11 7 -19.5 12t-16.5 5t-16.5 -4t-22.5 -14l-99 -65q-6 -5 -12 -2.5t-6 10.5v49q0 36 12.5 54t38.5 36l66 37q12 8 21.5 13t18.5 5z" />
    <glyph glyph-name="jcircumflex" unicode="&#x135;" horiz-adv-x="308" 
d="M243 -46q0 -50 -3.5 -80t-18.5 -51q-9 -15 -25.5 -27t-36 -20.5t-40.5 -13.5t-39 -5q-11 0 -13.5 5.5t-2.5 15.5v726q0 18 18 18h145q11 0 13.5 -4.5t2.5 -14.5v-549zM155 781q16 0 38 -14l70 -43q13 -9 22.5 -16.5t14.5 -17t7.5 -23.5t2.5 -35v-48q0 -14 -13 -7l-106 69
q-14 9 -21.5 12.5t-15.5 3.5q-7 0 -15 -3.5t-22 -13.5l-103 -68q-5 -4 -9 -2t-4 8v56q0 19 3 32t9.5 22t15.5 15.5t21 14.5l68 42q12 9 20.5 12.5t16.5 3.5z" />
    <glyph glyph-name="Kcommaaccent" unicode="&#x136;" horiz-adv-x="717" 
d="M249 446q0 -20 4.5 -25.5t22.5 -5.5h58q18 0 30.5 2.5t22.5 8.5t18 16.5t16 27.5l60 123q12 24 23 40t25.5 25.5t33 13.5t45.5 4h72q8 0 14.5 -5.5t-0.5 -20.5l-115 -244q-11 -23 -16 -38.5t-5 -27.5q0 -25 22 -72l114 -244q5 -11 -1.5 -17.5t-16.5 -6.5h-82q-26 0 -44 4
t-31.5 14t-23.5 26t-21 40l-57 124q-17 35 -34.5 46.5t-51.5 11.5h-57q-16 0 -20.5 -6.5t-4.5 -27.5v-182q0 -28 -9.5 -39t-38.5 -11h-115q-16 0 -16 20v639q0 17 18 17h130q17 0 24 -8.5t7 -26.5v-195zM407 -164q-9 -21 -17.5 -34.5t-18.5 -21t-23.5 -10.5t-33.5 -3h-47
q-7 0 -10.5 4t1.5 14l50 115q13 32 28 44t47 12h60q6 0 10 -5t1 -13z" />
    <glyph glyph-name="kcommaaccent" unicode="&#x137;" horiz-adv-x="616" 
d="M239 354q0 -18 4 -23t22 -5h39q23 0 34 7t22 30l35 79q9 24 19 39.5t23.5 24.5t32 12.5t44.5 3.5h67q11 0 15.5 -6t-0.5 -19l-80 -173q-9 -20 -14.5 -35t-5.5 -26t6 -27.5t16 -37.5l78 -175q5 -12 -1.5 -17.5t-14.5 -5.5h-75q-27 0 -45 4t-30.5 14t-21 25t-16.5 38
l-31 71q-6 15 -12 25t-12.5 15t-15.5 7t-22 2h-34q-17 0 -21.5 -5t-4.5 -24v-153q0 -19 -19 -19h-142q-10 0 -12 5t-2 15v703q0 18 16 18h143q11 0 13.5 -5t2.5 -15v-367zM360 -164q-9 -21 -17.5 -34.5t-18.5 -21t-23.5 -10.5t-33.5 -3h-47q-7 0 -10.5 4t1.5 14l50 115
q13 32 28 44t47 12h60q6 0 10 -5t1 -13z" />
    <glyph glyph-name="kgreenlandic" unicode="&#x138;" horiz-adv-x="616" 
d="M239 354q0 -18 4.5 -23t21.5 -5h40q23 0 33.5 6.5t20.5 28.5l36 83q9 24 18.5 39t23 23.5t31 12t42.5 3.5h72q10 0 15 -6t0 -18l-81 -174q-9 -20 -14.5 -35t-5.5 -26t6 -27.5t16 -37.5l78 -175q5 -12 -1.5 -17.5t-14.5 -5.5h-77q-28 0 -46 4t-30 13t-19.5 24t-14.5 37
l-32 76q-13 29 -24.5 38t-36.5 9h-35q-17 0 -21.5 -5t-4.5 -24v-153q0 -19 -19 -19h-142q-10 0 -12 5t-2 15v484q0 18 16 18h143q11 0 13.5 -5t2.5 -15v-148z" />
    <glyph glyph-name="Lacute" unicode="&#x139;" horiz-adv-x="626" 
d="M67 659q0 17 15 17h117q28 0 37.5 -9t9.5 -43v-451q0 -17 6 -23t21 -7q16 0 46 -0.5t62 -0.5q59 0 117.5 2t100.5 4q22 3 21 -19q-1 -15 -7 -33.5t-14.5 -35.5t-18.5 -30t-19 -18q-8 -4 -20.5 -7t-34.5 -4.5t-57.5 -2.5t-90.5 -1q-82 0 -151 0.5t-117 3.5q-6 0 -14.5 5
t-8.5 22v631zM73 736q-9 -4 -13.5 0t-4.5 12v60q0 30 12.5 47t47.5 28l147 51q8 2 13 -0.5t5 -10.5v-57q0 -31 -13 -48t-47 -30z" />
    <glyph glyph-name="lacute" unicode="&#x13a;" horiz-adv-x="302" 
d="M239 19q0 -19 -19 -19h-85q-22 0 -36 3.5t-21.5 12t-10.5 23t-3 37.5v646q0 17 17 17h145q8 0 10.5 -5t2.5 -15v-700zM73 776q-9 -4 -13.5 0t-4.5 12v60q0 30 12.5 47t47.5 28l147 51q8 2 13 -0.5t5 -10.5v-57q0 -31 -13 -48t-47 -30z" />
    <glyph glyph-name="Lcommaaccent" unicode="&#x13b;" horiz-adv-x="626" 
d="M67 659q0 17 15 17h117q28 0 37.5 -9t9.5 -43v-451q0 -17 6 -23t21 -7q16 0 46 -0.5t62 -0.5q59 0 117.5 2t100.5 4q22 3 21 -19q-1 -15 -7 -33.5t-14.5 -35.5t-18.5 -30t-19 -18q-8 -4 -20.5 -7t-34.5 -4.5t-57.5 -2.5t-90.5 -1q-82 0 -151 0.5t-117 3.5q-6 0 -14.5 5
t-8.5 22v631zM368 -164q-9 -21 -17.5 -34.5t-18.5 -21t-23.5 -10.5t-33.5 -3h-47q-7 0 -10.5 4t1.5 14l50 115q13 32 28 44t47 12h60q6 0 10 -5t1 -13z" />
    <glyph glyph-name="lcommaaccent" unicode="&#x13c;" horiz-adv-x="302" 
d="M239 19q0 -19 -19 -19h-85q-22 0 -36 3.5t-21.5 12t-10.5 23t-3 37.5v646q0 17 17 17h145q8 0 10.5 -5t2.5 -15v-700zM198 -164q-9 -21 -17.5 -34.5t-18.5 -21t-23.5 -10.5t-33.5 -3h-47q-7 0 -10.5 4t1.5 14l50 115q13 32 28 44t47 12h60q6 0 10 -5t1 -13z" />
    <glyph glyph-name="Lcaron" unicode="&#x13d;" horiz-adv-x="626" 
d="M527 616q0 -34 -1 -57.5t-3 -40t-5.5 -28t-9.5 -21.5t-16 -20t-22 -18t-24 -13t-22 -5q-14 0 -14 16v162q0 27 2 45t9.5 28.5t22.5 15t40 4.5h29q14 0 14 -19v-49zM67 659q0 17 15 17h117q28 0 37.5 -9t9.5 -43v-451q0 -17 6 -23t21 -7q16 0 46 -0.5t62 -0.5
q59 0 117.5 2t100.5 4q22 3 21 -19q-1 -15 -7 -33.5t-14.5 -35.5t-18.5 -30t-19 -18q-8 -4 -20.5 -7t-34.5 -4.5t-57.5 -2.5t-90.5 -1q-82 0 -151 0.5t-117 3.5q-6 0 -14.5 5t-8.5 22v631z" />
    <glyph glyph-name="lcaron" unicode="&#x13e;" horiz-adv-x="358" 
d="M415 674q0 -34 -1 -57.5t-3 -40t-5.5 -28t-9.5 -21.5t-16 -20t-22 -18t-24 -13t-22 -5q-14 0 -14 16v162q0 27 2 45t9.5 28.5t22.5 15t40 4.5h29q14 0 14 -19v-49zM238 19q0 -19 -19 -19h-85q-22 0 -36 3.5t-21.5 12t-10.5 23t-3 37.5v646q0 17 17 17h145q8 0 10.5 -5
t2.5 -15v-700z" />
    <glyph glyph-name="Ldot" unicode="&#x13f;" horiz-adv-x="630" 
d="M67 659q0 17 15 17h117q28 0 37.5 -9t9.5 -43v-451q0 -17 6 -23t21 -7q16 0 46 -0.5t62 -0.5q59 0 117.5 2t100.5 4q22 3 21 -19q-1 -15 -7 -33.5t-14.5 -35.5t-18.5 -30t-19 -18q-8 -4 -20.5 -7t-34.5 -4.5t-57.5 -2.5t-90.5 -1q-82 0 -151 0.5t-117 3.5q-6 0 -14.5 5
t-8.5 22v631zM562 411q0 -23 -5.5 -40t-16.5 -25q-6 -4 -15 -6.5t-18.5 -4t-19 -2t-15.5 -0.5q-27 0 -43 4t-24 9q-8 7 -13.5 22t-5.5 38q0 22 6 39t15 23q8 7 27 11.5t43 4.5q50 0 67 -14q18 -15 18 -59z" />
    <glyph glyph-name="ldot" unicode="&#x140;" horiz-adv-x="432" 
d="M238 19q0 -19 -19 -19h-85q-22 0 -36 3.5t-21.5 12t-10.5 23t-3 37.5v646q0 17 17 17h145q8 0 10.5 -5t2.5 -15v-700zM458 388q0 -23 -5.5 -40t-16.5 -25q-6 -4 -15 -6.5t-18.5 -4t-19 -2t-15.5 -0.5q-27 0 -43 4t-24 9q-8 7 -13.5 22t-5.5 38q0 22 6 39t15 23
q8 7 27 11.5t43 4.5q50 0 67 -14q18 -15 18 -59z" />
    <glyph glyph-name="Lslash" unicode="&#x141;" horiz-adv-x="635" 
d="M77 658q0 18 15 18h116q28 0 37.5 -9t9.5 -43v-125q0 -16 8 -16q5 0 9.5 1.5t12.5 3.5l92 40q11 5 16 1t5 -11v-65q0 -20 -3.5 -34.5t-11 -25t-19.5 -18.5t-29 -15l-62 -27q-18 -8 -18 -28v-132q0 -17 6 -23t22 -7q16 0 43 -0.5t65 -0.5q69 0 122.5 2t94.5 4q22 3 22 -19
q-1 -15 -7 -33.5t-14.5 -35.5t-18.5 -30t-19 -18q-8 -4 -20.5 -7t-35 -4.5t-58 -2.5t-90.5 -1q-82 0 -150.5 0.5t-117.5 3.5q-5 0 -13.5 5t-8.5 22v211q0 13 -8 13q-4 0 -18 -7l-33 -14q-8 -3 -13 0t-5 11v74q0 29 8.5 45t28.5 27l27 11q9 5 11 12t2 24v223z" />
    <glyph glyph-name="lslash" unicode="&#x142;" horiz-adv-x="331" 
d="M74 722q0 17 20 17h145q10 0 12 -4.5t2 -13.5v-205q0 -14 8 -14q4 0 6.5 1l7.5 3l53 24q8 4 12 0t4 -10v-72q0 -17 -1 -30t-5 -23t-12.5 -18t-23.5 -15l-34 -16q-10 -5 -12.5 -12t-2.5 -24v-292q0 -18 -18 -18h-76q-26 0 -42.5 4t-26 14t-13 27t-3.5 44v165q0 14 -7 14
q-3 0 -7 -1t-9 -4l-44 -20q-8 -3 -13 0.5t-5 10.5v81q0 29 8.5 45t30.5 27l33 17q9 4 11 11t2 18v269z" />
    <glyph glyph-name="Nacute" unicode="&#x143;" horiz-adv-x="840" 
d="M771 136q0 -47 -6.5 -73t-19.5 -41q-7 -8 -18 -13.5t-28.5 -9t-42.5 -5.5t-60 -2q-59 0 -89 6.5t-47 20.5q-16 13 -31 39t-27 65l-116 374q-7 22 -14.5 30t-19.5 8q-14 0 -18 -5.5t-4 -19.5v-435q0 -25 -6 -39.5t-18 -22.5t-30.5 -10.5t-44.5 -2.5h-43q-18 0 -18 20v497
q0 63 8 93t25 46q16 14 48.5 21t89.5 7q52 0 82.5 -6.5t50.5 -20.5q36 -27 67 -125l113 -358q7 -22 14 -29.5t20 -7.5t16.5 9.5t3.5 25.5v431q0 21 3.5 35t13 22.5t27.5 12t48 3.5h52q19 0 19 -19v-521zM354 736q-9 -4 -13.5 0t-4.5 12v60q0 30 12.5 47t47.5 28l147 51
q8 2 13 -0.5t5 -10.5v-57q0 -31 -13 -48t-47 -30z" />
    <glyph glyph-name="nacute" unicode="&#x144;" horiz-adv-x="652" 
d="M592 18q0 -11 -4.5 -14.5t-13.5 -3.5h-138q-13 0 -16 6t-3 18v264q0 35 -2.5 54t-10.5 29q-9 11 -25 15.5t-45 4.5q-25 0 -43.5 -2t-33.5 -4q-11 -2 -14.5 -8t-3.5 -26v-332q0 -19 -18 -19h-143q-9 0 -11.5 5t-2.5 15v472q0 9 4 12.5t14 5.5q51 7 120.5 13t143.5 6
q47 0 81.5 -3.5t59 -9.5t40.5 -15t26 -19q11 -11 18.5 -24t12 -31.5t6.5 -44.5t2 -62v-302zM242 582q-9 -4 -13.5 0t-4.5 12v60q0 30 12.5 47t47.5 28l147 51q8 2 13 -0.5t5 -10.5v-57q0 -31 -13 -48t-47 -30z" />
    <glyph glyph-name="Ncommaaccent" unicode="&#x145;" horiz-adv-x="840" 
d="M771 136q0 -47 -6.5 -73t-19.5 -41q-7 -8 -18 -13.5t-28.5 -9t-42.5 -5.5t-60 -2q-59 0 -89 6.5t-47 20.5q-16 13 -31 39t-27 65l-116 374q-7 22 -14.5 30t-19.5 8q-14 0 -18 -5.5t-4 -19.5v-435q0 -25 -6 -39.5t-18 -22.5t-30.5 -10.5t-44.5 -2.5h-43q-18 0 -18 20v497
q0 63 8 93t25 46q16 14 48.5 21t89.5 7q52 0 82.5 -6.5t50.5 -20.5q36 -27 67 -125l113 -358q7 -22 14 -29.5t20 -7.5t16.5 9.5t3.5 25.5v431q0 21 3.5 35t13 22.5t27.5 12t48 3.5h52q19 0 19 -19v-521zM459 -164q-9 -21 -17.5 -34.5t-18.5 -21t-23.5 -10.5t-33.5 -3h-47
q-7 0 -10.5 4t1.5 14l50 115q13 32 28 44t47 12h60q6 0 10 -5t1 -13z" />
    <glyph glyph-name="ncommaaccent" unicode="&#x146;" horiz-adv-x="652" 
d="M592 18q0 -11 -4.5 -14.5t-13.5 -3.5h-138q-13 0 -16 6t-3 18v264q0 35 -2.5 54t-10.5 29q-9 11 -25 15.5t-45 4.5q-25 0 -43.5 -2t-33.5 -4q-11 -2 -14.5 -8t-3.5 -26v-332q0 -19 -18 -19h-143q-9 0 -11.5 5t-2.5 15v472q0 9 4 12.5t14 5.5q51 7 120.5 13t143.5 6
q47 0 81.5 -3.5t59 -9.5t40.5 -15t26 -19q11 -11 18.5 -24t12 -31.5t6.5 -44.5t2 -62v-302zM371 -164q-9 -21 -17.5 -34.5t-18.5 -21t-23.5 -10.5t-33.5 -3h-47q-7 0 -10.5 4t1.5 14l50 115q13 32 28 44t47 12h60q6 0 10 -5t1 -13z" />
    <glyph glyph-name="Ncaron" unicode="&#x147;" horiz-adv-x="840" 
d="M771 136q0 -47 -6.5 -73t-19.5 -41q-7 -8 -18 -13.5t-28.5 -9t-42.5 -5.5t-60 -2q-59 0 -89 6.5t-47 20.5q-16 13 -31 39t-27 65l-116 374q-7 22 -14.5 30t-19.5 8q-14 0 -18 -5.5t-4 -19.5v-435q0 -25 -6 -39.5t-18 -22.5t-30.5 -10.5t-44.5 -2.5h-43q-18 0 -18 20v497
q0 63 8 93t25 46q16 14 48.5 21t89.5 7q52 0 82.5 -6.5t50.5 -20.5q36 -27 67 -125l113 -358q7 -22 14 -29.5t20 -7.5t16.5 9.5t3.5 25.5v431q0 21 3.5 35t13 22.5t27.5 12t48 3.5h52q19 0 19 -19v-521zM435 727q-8 0 -16.5 3.5t-21.5 11.5l-70 42q-14 9 -23 17.5
t-14.5 18.5t-8 23.5t-2.5 33.5v42q0 8 6.5 11t11.5 -2l103 -64q11 -8 20 -12.5t17 -4.5q7 0 15 3t22 14l99 66q7 4 13 1.5t6 -9.5v-51q0 -35 -12.5 -53.5t-39.5 -35.5l-65 -37q-12 -8 -21 -13t-19 -5z" />
    <glyph glyph-name="ncaron" unicode="&#x148;" horiz-adv-x="652" 
d="M592 18q0 -11 -4.5 -14.5t-13.5 -3.5h-138q-13 0 -16 6t-3 18v264q0 35 -2.5 54t-10.5 29q-9 11 -25 15.5t-45 4.5q-25 0 -43.5 -2t-33.5 -4q-11 -2 -14.5 -8t-3.5 -26v-332q0 -19 -18 -19h-143q-9 0 -11.5 5t-2.5 15v472q0 9 4 12.5t14 5.5q51 7 120.5 13t143.5 6
q47 0 81.5 -3.5t59 -9.5t40.5 -15t26 -19q11 -11 18.5 -24t12 -31.5t6.5 -44.5t2 -62v-302zM329 573q-8 0 -16.5 3.5t-21.5 11.5l-70 42q-14 9 -23 17.5t-14.5 18.5t-8 23.5t-2.5 33.5v42q0 8 6.5 11t11.5 -2l103 -64q11 -8 20 -12.5t17 -4.5q7 0 15 3t22 14l99 66
q7 4 13 1.5t6 -9.5v-51q0 -35 -12.5 -53.5t-39.5 -35.5l-65 -37q-12 -8 -21 -13t-19 -5z" />
    <glyph glyph-name="napostrophe" unicode="&#x149;" horiz-adv-x="790" 
d="M159 508q-15 -41 -34.5 -59t-61.5 -18h-72q-14 0 -9 19l58 151q7 21 14.5 35t17.5 23t24.5 13t35.5 4h74q20 0 12 -19zM732 18q0 -11 -4.5 -14.5t-13.5 -3.5h-138q-13 0 -16 6t-3 18v264q0 35 -2.5 54t-10.5 29q-9 11 -25 15.5t-45 4.5q-25 0 -43.5 -2t-33.5 -4
q-11 -2 -14.5 -8t-3.5 -26v-332q0 -19 -18 -19h-143q-9 0 -11.5 5t-2.5 15v472q0 9 4 12.5t14 5.5q51 7 120.5 13t143.5 6q47 0 81.5 -3.5t59 -9.5t40.5 -15t26 -19q11 -11 18.5 -24t12 -31.5t6.5 -44.5t2 -62v-302z" />
    <glyph glyph-name="Eng" unicode="&#x14a;" horiz-adv-x="838" 
d="M465 -242q-78 0 -119 7.5t-58 18.5q-19 14 -35.5 47.5t-21.5 65.5q-1 6 3.5 10t10.5 3q29 -3 76.5 -6t97.5 -3q58 0 98.5 4.5t57.5 18.5q11 8 19.5 25t8.5 34t-21 17q-49 0 -82.5 4.5t-50.5 18.5q-16 13 -27 40t-22 65l-116 373q-7 20 -14 27.5t-19 7.5q-14 0 -18 -5.5
t-4 -18.5v-438q0 -24 -5.5 -38.5t-17 -22.5t-30 -10.5t-44.5 -2.5h-46q-17 0 -17 20v500q0 61 8 91t25 45q16 14 49.5 20.5t90.5 6.5q60 0 93 -6.5t50 -18.5q17 -14 28.5 -42t24.5 -79l115 -360q7 -23 13.5 -29.5t20.5 -6.5t17 8.5t3 25.5v429q0 21 3 34.5t13 22t27.5 12
t46.5 3.5h55q17 0 17 -18v-591q0 -53 -4 -92t-12 -68t-20.5 -50.5t-30.5 -38.5q-29 -28 -88.5 -44t-148.5 -16z" />
    <glyph glyph-name="eng" unicode="&#x14b;" horiz-adv-x="651" 
d="M416 267q0 43 -2 68t-12 37q-10 11 -26 15t-43 4q-23 0 -43 -2t-34 -4q-11 -2 -14.5 -7.5t-3.5 -31.5v-328q0 -18 -17 -18h-143q-9 0 -12 5.5t-3 14.5v473q0 9 4.5 12.5t13.5 4.5q52 7 122 13t142 6q89 0 138 -12t70 -35q10 -11 17.5 -24.5t12 -32t6.5 -44t2 -61.5v-361
q0 -33 -1 -55t-3.5 -37.5t-7 -26.5t-10.5 -20q-9 -14 -24.5 -25.5t-33.5 -19.5t-37.5 -13t-37.5 -5q-11 0 -15.5 7t-4.5 16v487z" />
    <glyph glyph-name="Omacron" unicode="&#x14c;" horiz-adv-x="756" 
d="M712 343q0 -115 -27 -187.5t-69 -105.5q-41 -32 -107.5 -47t-138.5 -15q-51 0 -90 5.5t-68.5 15t-51 22t-36.5 27.5q-35 32 -57.5 99t-22.5 181q0 109 29 182.5t69 107.5q32 26 93 45t152 19q97 0 155 -17.5t89 -46.5q33 -30 57 -102t24 -183zM530 343q0 69 -11 110
t-28 59q-17 14 -47.5 20.5t-62.5 6.5q-43 0 -70.5 -9t-41.5 -21q-16 -16 -30.5 -58.5t-14.5 -111.5q0 -66 12 -108t29 -59q15 -15 43.5 -23t63.5 -8q44 0 73 8t42 19q16 15 29.5 58t13.5 117zM235 756q-16 0 -16 15q0 7 4 20.5t10.5 27.5t14.5 26.5t17 18.5q9 5 22 6.5
t33 1.5h214q7 0 12 -3.5t5 -11.5t-4 -21t-10.5 -26.5t-14.5 -25.5t-16 -18q-10 -7 -24 -8.5t-35 -1.5h-212z" />
    <glyph glyph-name="omacron" unicode="&#x14d;" 
d="M604 268q0 -92 -25 -148.5t-55 -81.5t-83 -38.5t-129 -13.5t-129 16.5t-81 43.5q-25 26 -42.5 74t-17.5 133q0 86 22.5 143t56.5 84q32 25 81.5 38.5t130.5 13.5t131.5 -14.5t76.5 -41.5q27 -26 45 -75.5t18 -132.5zM432 262q0 43 -6 69.5t-18 40.5q-9 11 -30 17t-50 6
q-65 0 -86 -23q-10 -12 -19.5 -40t-9.5 -74q0 -41 6.5 -69.5t18.5 -42.5q12 -12 33.5 -17t47.5 -5q58 0 80 19q14 11 23.5 41.5t9.5 77.5zM182 602q-16 0 -16 15q0 7 4 20.5t10.5 27.5t14.5 26.5t17 18.5q9 5 22 6.5t33 1.5h214q7 0 12 -3.5t5 -11.5t-4 -21t-10.5 -26.5
t-14.5 -25.5t-16 -18q-10 -7 -24 -8.5t-35 -1.5h-212z" />
    <glyph glyph-name="Obreve" unicode="&#x14e;" horiz-adv-x="756" 
d="M712 343q0 -115 -27 -187.5t-69 -105.5q-41 -32 -107.5 -47t-138.5 -15q-51 0 -90 5.5t-68.5 15t-51 22t-36.5 27.5q-35 32 -57.5 99t-22.5 181q0 109 29 182.5t69 107.5q32 26 93 45t152 19q97 0 155 -17.5t89 -46.5q33 -30 57 -102t24 -183zM530 343q0 69 -11 110
t-28 59q-17 14 -47.5 20.5t-62.5 6.5q-43 0 -70.5 -9t-41.5 -21q-16 -16 -30.5 -58.5t-14.5 -111.5q0 -66 12 -108t29 -59q15 -15 43.5 -23t63.5 -8q44 0 73 8t42 19q16 15 29.5 58t13.5 117zM520 878q0 -24 -1.5 -40t-4.5 -27t-7 -18.5t-10 -14.5q-11 -14 -41.5 -26.5
t-81.5 -12.5q-93 0 -123 39q-11 13 -15 32t-4 63v40q0 8 9 8h43q21 0 30 -7.5t9 -29.5v-15q0 -22 7 -33q12 -12 46 -12q15 0 27.5 2.5t18.5 10.5q4 5 5.5 12t1.5 21v13q0 23 10 30.5t32 7.5h39q10 0 10 -7v-36z" />
    <glyph glyph-name="obreve" unicode="&#x14f;" 
d="M604 268q0 -92 -25 -148.5t-55 -81.5t-83 -38.5t-129 -13.5t-129 16.5t-81 43.5q-25 26 -42.5 74t-17.5 133q0 86 22.5 143t56.5 84q32 25 81.5 38.5t130.5 13.5t131.5 -14.5t76.5 -41.5q27 -26 45 -75.5t18 -132.5zM432 262q0 43 -6 69.5t-18 40.5q-9 11 -30 17t-50 6
q-65 0 -86 -23q-10 -12 -19.5 -40t-9.5 -74q0 -41 6.5 -69.5t18.5 -42.5q12 -12 33.5 -17t47.5 -5q58 0 80 19q14 11 23.5 41.5t9.5 77.5zM463 724q0 -24 -1.5 -40t-4.5 -27t-7 -18.5t-10 -14.5q-11 -14 -41.5 -26.5t-81.5 -12.5q-93 0 -123 39q-11 13 -15 32t-4 63v40
q0 8 9 8h43q21 0 30 -7.5t9 -29.5v-15q0 -22 7 -33q12 -12 46 -12q15 0 27.5 2.5t18.5 10.5q4 5 5.5 12t1.5 21v13q0 23 10 30.5t32 7.5h39q10 0 10 -7v-36z" />
    <glyph glyph-name="Ohungarumlaut" unicode="&#x150;" horiz-adv-x="756" 
d="M712 343q0 -115 -27 -187.5t-69 -105.5q-41 -32 -107.5 -47t-138.5 -15q-51 0 -90 5.5t-68.5 15t-51 22t-36.5 27.5q-35 32 -57.5 99t-22.5 181q0 109 29 182.5t69 107.5q32 26 93 45t152 19q97 0 155 -17.5t89 -46.5q33 -30 57 -102t24 -183zM530 343q0 69 -11 110
t-28 59q-17 14 -47.5 20.5t-62.5 6.5q-43 0 -70.5 -9t-41.5 -21q-16 -16 -30.5 -58.5t-14.5 -111.5q0 -66 12 -108t29 -59q15 -15 43.5 -23t63.5 -8q44 0 73 8t42 19q16 15 29.5 58t13.5 117zM537 815q-12 -29 -29 -40.5t-42 -11.5h-54q-5 0 -8 3.5t-1 11.5l49 121
q11 32 27 43t42 11h55q6 0 9.5 -3.5t0.5 -11.5zM347 817q-11 -31 -29 -42.5t-43 -11.5h-54q-14 0 -8 14l49 122q11 31 27.5 42.5t42.5 11.5h55q5 0 8.5 -3t1.5 -11z" />
    <glyph glyph-name="ohungarumlaut" unicode="&#x151;" 
d="M604 268q0 -92 -25 -148.5t-55 -81.5t-83 -38.5t-129 -13.5t-129 16.5t-81 43.5q-25 26 -42.5 74t-17.5 133q0 86 22.5 143t56.5 84q32 25 81.5 38.5t130.5 13.5t131.5 -14.5t76.5 -41.5q27 -26 45 -75.5t18 -132.5zM432 262q0 43 -6 69.5t-18 40.5q-9 11 -30 17t-50 6
q-65 0 -86 -23q-10 -12 -19.5 -40t-9.5 -74q0 -41 6.5 -69.5t18.5 -42.5q12 -12 33.5 -17t47.5 -5q58 0 80 19q14 11 23.5 41.5t9.5 77.5zM480 645q-12 -29 -29 -40.5t-42 -11.5h-54q-5 0 -8 3.5t-1 11.5l49 121q11 32 27 43t42 11h55q6 0 9.5 -3.5t0.5 -11.5zM290 647
q-11 -31 -29 -42.5t-43 -11.5h-54q-14 0 -8 14l49 122q11 31 27.5 42.5t42.5 11.5h55q5 0 8.5 -3t1.5 -11z" />
    <glyph glyph-name="OE" unicode="&#x152;" horiz-adv-x="1109" 
d="M623 676q37 0 80.5 1t108.5 1q82 0 134.5 -1.5t68.5 -9.5q9 -5 18 -17t16.5 -28t12.5 -34t7 -35q1 -9 -5 -14.5t-14 -5.5q-36 2 -93 3.5t-114 1.5h-62.5t-45.5 -1q-15 -1 -19.5 -7t-4.5 -20v-81q0 -11 5.5 -15.5t19.5 -4.5l288 1q10 0 15.5 -3.5t5.5 -14.5
q0 -10 -3.5 -24.5t-9 -30t-13 -29t-16.5 -20.5q-10 -8 -25.5 -10t-38.5 -2h-202q-16 0 -21 -6t-5 -18v-84q0 -17 5.5 -22.5t21.5 -6.5q8 0 16.5 -0.5t19 -0.5t24.5 -0.5t34 -0.5q77 0 131 2.5t95 4.5q9 1 15 -4t5 -17q-2 -16 -8 -33.5t-15 -33.5t-19.5 -28.5t-19.5 -16.5
q-8 -4 -21.5 -6.5t-36.5 -4t-57.5 -2t-84.5 -0.5q-58 0 -105.5 1t-81.5 1q-18 0 -45.5 -1.5t-59.5 -3.5t-67 -3.5t-68 -1.5q-56 0 -98.5 4.5t-74.5 13.5t-55 21.5t-39 28.5q-33 32 -55.5 98t-22.5 178q0 108 28.5 180.5t68.5 105.5q35 29 98.5 46t169.5 17q75 0 129.5 -3.5
t84.5 -3.5zM519 516q-3 4 -8.5 6.5t-17 4.5t-32 3t-53.5 1q-57 0 -92 -8.5t-49 -20.5q-17 -16 -30.5 -56.5t-13.5 -110.5q0 -69 11 -106.5t28 -54.5q15 -17 50 -24.5t83 -7.5q62 0 90.5 5.5t34.5 13.5q7 6 9.5 23t2.5 37v217q0 32 -2 50.5t-11 27.5z" />
    <glyph glyph-name="oe" unicode="&#x153;" horiz-adv-x="991" 
d="M706 531q72 0 116.5 -12t69.5 -35q12 -11 23.5 -28.5t19.5 -45.5t13 -68t5 -97q0 -14 -4 -20.5t-16 -6.5h-301q-20 0 -25.5 -4.5t-5.5 -12.5q0 -23 3 -35t13 -20q10 -9 41.5 -14t90.5 -5q57 0 101.5 3t71.5 5q7 1 11 -4t4 -11q-1 -14 -6 -29t-12 -28.5t-16.5 -24.5
t-19.5 -17q-16 -10 -59.5 -19.5t-112.5 -9.5q-57 0 -96.5 5t-71.5 14q-8 2 -16.5 5.5t-14.5 3.5q-11 0 -23 -4t-20 -6q-32 -12 -70 -17.5t-91 -5.5q-74 0 -126 16t-81 43q-24 26 -42 74t-18 133q0 86 23 144t56 84q32 25 82 38t130 13q47 0 87 -4.5t68 -13.5
q11 -5 19.5 -7.5t14.5 -2.5t15.5 3t18.5 6q61 18 151 18zM433 263q0 28 -0.5 47.5t-1.5 32t-4 20t-7 12.5q-11 11 -35.5 15.5t-54.5 4.5q-32 0 -55 -5.5t-33 -16.5q-10 -13 -18.5 -41t-10.5 -74q-1 -41 6 -69.5t19 -42.5q11 -11 34.5 -16.5t49.5 -5.5q34 0 57.5 5.5
t35.5 14.5q4 3 7.5 10t5.5 20.5t3.5 35t1.5 53.5zM694 410q-27 0 -47.5 -3t-28.5 -10q-9 -8 -12.5 -26.5t-3.5 -38.5q0 -8 5 -10t21 -2h105h26.5t11.5 2q6 5 6 13q0 18 -5.5 35.5t-14.5 25.5q-9 6 -23.5 10t-39.5 4z" />
    <glyph glyph-name="Racute" unicode="&#x154;" horiz-adv-x="683" 
d="M69 656q0 10 5.5 13.5t12.5 3.5q52 2 116.5 4.5t130.5 2.5q60 0 102 -2t70.5 -6t47 -10.5t31.5 -15.5q29 -19 44.5 -54t15.5 -96q0 -60 -14 -100t-34 -66q-10 -14 -14 -23t-4 -19q0 -13 5 -32t15 -47l69 -181q4 -11 -0.5 -19.5t-16.5 -8.5h-68q-29 0 -48.5 3.5
t-33.5 13.5t-24 27.5t-20 45.5l-30 84q-7 18 -13 29t-14.5 17.5t-20 8.5t-28.5 2h-78q-16 0 -21.5 -5t-5.5 -25v-171q0 -17 -5.5 -23.5t-20.5 -6.5h-134q-17 0 -17 20v636zM465 462q0 26 -5.5 42t-16.5 25q-8 8 -29 11t-66 3q-23 0 -48 -0.5t-39 -1.5q-8 -1 -12 -5.5
t-4 -16.5v-125q0 -17 5 -23t22 -6h97q26 0 38.5 1t21.5 6q10 4 23 28.5t13 61.5zM266 736q-9 -4 -13.5 0t-4.5 12v60q0 30 12.5 47t47.5 28l147 51q8 2 13 -0.5t5 -10.5v-57q0 -31 -13 -48t-47 -30z" />
    <glyph glyph-name="racute" unicode="&#x155;" horiz-adv-x="465" 
d="M64 495q0 17 18 20q45 5 95 9.5t97 4.5q54 0 90.5 -3t53.5 -13q19 -12 31 -42t12 -73q0 -8 -5 -13t-13 -5q-17 2 -41.5 3.5t-47.5 1.5q-20 0 -43.5 -1t-42.5 -3q-17 -3 -23.5 -9t-6.5 -30v-323q0 -19 -20 -19h-139q-10 0 -12.5 5t-2.5 15v475zM179 582q-9 -4 -13.5 0
t-4.5 12v60q0 30 12.5 47t47.5 28l147 51q8 2 13 -0.5t5 -10.5v-57q0 -31 -13 -48t-47 -30z" />
    <glyph glyph-name="Rcommaaccent" unicode="&#x156;" horiz-adv-x="683" 
d="M69 656q0 10 5.5 13.5t12.5 3.5q52 2 116.5 4.5t130.5 2.5q60 0 102 -2t70.5 -6t47 -10.5t31.5 -15.5q29 -19 44.5 -54t15.5 -96q0 -60 -14 -100t-34 -66q-10 -14 -14 -23t-4 -19q0 -13 5 -32t15 -47l69 -181q4 -11 -0.5 -19.5t-16.5 -8.5h-68q-29 0 -48.5 3.5
t-33.5 13.5t-24 27.5t-20 45.5l-30 84q-7 18 -13 29t-14.5 17.5t-20 8.5t-28.5 2h-78q-16 0 -21.5 -5t-5.5 -25v-171q0 -17 -5.5 -23.5t-20.5 -6.5h-134q-17 0 -17 20v636zM465 462q0 26 -5.5 42t-16.5 25q-8 8 -29 11t-66 3q-23 0 -48 -0.5t-39 -1.5q-8 -1 -12 -5.5
t-4 -16.5v-125q0 -17 5 -23t22 -6h97q26 0 38.5 1t21.5 6q10 4 23 28.5t13 61.5zM400 -164q-9 -21 -17.5 -34.5t-18.5 -21t-23.5 -10.5t-33.5 -3h-47q-7 0 -10.5 4t1.5 14l50 115q13 32 28 44t47 12h60q6 0 10 -5t1 -13z" />
    <glyph glyph-name="rcommaaccent" unicode="&#x157;" horiz-adv-x="465" 
d="M64 495q0 17 18 20q45 5 95 9.5t97 4.5q54 0 90.5 -3t53.5 -13q19 -12 31 -42t12 -73q0 -8 -5 -13t-13 -5q-17 2 -41.5 3.5t-47.5 1.5q-20 0 -43.5 -1t-42.5 -3q-17 -3 -23.5 -9t-6.5 -30v-323q0 -19 -20 -19h-139q-10 0 -12.5 5t-2.5 15v475zM201 -164
q-9 -21 -17.5 -34.5t-18.5 -21t-23.5 -10.5t-33.5 -3h-47q-7 0 -10.5 4t1.5 14l50 115q13 32 28 44t47 12h60q6 0 10 -5t1 -13z" />
    <glyph glyph-name="Rcaron" unicode="&#x158;" horiz-adv-x="683" 
d="M69 656q0 10 5.5 13.5t12.5 3.5q52 2 116.5 4.5t130.5 2.5q60 0 102 -2t70.5 -6t47 -10.5t31.5 -15.5q29 -19 44.5 -54t15.5 -96q0 -60 -14 -100t-34 -66q-10 -14 -14 -23t-4 -19q0 -13 5 -32t15 -47l69 -181q4 -11 -0.5 -19.5t-16.5 -8.5h-68q-29 0 -48.5 3.5
t-33.5 13.5t-24 27.5t-20 45.5l-30 84q-7 18 -13 29t-14.5 17.5t-20 8.5t-28.5 2h-78q-16 0 -21.5 -5t-5.5 -25v-171q0 -17 -5.5 -23.5t-20.5 -6.5h-134q-17 0 -17 20v636zM465 462q0 26 -5.5 42t-16.5 25q-8 8 -29 11t-66 3q-23 0 -48 -0.5t-39 -1.5q-8 -1 -12 -5.5
t-4 -16.5v-125q0 -17 5 -23t22 -6h97q26 0 38.5 1t21.5 6q10 4 23 28.5t13 61.5zM351 727q-8 0 -16.5 3.5t-21.5 11.5l-70 42q-14 9 -23 17.5t-14.5 18.5t-8 23.5t-2.5 33.5v42q0 8 6.5 11t11.5 -2l103 -64q11 -8 20 -12.5t17 -4.5q7 0 15 3t22 14l99 66q7 4 13 1.5t6 -9.5
v-51q0 -35 -12.5 -53.5t-39.5 -35.5l-65 -37q-12 -8 -21 -13t-19 -5z" />
    <glyph glyph-name="rcaron" unicode="&#x159;" horiz-adv-x="465" 
d="M64 495q0 17 18 20q45 5 95 9.5t97 4.5q54 0 90.5 -3t53.5 -13q19 -12 31 -42t12 -73q0 -8 -5 -13t-13 -5q-17 2 -41.5 3.5t-47.5 1.5q-20 0 -43.5 -1t-42.5 -3q-17 -3 -23.5 -9t-6.5 -30v-323q0 -19 -20 -19h-139q-10 0 -12.5 5t-2.5 15v475zM256 573q-8 0 -16.5 3.5
t-21.5 11.5l-70 42q-14 9 -23 17.5t-14.5 18.5t-8 23.5t-2.5 33.5v42q0 8 6.5 11t11.5 -2l103 -64q11 -8 20 -12.5t17 -4.5q7 0 15 3t22 14l99 66q7 4 13 1.5t6 -9.5v-51q0 -35 -12.5 -53.5t-39.5 -35.5l-65 -37q-12 -8 -21 -13t-19 -5z" />
    <glyph glyph-name="Sacute" unicode="&#x15a;" horiz-adv-x="647" 
d="M615 239q0 -75 -18 -123.5t-47 -73.5q-24 -23 -84.5 -37.5t-158.5 -14.5q-79 0 -131 7t-73 21q-12 7 -21.5 20t-16.5 28.5t-10.5 33t-4.5 33.5q-2 11 4.5 16.5t16.5 4.5q15 -2 38.5 -4.5t50.5 -4.5t56.5 -3.5t56.5 -1.5q103 0 121 15q10 8 15.5 17t5.5 29q0 16 -3 24
t-8 13q-6 4 -28.5 10t-53.5 12.5t-67 13.5t-69 13.5t-59.5 13t-38.5 12.5q-24 13 -34 46.5t-10 81.5q0 69 18.5 115t47.5 72q28 26 87.5 42t152.5 16q87 0 132 -7.5t65 -18.5q9 -6 18 -17.5t16.5 -26.5t12 -32.5t5.5 -34.5q2 -9 -4 -16t-16 -5q-35 2 -83 6t-102 4
q-56 0 -91 -5.5t-46 -13.5t-16.5 -19.5t-5.5 -23.5q0 -24 11 -35q5 -5 28 -11.5t55 -13t69 -13t70.5 -13t60.5 -12.5t39 -11q47 -20 47 -128zM247 736q-9 -4 -13.5 0t-4.5 12v60q0 30 12.5 47t47.5 28l147 51q8 2 13 -0.5t5 -10.5v-57q0 -31 -13 -48t-47 -30z" />
    <glyph glyph-name="sacute" unicode="&#x15b;" horiz-adv-x="546" 
d="M300 530q62 0 100 -5t55 -17q20 -12 30.5 -38.5t12.5 -54.5q1 -8 -4.5 -13.5t-13.5 -5.5q-29 2 -69 5.5t-78 3.5t-64.5 -2.5t-34.5 -8.5q-6 -5 -10 -13.5t-4 -19.5q0 -14 9 -20q10 -5 45 -11.5t76.5 -13.5t78.5 -15t51 -16q13 -8 22.5 -31t9.5 -61q0 -63 -14.5 -100.5
t-37.5 -57.5q-23 -19 -70.5 -31t-133.5 -12q-76 0 -113.5 7t-54.5 20q-8 6 -15.5 16.5t-13.5 23.5t-9.5 26t-4.5 25q0 11 6 16.5t14 4.5q33 -5 75.5 -8.5t85.5 -3.5q34 0 58 2.5t32 8.5q13 8 13 28q0 15 -9 20q-8 5 -28 10t-45 10t-53.5 10.5t-53.5 11t-44.5 10.5t-27.5 11
q-13 9 -19 34t-6 48q0 66 16 104.5t39 58.5q24 21 73 32.5t129 11.5zM194 582q-9 -4 -13.5 0t-4.5 12v60q0 30 12.5 47t47.5 28l147 51q8 2 13 -0.5t5 -10.5v-57q0 -31 -13 -48t-47 -30z" />
    <glyph glyph-name="Scircumflex" unicode="&#x15c;" horiz-adv-x="647" 
d="M615 239q0 -75 -18 -123.5t-47 -73.5q-24 -23 -84.5 -37.5t-158.5 -14.5q-79 0 -131 7t-73 21q-12 7 -21.5 20t-16.5 28.5t-10.5 33t-4.5 33.5q-2 11 4.5 16.5t16.5 4.5q15 -2 38.5 -4.5t50.5 -4.5t56.5 -3.5t56.5 -1.5q103 0 121 15q10 8 15.5 17t5.5 29q0 16 -3 24
t-8 13q-6 4 -28.5 10t-53.5 12.5t-67 13.5t-69 13.5t-59.5 13t-38.5 12.5q-24 13 -34 46.5t-10 81.5q0 69 18.5 115t47.5 72q28 26 87.5 42t152.5 16q87 0 132 -7.5t65 -18.5q9 -6 18 -17.5t16.5 -26.5t12 -32.5t5.5 -34.5q2 -9 -4 -16t-16 -5q-35 2 -83 6t-102 4
q-56 0 -91 -5.5t-46 -13.5t-16.5 -19.5t-5.5 -23.5q0 -24 11 -35q5 -5 28 -11.5t55 -13t69 -13t70.5 -13t60.5 -12.5t39 -11q47 -20 47 -128zM333 941q14 0 37 -16l71 -41q14 -9 23 -17.5t14.5 -19t8 -24t2.5 -32.5v-42q0 -8 -6 -11t-13 2l-102 65q-11 7 -19.5 12t-16.5 5
t-16.5 -4t-22.5 -14l-99 -65q-6 -5 -12 -2.5t-6 10.5v49q0 36 12.5 54t38.5 36l66 37q12 8 21.5 13t18.5 5z" />
    <glyph glyph-name="scircumflex" unicode="&#x15d;" horiz-adv-x="546" 
d="M300 530q62 0 100 -5t55 -17q20 -12 30.5 -38.5t12.5 -54.5q1 -8 -4.5 -13.5t-13.5 -5.5q-29 2 -69 5.5t-78 3.5t-64.5 -2.5t-34.5 -8.5q-6 -5 -10 -13.5t-4 -19.5q0 -14 9 -20q10 -5 45 -11.5t76.5 -13.5t78.5 -15t51 -16q13 -8 22.5 -31t9.5 -61q0 -63 -14.5 -100.5
t-37.5 -57.5q-23 -19 -70.5 -31t-133.5 -12q-76 0 -113.5 7t-54.5 20q-8 6 -15.5 16.5t-13.5 23.5t-9.5 26t-4.5 25q0 11 6 16.5t14 4.5q33 -5 75.5 -8.5t85.5 -3.5q34 0 58 2.5t32 8.5q13 8 13 28q0 15 -9 20q-8 5 -28 10t-45 10t-53.5 10.5t-53.5 11t-44.5 10.5t-27.5 11
q-13 9 -19 34t-6 48q0 66 16 104.5t39 58.5q24 21 73 32.5t129 11.5zM280 787q14 0 37 -16l71 -41q14 -9 23 -17.5t14.5 -19t8 -24t2.5 -32.5v-42q0 -8 -6 -11t-13 2l-102 65q-11 7 -19.5 12t-16.5 5t-16.5 -4t-22.5 -14l-99 -65q-6 -5 -12 -2.5t-6 10.5v49q0 36 12.5 54
t38.5 36l66 37q12 8 21.5 13t18.5 5z" />
    <glyph glyph-name="Scedilla" unicode="&#x15e;" horiz-adv-x="647" 
d="M615 239q0 -75 -18 -123.5t-47 -73.5q-24 -23 -84.5 -37.5t-158.5 -14.5q-79 0 -131 7t-73 21q-12 7 -21.5 20t-16.5 28.5t-10.5 33t-4.5 33.5q-2 11 4.5 16.5t16.5 4.5q15 -2 38.5 -4.5t50.5 -4.5t56.5 -3.5t56.5 -1.5q103 0 121 15q10 8 15.5 17t5.5 29q0 16 -3 24
t-8 13q-6 4 -28.5 10t-53.5 12.5t-67 13.5t-69 13.5t-59.5 13t-38.5 12.5q-24 13 -34 46.5t-10 81.5q0 69 18.5 115t47.5 72q28 26 87.5 42t152.5 16q87 0 132 -7.5t65 -18.5q9 -6 18 -17.5t16.5 -26.5t12 -32.5t5.5 -34.5q2 -9 -4 -16t-16 -5q-35 2 -83 6t-102 4
q-56 0 -91 -5.5t-46 -13.5t-16.5 -19.5t-5.5 -23.5q0 -24 11 -35q5 -5 28 -11.5t55 -13t69 -13t70.5 -13t60.5 -12.5t39 -11q47 -20 47 -128zM247 -37q14 0 35 0.5t48 0.5q39 0 61 -4.5t34 -13.5q10 -8 17 -27t7 -46q0 -29 -7.5 -53t-20.5 -38q-25 -25 -108 -25
q-75 0 -98 17q-5 4 -10 12t-8.5 17t-6 17.5t-2.5 14.5q0 13 11 11q15 -2 35.5 -5t51.5 -3q51 0 60 9q6 5 6 19q0 5 -1 10.5t-5 7.5q-3 3 -10.5 4t-24.5 1q-20 0 -30.5 1.5t-16.5 6.5q-8 6 -15.5 24t-9.5 32q-2 4 0.5 7t7.5 3z" />
    <glyph glyph-name="scedilla" unicode="&#x15f;" horiz-adv-x="546" 
d="M300 530q62 0 100 -5t55 -17q20 -12 30.5 -38.5t12.5 -54.5q1 -8 -4.5 -13.5t-13.5 -5.5q-29 2 -69 5.5t-78 3.5t-64.5 -2.5t-34.5 -8.5q-6 -5 -10 -13.5t-4 -19.5q0 -14 9 -20q10 -5 45 -11.5t76.5 -13.5t78.5 -15t51 -16q13 -8 22.5 -31t9.5 -61q0 -63 -14.5 -100.5
t-37.5 -57.5q-23 -19 -70.5 -31t-133.5 -12q-76 0 -113.5 7t-54.5 20q-8 6 -15.5 16.5t-13.5 23.5t-9.5 26t-4.5 25q0 11 6 16.5t14 4.5q33 -5 75.5 -8.5t85.5 -3.5q34 0 58 2.5t32 8.5q13 8 13 28q0 15 -9 20q-8 5 -28 10t-45 10t-53.5 10.5t-53.5 11t-44.5 10.5t-27.5 11
q-13 9 -19 34t-6 48q0 66 16 104.5t39 58.5q24 21 73 32.5t129 11.5zM194 -37q14 0 35 0.5t48 0.5q39 0 61 -4.5t34 -13.5q10 -8 17 -27t7 -46q0 -29 -7.5 -53t-20.5 -38q-25 -25 -108 -25q-75 0 -98 17q-5 4 -10 12t-8.5 17t-6 17.5t-2.5 14.5q0 13 11 11q15 -2 35.5 -5
t51.5 -3q51 0 60 9q6 5 6 19q0 5 -1 10.5t-5 7.5q-3 3 -10.5 4t-24.5 1q-20 0 -30.5 1.5t-16.5 6.5q-8 6 -15.5 24t-9.5 32q-2 4 0.5 7t7.5 3z" />
    <glyph glyph-name="Scaron" unicode="&#x160;" horiz-adv-x="647" 
d="M615 239q0 -75 -18 -123.5t-47 -73.5q-24 -23 -84.5 -37.5t-158.5 -14.5q-79 0 -131 7t-73 21q-12 7 -21.5 20t-16.5 28.5t-10.5 33t-4.5 33.5q-2 11 4.5 16.5t16.5 4.5q15 -2 38.5 -4.5t50.5 -4.5t56.5 -3.5t56.5 -1.5q103 0 121 15q10 8 15.5 17t5.5 29q0 16 -3 24
t-8 13q-6 4 -28.5 10t-53.5 12.5t-67 13.5t-69 13.5t-59.5 13t-38.5 12.5q-24 13 -34 46.5t-10 81.5q0 69 18.5 115t47.5 72q28 26 87.5 42t152.5 16q87 0 132 -7.5t65 -18.5q9 -6 18 -17.5t16.5 -26.5t12 -32.5t5.5 -34.5q2 -9 -4 -16t-16 -5q-35 2 -83 6t-102 4
q-56 0 -91 -5.5t-46 -13.5t-16.5 -19.5t-5.5 -23.5q0 -24 11 -35q5 -5 28 -11.5t55 -13t69 -13t70.5 -13t60.5 -12.5t39 -11q47 -20 47 -128zM332 727q-8 0 -16.5 3.5t-21.5 11.5l-70 42q-14 9 -23 17.5t-14.5 18.5t-8 23.5t-2.5 33.5v42q0 8 6.5 11t11.5 -2l103 -64
q11 -8 20 -12.5t17 -4.5q7 0 15 3t22 14l99 66q7 4 13 1.5t6 -9.5v-51q0 -35 -12.5 -53.5t-39.5 -35.5l-65 -37q-12 -8 -21 -13t-19 -5z" />
    <glyph glyph-name="scaron" unicode="&#x161;" horiz-adv-x="546" 
d="M300 530q62 0 100 -5t55 -17q20 -12 30.5 -38.5t12.5 -54.5q1 -8 -4.5 -13.5t-13.5 -5.5q-29 2 -69 5.5t-78 3.5t-64.5 -2.5t-34.5 -8.5q-6 -5 -10 -13.5t-4 -19.5q0 -14 9 -20q10 -5 45 -11.5t76.5 -13.5t78.5 -15t51 -16q13 -8 22.5 -31t9.5 -61q0 -63 -14.5 -100.5
t-37.5 -57.5q-23 -19 -70.5 -31t-133.5 -12q-76 0 -113.5 7t-54.5 20q-8 6 -15.5 16.5t-13.5 23.5t-9.5 26t-4.5 25q0 11 6 16.5t14 4.5q33 -5 75.5 -8.5t85.5 -3.5q34 0 58 2.5t32 8.5q13 8 13 28q0 15 -9 20q-8 5 -28 10t-45 10t-53.5 10.5t-53.5 11t-44.5 10.5t-27.5 11
q-13 9 -19 34t-6 48q0 66 16 104.5t39 58.5q24 21 73 32.5t129 11.5zM281 573q-8 0 -16.5 3.5t-21.5 11.5l-70 42q-14 9 -23 17.5t-14.5 18.5t-8 23.5t-2.5 33.5v42q0 8 6.5 11t11.5 -2l103 -64q11 -8 20 -12.5t17 -4.5q7 0 15 3t22 14l99 66q7 4 13 1.5t6 -9.5v-51
q0 -35 -12.5 -53.5t-39.5 -35.5l-65 -37q-12 -8 -21 -13t-19 -5z" />
    <glyph glyph-name="Tcommaaccent" unicode="&#x162;" 
d="M358 -164q-9 -21 -17.5 -34.5t-18.5 -21t-23.5 -10.5t-33.5 -3h-47q-7 0 -10.5 4t1.5 14l50 115q13 32 28 44t47 12h60q6 0 10 -5t1 -13zM409 28q0 -14 -5.5 -21t-20.5 -7h-137q-10 0 -13 5.5t-3 13.5v445q0 23 -2 37t-10 21.5t-23 10t-40 2.5h-137q-17 0 -17 14
q0 17 2 35t6 34t9 28t11 17q11 9 30.5 11t59.5 2h505q11 0 15 -4.5t4 -13.5q0 -18 -2 -36t-5.5 -34t-8 -27.5t-10.5 -16.5q-8 -6 -21 -7.5t-37 -1.5h-83q-22 0 -35 -2t-20 -9.5t-9.5 -22t-2.5 -39.5v-434z" />
    <glyph glyph-name="tcommaaccent" unicode="&#x163;" horiz-adv-x="493" 
d="M288 -164q-9 -21 -17.5 -34.5t-18.5 -21t-23.5 -10.5t-33.5 -3h-47q-7 0 -10.5 4t1.5 14l50 115q13 32 28 44t47 12h60q6 0 10 -5t1 -13zM102 564q0 48 17 63q10 11 44.5 21t94.5 15q8 1 14 -3t6 -14v-61q0 -21 1.5 -33.5t7 -19t16.5 -8.5t30 -2h138q20 0 20 -18
q0 -16 -5 -32.5t-11.5 -31t-14 -26t-13.5 -15.5q-15 -7 -48 -7h-77q-30 0 -37 -10t-7 -38v-126q0 -34 3 -49t10 -23q8 -8 24.5 -11.5t57.5 -3.5q28 0 48.5 1.5t38.5 2.5q8 1 12.5 -3.5t3.5 -13.5q-2 -32 -16.5 -60.5t-31.5 -39.5q-11 -8 -42.5 -15t-95.5 -7q-63 0 -100.5 10
t-54.5 28q-9 9 -15.5 21t-10.5 29.5t-5.5 42.5t-1.5 60v158q0 31 -7 39t-33 8h-37q-9 0 -13 5t-4 13q0 13 3 29t8 31.5t11 28t13 17.5q5 4 11 5t13 1h14q21 0 21 18v24z" />
    <glyph glyph-name="Tcaron" unicode="&#x164;" 
d="M409 28q0 -14 -5.5 -21t-20.5 -7h-137q-10 0 -13 5.5t-3 13.5v445q0 23 -2 37t-10 21.5t-23 10t-40 2.5h-137q-17 0 -17 14q0 17 2 35t6 34t9 28t11 17q11 9 30.5 11t59.5 2h505q11 0 15 -4.5t4 -13.5q0 -18 -2 -36t-5.5 -34t-8 -27.5t-10.5 -16.5q-8 -6 -21 -7.5
t-37 -1.5h-83q-22 0 -35 -2t-20 -9.5t-9.5 -22t-2.5 -39.5v-434zM319 727q-8 0 -16.5 3.5t-21.5 11.5l-70 42q-14 9 -23 17.5t-14.5 18.5t-8 23.5t-2.5 33.5v42q0 8 6.5 11t11.5 -2l103 -64q11 -8 20 -12.5t17 -4.5q7 0 15 3t22 14l99 66q7 4 13 1.5t6 -9.5v-51
q0 -35 -12.5 -53.5t-39.5 -35.5l-65 -37q-12 -8 -21 -13t-19 -5z" />
    <glyph glyph-name="tcaron" unicode="&#x165;" horiz-adv-x="493" 
d="M473 777q0 -34 -1 -57.5t-3 -40t-5.5 -28t-9.5 -21.5t-16 -20t-22 -18t-24 -13t-22 -5q-14 0 -14 16v162q0 27 2 45t9.5 28.5t22.5 15t40 4.5h29q14 0 14 -19v-49zM102 564q0 48 17 63q10 11 44.5 21t94.5 15q8 1 14 -3t6 -14v-61q0 -21 1.5 -33.5t7 -19t16.5 -8.5t30 -2
h138q20 0 20 -18q0 -16 -5 -32.5t-11.5 -31t-14 -26t-13.5 -15.5q-15 -7 -48 -7h-77q-30 0 -37 -10t-7 -38v-126q0 -34 3 -49t10 -23q8 -8 24.5 -11.5t57.5 -3.5q28 0 48.5 1.5t38.5 2.5q8 1 12.5 -3.5t3.5 -13.5q-2 -32 -16.5 -60.5t-31.5 -39.5q-11 -8 -42.5 -15t-95.5 -7
q-63 0 -100.5 10t-54.5 28q-9 9 -15.5 21t-10.5 29.5t-5.5 42.5t-1.5 60v158q0 31 -7 39t-33 8h-37q-9 0 -13 5t-4 13q0 13 3 29t8 31.5t11 28t13 17.5q5 4 11 5t13 1h14q21 0 21 18v24z" />
    <glyph glyph-name="Tbar" unicode="&#x166;" 
d="M409 28q0 -14 -5.5 -21t-21.5 -7h-134q-11 0 -14.5 5t-3.5 14v181q0 26 -6 34t-33 8h-138q-19 0 -17 21q1 11 4 26.5t8.5 30.5t12 27t14.5 18q12 8 33 8h96q14 0 19.5 6t6.5 26v70q0 35 -11.5 47.5t-53.5 12.5h-147q-17 0 -17 14q0 16 2 34t5.5 34t9 28.5t11.5 17.5
q11 8 30.5 10.5t60.5 2.5h503q12 0 16 -4t4 -14q0 -35 -7.5 -69t-18.5 -45q-8 -5 -21 -7t-38 -2h-89q-38 0 -49 -12.5t-11 -53.5v-72q0 -17 6 -20.5t23 -3.5h149q9 0 13.5 -4t4.5 -15q0 -10 -3 -25t-7.5 -30t-10.5 -27.5t-12 -17.5q-9 -7 -21.5 -9t-40.5 -2h-67
q-19 0 -26.5 -7.5t-7.5 -30.5v-177z" />
    <glyph glyph-name="tbar" unicode="&#x167;" horiz-adv-x="492" 
d="M276 182q0 -2 0 -0.5t1 0.5q0 -24 2.5 -36t8.5 -17q8 -8 26 -10.5t59 -2.5q27 0 47.5 1.5t38.5 2.5q16 2 16 -17q-2 -31 -16.5 -54t-31.5 -34q-14 -9 -44.5 -14t-93.5 -5t-101 9.5t-55 27.5q-19 18 -26 47t-7 83v23q0 20 -6 26t-27 6h-46q-9 0 -13.5 5t-4.5 12q0 12 3 26
t8 26.5t11.5 22t12.5 12.5q5 5 11.5 6t14.5 1h14q13 0 17.5 5t4.5 18v23q0 23 -6 28.5t-29 5.5h-43q-8 0 -11.5 6.5t-3.5 11.5q2 31 12.5 56t23.5 34q4 3 12 4t13 1h11q21 0 21 18v24q0 48 17 63q11 11 45.5 21t93.5 15q8 1 14 -3t6 -14v-61q0 -21 1.5 -33.5t7 -19
t16.5 -8.5t31 -2h139q19 0 19 -17q-2 -29 -16.5 -54t-26.5 -33q-9 -5 -21.5 -7t-34.5 -2h-76q-24 0 -31.5 -8t-7.5 -28v-6q0 -27 8 -32.5t37 -5.5h128q20 0 20 -20q0 -12 -4.5 -25t-11 -25t-13.5 -20.5t-13 -11.5q-8 -5 -19 -6.5t-36 -1.5h-59q-23 0 -30 -8t-7 -29z" />
    <glyph glyph-name="Utilde" unicode="&#x168;" horiz-adv-x="755" 
d="M685 277q0 -47 -3 -81.5t-10 -60t-18 -44.5t-27 -34q-26 -26 -88 -46.5t-166 -20.5q-103 0 -165.5 20.5t-91.5 53.5q-13 14 -22 31t-14.5 41t-8 55.5t-2.5 73.5v392q0 11 5.5 15t13.5 4h78q29 0 46.5 -2.5t26.5 -12t11.5 -30t2.5 -56.5v-300q0 -45 4.5 -68t17.5 -37
q11 -11 37 -18.5t63 -7.5q39 0 65 6.5t40 18.5q12 12 18 35t6 71v301q0 35 3 55t12 30t26 12.5t46 2.5h73q21 0 21 -19v-380zM436 741q-17 0 -43 16l-33 22q-11 8 -20 11.5t-19 3.5t-18 -3t-23 -13l-42 -31q-7 -5 -11.5 -2.5t-4.5 10.5v42q0 26 7 42t34 34l27 17
q22 14 42 14q9 0 20 -3t25 -12l27 -19q19 -15 39 -15q11 0 20.5 4.5t22.5 13.5l36 26q6 4 11.5 2t5.5 -9v-43q0 -29 -9 -45t-29 -31l-24 -16q-22 -16 -41 -16z" />
    <glyph glyph-name="utilde" unicode="&#x169;" horiz-adv-x="652" 
d="M587 34q0 -9 -4 -13t-14 -6q-42 -9 -108 -15.5t-139 -6.5q-96 0 -148.5 13t-77.5 39q-11 12 -18 26t-11.5 33t-6 45t-1.5 61v294q0 18 18 18h136q14 0 18 -6t4 -19v-267q0 -32 3 -49.5t11 -27.5q18 -21 78 -21q38 0 61 3q14 4 19.5 11t5.5 24v334q0 18 18 18h141
q9 0 12 -4.5t3 -15.5v-468zM381 587q-17 0 -43 16l-33 22q-11 8 -20 11.5t-19 3.5t-18 -3t-23 -13l-42 -31q-7 -5 -11.5 -2.5t-4.5 10.5v42q0 26 7 42t34 34l27 17q22 14 42 14q9 0 20 -3t25 -12l27 -19q19 -15 39 -15q11 0 20.5 4.5t22.5 13.5l36 26q6 4 11.5 2t5.5 -9v-43
q0 -29 -9 -45t-29 -31l-24 -16q-22 -16 -41 -16z" />
    <glyph glyph-name="Umacron" unicode="&#x16a;" horiz-adv-x="755" 
d="M685 277q0 -47 -3 -81.5t-10 -60t-18 -44.5t-27 -34q-26 -26 -88 -46.5t-166 -20.5q-103 0 -165.5 20.5t-91.5 53.5q-13 14 -22 31t-14.5 41t-8 55.5t-2.5 73.5v392q0 11 5.5 15t13.5 4h78q29 0 46.5 -2.5t26.5 -12t11.5 -30t2.5 -56.5v-300q0 -45 4.5 -68t17.5 -37
q11 -11 37 -18.5t63 -7.5q39 0 65 6.5t40 18.5q12 12 18 35t6 71v301q0 35 3 55t12 30t26 12.5t46 2.5h73q21 0 21 -19v-380zM224 756q-16 0 -16 15q0 7 4 20.5t10.5 27.5t14.5 26.5t17 18.5q9 5 22 6.5t33 1.5h214q7 0 12 -3.5t5 -11.5t-4 -21t-10.5 -26.5t-14.5 -25.5
t-16 -18q-10 -7 -24 -8.5t-35 -1.5h-212z" />
    <glyph glyph-name="umacron" unicode="&#x16b;" horiz-adv-x="652" 
d="M587 34q0 -9 -4 -13t-14 -6q-42 -9 -108 -15.5t-139 -6.5q-96 0 -148.5 13t-77.5 39q-11 12 -18 26t-11.5 33t-6 45t-1.5 61v294q0 18 18 18h136q14 0 18 -6t4 -19v-267q0 -32 3 -49.5t11 -27.5q18 -21 78 -21q38 0 61 3q14 4 19.5 11t5.5 24v334q0 18 18 18h141
q9 0 12 -4.5t3 -15.5v-468zM185 602q-16 0 -16 15q0 7 4 20.5t10.5 27.5t14.5 26.5t17 18.5q9 5 22 6.5t33 1.5h214q7 0 12 -3.5t5 -11.5t-4 -21t-10.5 -26.5t-14.5 -25.5t-16 -18q-10 -7 -24 -8.5t-35 -1.5h-212z" />
    <glyph glyph-name="Ubreve" unicode="&#x16c;" horiz-adv-x="755" 
d="M685 277q0 -47 -3 -81.5t-10 -60t-18 -44.5t-27 -34q-26 -26 -88 -46.5t-166 -20.5q-103 0 -165.5 20.5t-91.5 53.5q-13 14 -22 31t-14.5 41t-8 55.5t-2.5 73.5v392q0 11 5.5 15t13.5 4h78q29 0 46.5 -2.5t26.5 -12t11.5 -30t2.5 -56.5v-300q0 -45 4.5 -68t17.5 -37
q11 -11 37 -18.5t63 -7.5q39 0 65 6.5t40 18.5q12 12 18 35t6 71v301q0 35 3 55t12 30t26 12.5t46 2.5h73q21 0 21 -19v-380zM525 878q0 -24 -1.5 -40t-4.5 -27t-7 -18.5t-10 -14.5q-11 -14 -41.5 -26.5t-81.5 -12.5q-93 0 -123 39q-11 13 -15 32t-4 63v40q0 8 9 8h43
q21 0 30 -7.5t9 -29.5v-15q0 -22 7 -33q12 -12 46 -12q15 0 27.5 2.5t18.5 10.5q4 5 5.5 12t1.5 21v13q0 23 10 30.5t32 7.5h39q10 0 10 -7v-36z" />
    <glyph glyph-name="ubreve" unicode="&#x16d;" horiz-adv-x="652" 
d="M587 34q0 -9 -4 -13t-14 -6q-42 -9 -108 -15.5t-139 -6.5q-96 0 -148.5 13t-77.5 39q-11 12 -18 26t-11.5 33t-6 45t-1.5 61v294q0 18 18 18h136q14 0 18 -6t4 -19v-267q0 -32 3 -49.5t11 -27.5q18 -21 78 -21q38 0 61 3q14 4 19.5 11t5.5 24v334q0 18 18 18h141
q9 0 12 -4.5t3 -15.5v-468zM468 724q0 -24 -1.5 -40t-4.5 -27t-7 -18.5t-10 -14.5q-11 -14 -41.5 -26.5t-81.5 -12.5q-93 0 -123 39q-11 13 -15 32t-4 63v40q0 8 9 8h43q21 0 30 -7.5t9 -29.5v-15q0 -22 7 -33q12 -12 46 -12q15 0 27.5 2.5t18.5 10.5q4 5 5.5 12t1.5 21v13
q0 23 10 30.5t32 7.5h39q10 0 10 -7v-36z" />
    <glyph glyph-name="Uring" unicode="&#x16e;" horiz-adv-x="755" 
d="M685 277q0 -47 -3 -81.5t-10 -60t-18 -44.5t-27 -34q-26 -26 -88 -46.5t-166 -20.5q-103 0 -165.5 20.5t-91.5 53.5q-13 14 -22 31t-14.5 41t-8 55.5t-2.5 73.5v392q0 11 5.5 15t13.5 4h78q29 0 46.5 -2.5t26.5 -12t11.5 -30t2.5 -56.5v-300q0 -45 4.5 -68t17.5 -37
q11 -11 37 -18.5t63 -7.5q39 0 65 6.5t40 18.5q12 12 18 35t6 71v301q0 35 3 55t12 30t26 12.5t46 2.5h73q21 0 21 -19v-380zM246 854q0 53 30.5 85t103.5 32q37 0 62.5 -8.5t41.5 -24t23 -37t7 -47.5q0 -53 -30.5 -85.5t-103.5 -32.5q-37 0 -62.5 8.5t-41.5 24t-23 37.5
t-7 48zM329 852q0 -17 11.5 -27t39.5 -10t39.5 10t11.5 27q0 19 -11.5 30t-39.5 11t-39.5 -11t-11.5 -30z" />
    <glyph glyph-name="uring" unicode="&#x16f;" horiz-adv-x="652" 
d="M587 34q0 -9 -4 -13t-14 -6q-42 -9 -108 -15.5t-139 -6.5q-96 0 -148.5 13t-77.5 39q-11 12 -18 26t-11.5 33t-6 45t-1.5 61v294q0 18 18 18h136q14 0 18 -6t4 -19v-267q0 -32 3 -49.5t11 -27.5q18 -21 78 -21q38 0 61 3q14 4 19.5 11t5.5 24v334q0 18 18 18h141
q9 0 12 -4.5t3 -15.5v-468zM194 700q0 53 30.5 85t103.5 32q37 0 62.5 -8.5t41.5 -24t23 -37t7 -47.5q0 -53 -30.5 -85.5t-103.5 -32.5q-37 0 -62.5 8.5t-41.5 24t-23 37.5t-7 48zM277 698q0 -17 11.5 -27t39.5 -10t39.5 10t11.5 27q0 19 -11.5 30t-39.5 11t-39.5 -11
t-11.5 -30z" />
    <glyph glyph-name="Uhungarumlaut" unicode="&#x170;" horiz-adv-x="755" 
d="M685 277q0 -47 -3 -81.5t-10 -60t-18 -44.5t-27 -34q-26 -26 -88 -46.5t-166 -20.5q-103 0 -165.5 20.5t-91.5 53.5q-13 14 -22 31t-14.5 41t-8 55.5t-2.5 73.5v392q0 11 5.5 15t13.5 4h78q29 0 46.5 -2.5t26.5 -12t11.5 -30t2.5 -56.5v-300q0 -45 4.5 -68t17.5 -37
q11 -11 37 -18.5t63 -7.5q39 0 65 6.5t40 18.5q12 12 18 35t6 71v301q0 35 3 55t12 30t26 12.5t46 2.5h73q21 0 21 -19v-380zM539 799q-12 -29 -29 -40.5t-42 -11.5h-54q-5 0 -8 3.5t-1 11.5l49 121q11 32 27 43t42 11h55q6 0 9.5 -3.5t0.5 -11.5zM349 801
q-11 -31 -29 -42.5t-43 -11.5h-54q-14 0 -8 14l49 122q11 31 27.5 42.5t42.5 11.5h55q5 0 8.5 -3t1.5 -11z" />
    <glyph glyph-name="uhungarumlaut" unicode="&#x171;" horiz-adv-x="652" 
d="M587 34q0 -9 -4 -13t-14 -6q-42 -9 -108 -15.5t-139 -6.5q-96 0 -148.5 13t-77.5 39q-11 12 -18 26t-11.5 33t-6 45t-1.5 61v294q0 18 18 18h136q14 0 18 -6t4 -19v-267q0 -32 3 -49.5t11 -27.5q18 -21 78 -21q38 0 61 3q14 4 19.5 11t5.5 24v334q0 18 18 18h141
q9 0 12 -4.5t3 -15.5v-468zM492 645q-12 -29 -29 -40.5t-42 -11.5h-54q-5 0 -8 3.5t-1 11.5l49 121q11 32 27 43t42 11h55q6 0 9.5 -3.5t0.5 -11.5zM302 647q-11 -31 -29 -42.5t-43 -11.5h-54q-14 0 -8 14l49 122q11 31 27.5 42.5t42.5 11.5h55q5 0 8.5 -3t1.5 -11z" />
    <glyph glyph-name="Uogonek" unicode="&#x172;" horiz-adv-x="755" 
d="M684 277q0 -43 -3 -75.5t-9.5 -57t-15.5 -43.5t-21 -35q-9 -12 -22 -25t-27.5 -27t-29.5 -28t-28 -27q-32 -29 -49 -45.5t-20 -22.5q-7 -10 -7 -25t8 -19q4 -4 20.5 -6t34.5 -2q24 0 43 1.5t36 3.5q3 1 6 -1t3 -7q0 -6 -4 -16t-10 -20.5t-13.5 -19.5t-14.5 -13
q-11 -8 -38.5 -12.5t-61.5 -4.5q-81 0 -108 24q-9 8 -15 25t-6 48q0 23 6.5 42t15.5 31q4 6 13 14.5t21 18.5t25 20.5t26 19.5l-32 -2t-34 -1q-104 0 -166.5 20.5t-92.5 53.5q-12 14 -21 31t-14.5 41t-8 55.5t-2.5 73.5v393q0 11 5 14.5t12 3.5h80q29 0 46.5 -2.5t26.5 -12
t12 -30t3 -56.5v-300q0 -45 4 -68t17 -37q11 -11 37 -18.5t64 -7.5q74 0 104 24q12 13 18.5 36t6.5 71v301q0 35 2.5 55t11.5 30t26 12.5t46 2.5h77q17 0 17 -17v-382z" />
    <glyph glyph-name="uogonek" unicode="&#x173;" horiz-adv-x="652" 
d="M587 37q0 -9 -2.5 -14.5t-7.5 -12.5q-6 -8 -19 -18.5t-42 -32.5q-41 -30 -57 -46t-20 -23q-6 -11 -6 -24q0 -14 8 -19q5 -4 21 -6t34 -2q23 0 42 1.5t36 3.5q10 2 10 -8q0 -6 -4 -16t-10 -20.5t-13.5 -19.5t-14.5 -13q-11 -8 -38.5 -12.5t-61.5 -4.5q-82 0 -108 24
q-9 8 -15.5 25t-6.5 48q0 23 6.5 42t16.5 31q11 14 39.5 34.5t62.5 43.5q-26 -2 -56 -3.5t-59 -1.5q-96 0 -148.5 13t-77.5 39q-11 12 -18 26t-11.5 33t-6 45t-1.5 61v294q0 18 18 18h136q14 0 18 -6t4 -19v-268q0 -32 3 -49.5t11 -27.5q17 -21 78 -21q20 0 35 1t27 3
q13 3 18.5 10t5.5 24v335q0 18 18 18h141q9 0 12 -4.5t3 -15.5v-465z" />
    <glyph glyph-name="Wcircumflex" unicode="&#x174;" horiz-adv-x="1104" 
d="M114 676q25 0 43.5 -3.5t30.5 -13.5t18.5 -28.5t9.5 -47.5l51 -411q4 -20 10.5 -25.5t20.5 -5.5t21.5 6t10.5 26l46 318q11 91 44 118q17 14 50 23t88 9q57 0 91.5 -7.5t51.5 -21.5q15 -14 25 -42.5t14 -76.5l41 -321q3 -21 9 -26t20 -5t21 5.5t9 25.5l61 424
q5 47 27 63.5t64 16.5h66q13 0 19 -7.5t4 -19.5l-88 -514q-4 -25 -9 -42.5t-11 -30.5t-13 -22t-15 -16q-17 -14 -50.5 -23t-91.5 -9q-50 0 -87.5 7t-54.5 22q-16 15 -25.5 41t-14.5 83l-37 321q-2 20 -7 26.5t-20 6.5q-16 0 -21 -7t-8 -27l-46 -321q-7 -55 -18 -81.5
t-28 -40.5q-17 -15 -57 -22.5t-91 -7.5q-63 0 -95.5 7t-47.5 21q-7 6 -13 14t-11.5 22t-10.5 34.5t-9 52.5l-78 508q-2 12 4.5 18.5t14.5 6.5h72zM557 941q14 0 37 -16l71 -41q14 -9 23 -17.5t14.5 -19t8 -24t2.5 -32.5v-42q0 -8 -6 -11t-13 2l-102 65q-11 7 -19.5 12
t-16.5 5t-16.5 -4t-22.5 -14l-99 -65q-6 -5 -12 -2.5t-6 10.5v49q0 36 12.5 54t38.5 36l66 37q12 8 21.5 13t18.5 5z" />
    <glyph glyph-name="wcircumflex" unicode="&#x175;" horiz-adv-x="965" 
d="M244 148q1 -21 24 -21q14 0 18.5 4t6.5 15l37 242q5 38 13 59.5t23 34.5q15 12 45 20t76 8q48 0 78 -6t44 -20q15 -12 23.5 -33t13.5 -60l33 -241q2 -14 7 -18.5t16 -4.5q15 0 20 5.5t7 21.5l43 290q5 46 23.5 62t58.5 16h68q22 0 19 -20l-71 -388q-7 -40 -17 -60.5
t-26 -32.5q-14 -11 -43.5 -19t-87.5 -8q-89 0 -120 25q-14 13 -23 34t-14 65l-33 237q-2 15 -5.5 20.5t-15.5 5.5t-16.5 -6t-6.5 -22l-36 -234q-6 -47 -17 -68t-26 -32q-14 -11 -45 -18t-80 -7q-56 0 -85 7t-43 18q-14 10 -22.5 30.5t-15.5 68.5l-68 384q-3 20 19 20h71
q22 0 37.5 -3.5t26 -12.5t16 -25t7.5 -42zM486 787q14 0 37 -16l71 -41q14 -9 23 -17.5t14.5 -19t8 -24t2.5 -32.5v-42q0 -8 -6 -11t-13 2l-102 65q-11 7 -19.5 12t-16.5 5t-16.5 -4t-22.5 -14l-99 -65q-6 -5 -12 -2.5t-6 10.5v49q0 36 12.5 54t38.5 36l66 37q12 8 21.5 13
t18.5 5z" />
    </font>
</defs>
</svg>
